<?xml version="1.0" encoding="UTF-8" standalone="no"?><!DOCTYPE svg PUBLIC "-//W3C//DTD SVG 1.1//EN" "http://www.w3.org/Graphics/SVG/1.1/DTD/svg11.dtd"><svg width="100%" height="100%" viewBox="0 0 851 284" version="1.1" xmlns="http://www.w3.org/2000/svg" xmlns:xlink="http://www.w3.org/1999/xlink" xml:space="preserve" xmlns:serif="http://www.serif.com/" style="fill-rule:evenodd;clip-rule:evenodd;stroke-linejoin:round;stroke-miterlimit:2;"><g><rect x="1.417" y="1.953" width="847.56" height="280.629" style="fill:#fff;fill-rule:nonzero;"/><path d="M844.725,278.33l-272.126,-0l-0,-272.125l272.126,-0l-0,272.125Zm-277.796,-0l-561.26,-0l0,-272.125l561.26,-0l0,272.125Zm-566.929,-277.795l0,283.465l850.394,0l-0,-283.465l-850.394,0Z" style="fill:#231f20;fill-rule:nonzero;"/><path d="M120.802,140.238c6.749,-4.314 10.797,-11.057 10.797,-19.823c-0,-14.427 -9.986,-25.486 -28.342,-25.486l-30.774,0c-0.943,0 -1.617,0.674 -1.617,1.619l-0,91.155c-0,0.943 0.674,1.619 1.617,1.619l31.989,-0c18.894,-0 28.881,-11.463 28.881,-26.564c-0,-9.845 -4.723,-17.261 -12.551,-21.442c-0.541,-0.405 -0.541,-0.809 0,-1.078Zm-19.704,-29.667c8.502,-0 13.225,4.585 13.225,11.596c-0,7.014 -4.723,11.733 -13.225,11.733l-12.959,-0c-0.538,-0 -0.807,-0.269 -0.807,-0.81l0,-21.71c0,-0.538 0.269,-0.809 0.807,-0.809l12.959,-0Zm1.349,63.107l-14.308,0c-0.538,0 -0.807,-0.402 -0.807,-0.807l0,-22.655c0,-0.538 0.269,-0.81 0.807,-0.81l14.308,0c8.774,0 13.633,4.99 13.633,12.137c0,7.28 -4.859,12.135 -13.633,12.135Zm105.221,-64.724l-0,-12.406c-0,-0.945 -0.674,-1.619 -1.62,-1.619l-49.126,0c-0.946,0 -1.62,0.674 -1.62,1.619l0,91.155c0,0.943 0.674,1.619 1.62,1.619l49.126,-0c0.946,-0 1.62,-0.676 1.62,-1.619l-0,-12.406c-0,-0.943 -0.674,-1.619 -1.62,-1.619l-33.47,0c-0.541,0 -0.81,-0.402 -0.81,-0.807l0,-22.655c0,-0.538 0.404,-0.81 0.81,-0.81l33.47,0c0.946,0 1.62,-0.674 1.62,-1.616l-0,-12.271c-0,-0.945 -0.674,-1.619 -1.62,-1.619l-33.47,-0c-0.541,-0 -0.81,-0.269 -0.81,-0.81l0,-21.71c0,-0.538 0.404,-0.809 0.81,-0.809l33.47,-0c0.946,-0 1.62,-0.674 1.62,-1.617Zm73.26,80.368l17.004,-0c1.351,-0 1.754,-0.945 0.946,-2.023l-20.245,-27.374c-0.272,-0.406 -0.272,-0.944 0.269,-1.212c12.012,-4.855 19.976,-15.509 19.976,-30.341c-0,-21.037 -15.928,-33.443 -36.173,-33.443l-28.881,0c-0.946,0 -1.62,0.674 -1.62,1.619l-0,91.155c-0,0.943 0.674,1.619 1.62,1.619l13.362,-0c0.943,-0 1.62,-0.676 1.62,-1.619l-0,-25.081c-0,-0.538 0.402,-0.81 0.807,-0.81l10.259,-0c0.405,-0 0.81,0.272 1.08,0.54l18.086,25.889c0.405,0.677 1.079,1.081 1.89,1.081Zm-31.315,-78.751l12.284,-0c10.931,-0 19.705,5.799 19.705,17.801c-0,12.001 -8.774,17.799 -19.84,17.799l-12.149,0c-0.538,0 -0.807,-0.406 -0.807,-0.81l-0,-33.981c-0,-0.538 0.269,-0.809 0.807,-0.809Zm87.295,62.3l-0,-76.323c-0,-0.945 -0.675,-1.619 -1.618,-1.619l-13.364,0c-0.943,0 -1.617,0.674 -1.617,1.619l-0,91.155c-0,0.943 0.674,1.619 1.617,1.619l46.024,-0c0.946,-0 1.62,-0.676 1.62,-1.619l0,-12.406c0,-0.943 -0.674,-1.619 -1.62,-1.619l-30.232,0c-0.538,0 -0.81,-0.402 -0.81,-0.807Zm53.283,16.451l13.363,-0c0.944,-0 1.618,-0.676 1.618,-1.619l-0,-91.155c-0,-0.945 -0.674,-1.619 -1.618,-1.619l-13.363,0c-0.943,0 -1.618,0.674 -1.618,1.619l-0,91.155c-0,0.943 0.675,1.619 1.618,1.619Zm95.359,-92.774l-0,62.433c-0,0.81 -0.541,1.079 -0.947,0.27l-35.628,-63.243c-0.406,-0.674 -1.216,-1.079 -2.026,-1.079l-15.251,0c-0.946,0 -1.62,0.674 -1.62,1.619l0,91.155c0,0.943 0.674,1.619 1.62,1.619l13.225,-0c0.946,-0 1.621,-0.676 1.621,-1.619l0,-62.298c0,-0.809 0.541,-1.078 0.946,-0.271l35.629,63.107c0.405,0.677 1.215,1.081 2.026,1.081l15.25,-0c0.946,-0 1.621,-0.676 1.621,-1.619l-0,-91.155c-0,-0.945 -0.675,-1.619 -1.621,-1.619l-13.227,0c-0.944,0 -1.618,0.674 -1.618,1.619Z" style="fill:#ed1b2e;fill-rule:nonzero;"/><path d="M750.31,222.693c-0,0 -4.955,-32.867 -7.296,-46.724c0.661,-0.135 1.022,-0.215 1.022,-0.215c2.172,-0.376 2.988,-2.861 2.02,-4.532c-5.609,-9.656 -7.615,-21.687 -7.615,-33.645c-0,-7.37 1.231,-14.454 3.506,-21.05c0.129,-0.379 0.267,-0.754 0.405,-1.128c0.08,-0.23 0.244,-0.738 0.276,-0.818c1.512,-3.29 4.235,-10.429 5.041,-18.426c0.655,-6.474 -0.166,-11.872 -1.304,-16.931c-0.538,-2.448 -1.917,-6.476 -2.796,-8.345c-0.148,-0.273 -0.301,-0.539 -0.455,-0.801c2.022,-2.034 2.415,-5.28 0.861,-7.976c-1.834,-3.162 -5.596,-4.414 -8.403,-2.792c-0.296,0.17 -0.991,0.657 -1.3,0.883c-0.512,-0.376 -0.811,-0.565 -0.811,-0.565c-0.016,-0.011 -0.791,-0.519 -1.472,-0.876c-0.002,-0.002 -0.256,-0.131 -0.26,-0.135c-2.884,-1.278 -6.011,-1.956 -9.373,-1.956c-1.643,-0 -3.244,0.17 -4.795,0.492c-3.354,0.698 -6.442,2.114 -9.1,4.084c-1.386,0.444 -2.881,0.546 -2.881,0.546l-3.802,0.182c-1.788,0.075 -3.831,-0.013 -3.831,-0.013c-0.891,-0 -1.615,0.726 -1.615,1.62c-0,0.079 0.586,5.305 0.588,5.322c0.141,1.308 0.693,2.543 1.788,3.253l0.128,0.089c0.35,0.234 0.527,0.422 0.602,0.622c0.418,1.138 1.267,2.274 1.842,2.62c0.261,0.161 0.666,0.082 0.741,-0.215c0.724,-2.846 2.424,0.226 5.656,-1.527c0.834,-0.451 1.275,1.566 0.926,2.447l-0.299,0.762c-0.668,1.697 -2.206,2.915 -4.021,3.177c-1.432,0.208 -2.255,0.354 -2.236,0.552c0.173,1.613 -0.019,2.999 1.62,3.968c0.481,0.256 0.717,0.317 0.717,0.317c2.509,0.659 9.835,3.467 0.521,14.456c0,-0 -0.885,0.989 -1.565,1.97c-0.197,0.281 -0.366,0.58 -0.515,0.889l-0.194,0.396l-27.996,-10.478c-0.845,-0.326 -1.931,-1.248 -2.448,-1.989l-2.755,-4.739c-1.715,-2.369 -3.208,-3.269 -6.183,-3.512c-2.147,-0.176 -3.896,-0.013 -3.896,-0.013c-0.833,0.043 -1.314,0.239 -1.491,0.724c-0.193,0.527 -0.211,1.852 0.606,3.508l2.404,4.412c0.211,0.314 3.24,7.089 3.24,7.089c0.302,0.835 0.823,1.572 1.504,2.139c0.063,0.052 28.744,21.723 28.744,21.723l-30.291,15.111c-0.872,0.473 -1.897,0.58 -2.847,0.292c-1.115,-0.337 -2.703,-0.82 -2.715,-0.822c-4.955,-2.209 -8.687,-0.673 -10.873,1.159c-0.02,0.017 -0.856,0.812 -0.856,0.812c-0.825,0.823 -0.517,1.941 0.416,2.401c-0,-0 4.781,2.81 5.834,3.53l7.444,4.408c1.154,0.67 2.516,0.891 3.826,0.623l29.407,-5.931c0.711,11.258 3.549,20.617 3.549,20.617c-5.305,5.095 -12.611,14.834 -15.01,28.189c-1.427,7.938 -0.961,15.134 1.204,23.593c-4.106,0.226 -8.07,0.833 -11.362,3.122c-3.133,2.177 -3.775,6.057 -3.794,7.995l22.964,0.05l1.943,-0.01c2.416,-0.032 3.041,-2.427 3.043,-2.434c0.235,-0.725 0.314,-1.675 0.424,-2.382c0.732,-4.594 1.313,-9.365 5.396,-17.605c3.301,-6.656 9.144,-12.65 9.146,-12.65c0.013,0.02 9.662,14.306 25.976,24.106c-3.126,0.197 -7.168,1.23 -9.568,2.564c-3.801,2.112 -4.848,6.452 -4.76,8.468l23.789,0c1.636,0 3.003,-1.058 3.495,-2.498c0.049,-0.148 0.09,-0.304 0.123,-0.46c0.021,-0.112 0.039,-0.226 0.049,-0.34c0.024,-0.245 0.026,-0.496 -0.002,-0.749Z" style="fill-rule:nonzero;"/></g></svg>