<?xml version="1.0" encoding="UTF-8" standalone="no"?><!DOCTYPE svg PUBLIC "-//W3C//DTD SVG 1.1//EN" "http://www.w3.org/Graphics/SVG/1.1/DTD/svg11.dtd"><svg width="100%" height="100%" viewBox="0 0 15 25" version="1.1" xmlns="http://www.w3.org/2000/svg" xmlns:xlink="http://www.w3.org/1999/xlink" xml:space="preserve" xmlns:serif="http://www.serif.com/" style="fill-rule:evenodd;clip-rule:evenodd;stroke-linejoin:round;stroke-miterlimit:2;"><path d="M8.699,0.656l-1.455,0.053c-0.071,0.006 -0.125,0.042 -0.125,0.126c0.006,0.524 0.108,0.864 0.483,1.138c-0.048,0.293 -0.018,0.442 0.286,0.686c0.03,-0.238 0.126,-0.346 0.275,-0.447c0.012,0.006 0.023,0.006 0.029,0.012c-0.017,0.107 -0.017,0.22 0.006,0.286c0.06,0.167 0.352,0.173 0.43,0.054c0.071,0.173 0.22,0.179 0.339,0.179c0.126,-0 0.185,-0.09 0.227,-0.173c0.072,0.059 0.143,0.125 0.209,0.208c0.208,0.286 0.244,0.656 0.244,1.008l-0.197,0.018l0,-0.143c-0.006,-0.203 -0.477,-0.239 -0.584,-0.066c-0.119,-0.131 -0.489,-0.107 -0.489,0.101l0,0.066c-0.083,-0.107 -0.149,-0.221 -0.202,-0.334c-0.15,0.096 -0.239,0.167 -0.215,0.507c-0.066,0.006 -0.131,0.012 -0.191,0.018c0.006,0.393 0.179,0.501 1.586,0.471c0.036,0.393 -0.358,0.614 -0.65,0.799c-0.763,0.435 -1.568,0.912 -2.003,1.711c-0.364,0.632 -0.453,1.383 -0.411,2.11l0.417,-0.185l0.048,0.227c-0.752,0.358 -2.123,1.085 -3.023,1.502c-0.221,0.102 -0.793,0.245 -0.912,0.042c-0.412,-0.709 -0.74,-1.246 -1.217,-1.788c-0.244,-0.281 -1.866,1.061 -1.568,1.514c0.68,1.031 1.789,2.51 3.637,2.522c1.914,0.012 3.577,-0.692 3.941,-0.799l0.078,0.244c-0.245,0.108 -0.459,0.185 -0.716,0.269c0.334,1.311 0.722,1.824 1.622,2.623l-0.185,0.137c-0.161,-0.095 -0.435,-0.399 -0.584,-0.542c-1.914,0.906 -2.629,1.812 -3.089,2.748c-0.506,1.127 -0.411,2.409 -0.196,3.595c0.041,0.197 -0.173,0.292 -0.334,0.233c-0.441,-0.102 -0.686,-0.543 -1.109,-0.704c-0.191,-0.083 -0.441,-0.179 -0.65,-0.143c-0.34,0.06 -0.703,1.777 -0.358,1.944c0.644,0.316 1.348,0.381 2.063,0.751c0.471,0.191 0.924,0.501 1.461,0.417c0.304,-0.03 0.608,-0.238 0.638,-0.56c0.268,-1.157 0.644,-2.385 1.526,-3.22c0.423,-0.417 0.972,-0.751 1.514,-1.007c-0.214,-0.823 -0.375,-1.646 -0.357,-2.504l0.262,-0.012c0.191,3.267 1.061,3.953 2.593,5.473c0.155,0.155 0.144,0.447 -0.083,0.536c-0.298,0.149 -0.65,0.155 -0.99,0.173c-0.363,0.018 -0.089,2.033 0.447,2.015c0.942,-0.029 1.92,-0.763 2.487,-1.484c0.238,-0.298 0.524,-0.596 0.751,-0.888c0.28,-0.364 -0.024,-0.787 -0.108,-1.121c-0.232,-0.954 -0.339,-3.697 -0.351,-4.078l0.334,0.006l0.047,-0.692c-0.995,-1.234 -0.834,-3.166 -1.246,-4.412c-0.161,-0.507 -0.34,-1.031 -0.34,-1.568c0,-0.727 0.823,-2.092 0.805,-3.309c-0.006,-0.512 -0.292,-1.18 -0.286,-1.484c0.006,-0.883 0.513,-0.692 0.501,-2.528c-0.006,-0.507 -0.066,-0.882 -0.197,-1.401c0.888,-0.936 -0.334,-1.872 -1.037,-1.288c-0.567,-0.149 -0.638,-0.298 -1.747,-0.298c-0.948,-0 -1.491,0.256 -2.081,0.65m-1.717,5.473c-0.626,0.769 -0.978,1.157 -0.954,3.023c-5.908,-3.375 -4.179,-3.858 -5.473,-5.873c-0.203,-0.316 1.115,-1.049 1.532,-0.739c0.841,0.62 0.531,1.788 1.229,2.319c0.691,0.525 1.925,0.757 3.666,1.27m3.607,-4.334c-0.089,-0 -0.25,-0.048 -0.298,-0.114c-0.519,-0.793 -0.65,-0.506 -0.727,-0.232c-0.066,0.244 -0.352,0.25 -0.269,-0.078c0.209,-0.805 0.775,-0.691 1.479,0.424m1.52,-0.805c0.143,-0.191 0.364,-0.376 0.602,-0.453c0.352,-0.12 0.495,0.167 0.215,0.262c-0.232,0.101 -0.429,0.244 -0.596,0.411m-4.847,0.811c0.089,0.054 0.214,0.119 0.399,0.173c-0.101,0.084 -0.197,0.203 -0.226,0.334c-0.161,-0.113 -0.227,-0.322 -0.173,-0.507m0.954,0.316c-0,0.078 -0.018,0.155 -0.042,0.191c-0.06,0.095 -0.28,0.089 -0.328,-0.042c-0.018,-0.053 -0.018,-0.149 0.006,-0.238c0.119,0.03 0.244,0.053 0.364,0.089m0.071,0.018c0.161,0.048 0.316,0.101 0.453,0.191c-0.029,0.071 -0.083,0.143 -0.19,0.143c-0.096,-0 -0.203,-0.006 -0.263,-0.119c-0.03,-0.06 -0.018,-0.143 0,-0.215m-0.673,1.58c-0.018,-0.167 -0,-0.31 0.131,-0.405c0.065,0.119 0.137,0.232 0.22,0.333l0,0.042m0.06,-0.003l-0,-0.188c-0,-0.196 0.417,-0.184 0.423,0l0,0.149m0.054,-0.006l-0,-0.166c-0,-0.197 0.483,-0.185 0.483,-0.006l-0,0.131" style="fill:#999;fill-rule:nonzero;"/></svg>