<?xml version="1.0" encoding="UTF-8" standalone="no"?>
<!DOCTYPE svg PUBLIC "-//W3C//DTD SVG 1.1//EN" "http://www.w3.org/Graphics/SVG/1.1/DTD/svg11.dtd">
<svg width="100%" height="100%" viewBox="0 0 256 256" version="1.1" xmlns="http://www.w3.org/2000/svg" xmlns:xlink="http://www.w3.org/1999/xlink" xml:space="preserve" xmlns:serif="http://www.serif.com/" style="fill-rule:evenodd;clip-rule:evenodd;stroke-linejoin:round;stroke-miterlimit:2;fill:currentcolor;">
    <g transform="matrix(0.965926,-0.258819,0.258819,0.965926,-28.7673,37.4903)">
        <g transform="matrix(0.194925,0.980818,-0.980818,0.194925,142.112,115.473)">
            <g transform="matrix(31.4,0,0,31.4,0.716309,144.304)">
                <path d="M0.076,-0.706C0.076,-0.715 0.079,-0.721 0.086,-0.725C0.092,-0.729 0.099,-0.731 0.106,-0.731L0.27,-0.731C0.298,-0.731 0.324,-0.729 0.349,-0.725C0.374,-0.72 0.395,-0.712 0.414,-0.699C0.433,-0.686 0.447,-0.669 0.458,-0.647C0.469,-0.625 0.474,-0.596 0.474,-0.561C0.474,-0.519 0.466,-0.484 0.451,-0.456C0.435,-0.427 0.414,-0.407 0.389,-0.396C0.404,-0.39 0.418,-0.382 0.431,-0.373C0.444,-0.364 0.455,-0.352 0.464,-0.339C0.472,-0.326 0.48,-0.31 0.485,-0.291C0.49,-0.272 0.492,-0.249 0.492,-0.224L0.492,-0.206C0.492,-0.168 0.487,-0.136 0.476,-0.11C0.466,-0.083 0.452,-0.062 0.435,-0.046C0.417,-0.03 0.396,-0.018 0.372,-0.011C0.348,-0.004 0.322,-0 0.294,-0L0.106,-0C0.097,-0 0.089,-0.003 0.084,-0.008C0.079,-0.013 0.076,-0.018 0.076,-0.025L0.076,-0.706ZM0.286,-0.061C0.33,-0.061 0.364,-0.073 0.389,-0.096C0.414,-0.119 0.426,-0.157 0.426,-0.209L0.426,-0.226C0.426,-0.278 0.414,-0.315 0.389,-0.336C0.364,-0.357 0.33,-0.368 0.286,-0.368L0.141,-0.368L0.141,-0.061L0.286,-0.061ZM0.141,-0.425L0.272,-0.425C0.318,-0.425 0.352,-0.435 0.375,-0.454C0.397,-0.472 0.408,-0.506 0.408,-0.554C0.408,-0.577 0.405,-0.596 0.398,-0.611C0.391,-0.625 0.381,-0.637 0.369,-0.647C0.356,-0.656 0.342,-0.662 0.325,-0.665C0.308,-0.668 0.289,-0.67 0.268,-0.67L0.141,-0.67L0.141,-0.425Z" style="fill-rule:nonzero;"/>
            </g>
        </g>
        <g transform="matrix(0.322984,0.946405,-0.946405,0.322984,155.01,105.207)">
            <g transform="matrix(31.4,0,0,31.4,3.96988,160.948)">
                <path d="M0.142,-0.395L0.299,-0.395C0.307,-0.395 0.313,-0.392 0.318,-0.386C0.322,-0.38 0.324,-0.373 0.324,-0.365C0.324,-0.358 0.322,-0.352 0.319,-0.346C0.315,-0.341 0.308,-0.338 0.299,-0.338L0.142,-0.338L0.142,-0.061L0.462,-0.061C0.47,-0.061 0.476,-0.058 0.481,-0.051C0.485,-0.045 0.487,-0.038 0.487,-0.03C0.487,-0.023 0.485,-0.016 0.482,-0.01C0.478,-0.003 0.471,-0 0.462,-0L0.106,-0C0.099,-0 0.092,-0.002 0.086,-0.007C0.079,-0.011 0.076,-0.017 0.076,-0.026L0.076,-0.706C0.076,-0.715 0.079,-0.721 0.086,-0.725C0.092,-0.729 0.099,-0.731 0.106,-0.731L0.462,-0.731C0.471,-0.731 0.478,-0.728 0.482,-0.722C0.485,-0.716 0.487,-0.709 0.487,-0.702C0.487,-0.693 0.485,-0.686 0.481,-0.68C0.476,-0.673 0.47,-0.67 0.462,-0.67L0.142,-0.67L0.142,-0.395Z" style="fill-rule:nonzero;"/>
            </g>
        </g>
        <g transform="matrix(0.439781,0.898105,-0.898105,0.439781,163.215,90.5567)">
            <g transform="matrix(31.4,0,0,31.4,9.02014,176.106)">
                <path d="M0.076,-0.707C0.076,-0.722 0.084,-0.73 0.101,-0.731L0.278,-0.731C0.307,-0.731 0.335,-0.728 0.361,-0.722C0.387,-0.715 0.41,-0.704 0.43,-0.689C0.449,-0.674 0.465,-0.653 0.476,-0.628C0.488,-0.603 0.494,-0.571 0.494,-0.534C0.494,-0.503 0.49,-0.476 0.482,-0.454C0.474,-0.431 0.463,-0.412 0.449,-0.397C0.435,-0.381 0.419,-0.369 0.4,-0.36C0.381,-0.351 0.36,-0.345 0.338,-0.341L0.492,-0.045C0.495,-0.042 0.496,-0.037 0.496,-0.032C0.496,-0.023 0.492,-0.016 0.484,-0.009C0.476,-0.002 0.467,0.002 0.458,0.002C0.45,0.002 0.443,-0.002 0.438,-0.01C0.432,-0.017 0.427,-0.025 0.423,-0.033L0.269,-0.333L0.142,-0.333L0.142,-0.026C0.142,-0.017 0.139,-0.011 0.132,-0.007C0.125,-0.002 0.117,-0 0.109,-0C0.1,-0 0.093,-0.002 0.086,-0.007C0.079,-0.011 0.076,-0.017 0.076,-0.026L0.076,-0.707ZM0.142,-0.67L0.142,-0.39L0.278,-0.39C0.323,-0.39 0.359,-0.401 0.387,-0.423C0.414,-0.444 0.428,-0.48 0.428,-0.531C0.428,-0.581 0.414,-0.617 0.387,-0.638C0.359,-0.659 0.323,-0.67 0.278,-0.67L0.142,-0.67Z" style="fill-rule:nonzero;"/>
            </g>
        </g>
        <g transform="matrix(0.547439,0.836846,-0.836846,0.547439,167.247,72.8233)">
            <g transform="matrix(31.4,0,0,31.4,16.2936,191.043)">
                <path d="M0.106,-0C0.099,-0 0.092,-0.002 0.086,-0.007C0.079,-0.011 0.076,-0.017 0.076,-0.026L0.076,-0.707C0.076,-0.716 0.079,-0.722 0.086,-0.726C0.093,-0.729 0.1,-0.731 0.109,-0.731C0.117,-0.731 0.125,-0.729 0.132,-0.726C0.139,-0.722 0.142,-0.716 0.142,-0.707L0.142,-0.061L0.427,-0.061C0.434,-0.061 0.44,-0.058 0.444,-0.051C0.447,-0.045 0.449,-0.038 0.449,-0.031C0.449,-0.023 0.447,-0.016 0.444,-0.01C0.44,-0.003 0.434,-0 0.427,-0L0.106,-0Z" style="fill-rule:nonzero;"/>
            </g>
        </g>
        <g transform="matrix(0.609129,0.793071,-0.793071,0.609129,170.63,60.0986)">
            <g transform="matrix(31.4,0,0,31.4,24.3457,203.152)">
                <path d="M0.076,-0.707C0.076,-0.716 0.079,-0.722 0.086,-0.726C0.093,-0.729 0.1,-0.731 0.109,-0.731C0.117,-0.731 0.125,-0.729 0.132,-0.726C0.139,-0.722 0.142,-0.716 0.142,-0.707L0.142,-0.026C0.142,-0.017 0.139,-0.011 0.132,-0.007C0.125,-0.002 0.117,-0 0.109,-0C0.1,-0 0.093,-0.002 0.086,-0.007C0.079,-0.011 0.076,-0.017 0.076,-0.026L0.076,-0.707Z" style="fill-rule:nonzero;"/>
            </g>
        </g>
        <g transform="matrix(0.682482,0.730903,-0.730903,0.682482,161.555,45.5947)">
            <g transform="matrix(31.4,0,0,31.4,28.2999,208.741)">
                <path d="M0.464,-0C0.455,-0 0.446,-0.004 0.439,-0.012C0.432,-0.019 0.425,-0.028 0.42,-0.038L0.142,-0.579L0.142,-0.026C0.142,-0.017 0.139,-0.011 0.132,-0.007C0.125,-0.002 0.117,-0 0.109,-0C0.1,-0 0.093,-0.002 0.086,-0.007C0.079,-0.011 0.076,-0.017 0.076,-0.026L0.076,-0.706C0.076,-0.715 0.079,-0.722 0.086,-0.726C0.093,-0.729 0.1,-0.731 0.109,-0.731C0.121,-0.731 0.131,-0.727 0.139,-0.718C0.147,-0.709 0.154,-0.698 0.161,-0.685L0.431,-0.153L0.431,-0.707C0.431,-0.716 0.434,-0.722 0.441,-0.726C0.448,-0.729 0.455,-0.731 0.464,-0.731C0.472,-0.731 0.48,-0.729 0.487,-0.726C0.494,-0.722 0.497,-0.716 0.497,-0.707L0.497,-0.026C0.497,-0.017 0.494,-0.011 0.487,-0.007C0.48,-0.002 0.472,-0 0.464,-0Z" style="fill-rule:nonzero;"/>
            </g>
        </g>
        <g transform="matrix(0.776883,0.629645,-0.629645,0.776883,148.795,23.9347)">
            <g transform="matrix(31.4,0,0,31.4,40.6253,221.92)">
                <path d="M0.142,-0.395L0.299,-0.395C0.307,-0.395 0.313,-0.392 0.318,-0.386C0.322,-0.38 0.324,-0.373 0.324,-0.365C0.324,-0.358 0.322,-0.352 0.319,-0.346C0.315,-0.341 0.308,-0.338 0.299,-0.338L0.142,-0.338L0.142,-0.061L0.462,-0.061C0.47,-0.061 0.476,-0.058 0.481,-0.051C0.485,-0.045 0.487,-0.038 0.487,-0.03C0.487,-0.023 0.485,-0.016 0.482,-0.01C0.478,-0.003 0.471,-0 0.462,-0L0.106,-0C0.099,-0 0.092,-0.002 0.086,-0.007C0.079,-0.011 0.076,-0.017 0.076,-0.026L0.076,-0.706C0.076,-0.715 0.079,-0.721 0.086,-0.725C0.092,-0.729 0.099,-0.731 0.106,-0.731L0.462,-0.731C0.471,-0.731 0.478,-0.728 0.482,-0.722C0.485,-0.716 0.487,-0.709 0.487,-0.702C0.487,-0.693 0.485,-0.686 0.481,-0.68C0.476,-0.673 0.47,-0.67 0.462,-0.67L0.142,-0.67L0.142,-0.395Z" style="fill-rule:nonzero;"/>
            </g>
        </g>
        <g transform="matrix(0.84938,0.527782,-0.527782,0.84938,130.454,7.00611)">
            <g transform="matrix(31.4,0,0,31.4,52.9519,232.061)">
                <path d="M0.076,-0.707C0.076,-0.722 0.084,-0.73 0.101,-0.731L0.278,-0.731C0.307,-0.731 0.335,-0.728 0.361,-0.722C0.387,-0.715 0.41,-0.704 0.43,-0.689C0.449,-0.674 0.465,-0.653 0.476,-0.628C0.488,-0.603 0.494,-0.571 0.494,-0.534C0.494,-0.503 0.49,-0.476 0.482,-0.454C0.474,-0.431 0.463,-0.412 0.449,-0.397C0.435,-0.381 0.419,-0.369 0.4,-0.36C0.381,-0.351 0.36,-0.345 0.338,-0.341L0.492,-0.045C0.495,-0.042 0.496,-0.037 0.496,-0.032C0.496,-0.023 0.492,-0.016 0.484,-0.009C0.476,-0.002 0.467,0.002 0.458,0.002C0.45,0.002 0.443,-0.002 0.438,-0.01C0.432,-0.017 0.427,-0.025 0.423,-0.033L0.269,-0.333L0.142,-0.333L0.142,-0.026C0.142,-0.017 0.139,-0.011 0.132,-0.007C0.125,-0.002 0.117,-0 0.109,-0C0.1,-0 0.093,-0.002 0.086,-0.007C0.079,-0.011 0.076,-0.017 0.076,-0.026L0.076,-0.707ZM0.142,-0.67L0.142,-0.39L0.278,-0.39C0.323,-0.39 0.359,-0.401 0.387,-0.423C0.414,-0.444 0.428,-0.48 0.428,-0.531C0.428,-0.581 0.414,-0.617 0.387,-0.638C0.359,-0.659 0.323,-0.67 0.278,-0.67L0.142,-0.67Z" style="fill-rule:nonzero;"/>
            </g>
        </g>
        <g transform="matrix(0.945654,0.325175,-0.325175,0.945654,84.3585,-12.104)">
            <g transform="matrix(31.4,0,0,31.4,78.3908,246.323)">
                <path d="M0.059,-0C0.05,-0 0.042,-0.003 0.034,-0.008C0.025,-0.013 0.021,-0.019 0.021,-0.028C0.021,-0.031 0.021,-0.034 0.022,-0.035L0.231,-0.714C0.234,-0.722 0.239,-0.728 0.246,-0.732C0.253,-0.735 0.261,-0.737 0.27,-0.737C0.279,-0.737 0.288,-0.735 0.295,-0.731C0.302,-0.727 0.307,-0.721 0.31,-0.714L0.518,-0.035C0.518,-0.034 0.518,-0.033 0.519,-0.032C0.519,-0.031 0.519,-0.03 0.519,-0.029C0.519,-0.021 0.515,-0.014 0.506,-0.009C0.497,-0.003 0.488,-0 0.479,-0C0.466,-0 0.458,-0.006 0.454,-0.017L0.408,-0.171L0.131,-0.171L0.085,-0.017C0.084,-0.011 0.081,-0.007 0.076,-0.004C0.07,-0.001 0.065,-0 0.059,-0ZM0.391,-0.228L0.27,-0.631L0.148,-0.228L0.391,-0.228Z" style="fill-rule:nonzero;"/>
            </g>
        </g>
        <g transform="matrix(0.980971,0.194156,-0.194156,0.980971,50.6911,-13.5225)">
            <g transform="matrix(31.4,0,0,31.4,94.3307,251.84)">
                <path d="M0.427,-0.707C0.427,-0.716 0.43,-0.722 0.437,-0.726C0.444,-0.729 0.451,-0.731 0.46,-0.731C0.468,-0.731 0.475,-0.729 0.483,-0.726C0.49,-0.722 0.493,-0.716 0.493,-0.707L0.493,-0.208C0.493,-0.169 0.488,-0.136 0.476,-0.109C0.466,-0.082 0.451,-0.059 0.432,-0.043C0.412,-0.025 0.39,-0.013 0.365,-0.006C0.34,0.002 0.312,0.006 0.283,0.006C0.254,0.006 0.226,0.002 0.201,-0.006C0.175,-0.013 0.153,-0.025 0.134,-0.043C0.115,-0.059 0.1,-0.082 0.089,-0.109C0.078,-0.136 0.073,-0.169 0.073,-0.208L0.073,-0.707C0.073,-0.716 0.077,-0.722 0.084,-0.726C0.091,-0.729 0.098,-0.731 0.106,-0.731C0.115,-0.731 0.122,-0.729 0.129,-0.726C0.136,-0.722 0.139,-0.716 0.139,-0.707L0.139,-0.208C0.139,-0.156 0.152,-0.117 0.177,-0.093C0.202,-0.068 0.238,-0.055 0.283,-0.055C0.328,-0.055 0.364,-0.068 0.389,-0.093C0.414,-0.117 0.427,-0.156 0.427,-0.208L0.427,-0.707Z" style="fill-rule:nonzero;"/>
            </g>
        </g>
        <g transform="matrix(0.998373,0.0570205,-0.0570205,0.998373,14.7385,-5.95994)">
            <g transform="matrix(31.4,0,0,31.4,111.807,255.287)">
                <path d="M0.076,-0.706C0.076,-0.715 0.079,-0.721 0.086,-0.725C0.092,-0.729 0.099,-0.731 0.106,-0.731L0.46,-0.731C0.469,-0.731 0.475,-0.728 0.479,-0.722C0.483,-0.716 0.485,-0.709 0.485,-0.702C0.485,-0.693 0.483,-0.686 0.478,-0.68C0.474,-0.673 0.468,-0.67 0.46,-0.67L0.142,-0.67L0.142,-0.395L0.3,-0.395C0.307,-0.395 0.313,-0.392 0.318,-0.386C0.322,-0.38 0.324,-0.373 0.324,-0.365C0.324,-0.358 0.322,-0.352 0.319,-0.346C0.315,-0.341 0.309,-0.338 0.3,-0.338L0.142,-0.338L0.142,-0.025C0.142,-0.016 0.139,-0.01 0.132,-0.006C0.125,-0.002 0.117,-0 0.109,-0C0.1,-0 0.093,-0.002 0.086,-0.006C0.079,-0.01 0.076,-0.016 0.076,-0.025L0.076,-0.706Z" style="fill-rule:nonzero;"/>
            </g>
        </g>
        <g transform="matrix(0.997992,-0.0633416,0.0633416,0.997992,-15.9791,8.57906)">
            <g transform="matrix(31.4,0,0,31.4,127.316,256.305)">
                <path d="M0.076,-0.706C0.076,-0.715 0.079,-0.721 0.086,-0.725C0.092,-0.729 0.099,-0.731 0.106,-0.731L0.27,-0.731C0.298,-0.731 0.324,-0.729 0.349,-0.725C0.374,-0.72 0.395,-0.712 0.414,-0.699C0.433,-0.686 0.447,-0.669 0.458,-0.647C0.469,-0.625 0.474,-0.596 0.474,-0.561C0.474,-0.519 0.466,-0.484 0.451,-0.456C0.435,-0.427 0.414,-0.407 0.389,-0.396C0.404,-0.39 0.418,-0.382 0.431,-0.373C0.444,-0.364 0.455,-0.352 0.464,-0.339C0.472,-0.326 0.48,-0.31 0.485,-0.291C0.49,-0.272 0.492,-0.249 0.492,-0.224L0.492,-0.206C0.492,-0.168 0.487,-0.136 0.476,-0.11C0.466,-0.083 0.452,-0.062 0.435,-0.046C0.417,-0.03 0.396,-0.018 0.372,-0.011C0.348,-0.004 0.322,-0 0.294,-0L0.106,-0C0.097,-0 0.089,-0.003 0.084,-0.008C0.079,-0.013 0.076,-0.018 0.076,-0.025L0.076,-0.706ZM0.286,-0.061C0.33,-0.061 0.364,-0.073 0.389,-0.096C0.414,-0.119 0.426,-0.157 0.426,-0.209L0.426,-0.226C0.426,-0.278 0.414,-0.315 0.389,-0.336C0.364,-0.357 0.33,-0.368 0.286,-0.368L0.141,-0.368L0.141,-0.061L0.286,-0.061ZM0.141,-0.425L0.272,-0.425C0.318,-0.425 0.352,-0.435 0.375,-0.454C0.397,-0.472 0.408,-0.506 0.408,-0.554C0.408,-0.577 0.405,-0.596 0.398,-0.611C0.391,-0.625 0.381,-0.637 0.369,-0.647C0.356,-0.656 0.342,-0.662 0.325,-0.665C0.308,-0.668 0.289,-0.67 0.268,-0.67L0.141,-0.67L0.141,-0.425Z" style="fill-rule:nonzero;"/>
            </g>
        </g>
        <g transform="matrix(0.98165,-0.190693,0.190693,0.98165,-46.032,32.1802)">
            <g transform="matrix(31.4,0,0,31.4,144.189,255.268)">
                <path d="M0.059,-0C0.05,-0 0.042,-0.003 0.034,-0.008C0.025,-0.013 0.021,-0.019 0.021,-0.028C0.021,-0.031 0.021,-0.034 0.022,-0.035L0.231,-0.714C0.234,-0.722 0.239,-0.728 0.246,-0.732C0.253,-0.735 0.261,-0.737 0.27,-0.737C0.279,-0.737 0.288,-0.735 0.295,-0.731C0.302,-0.727 0.307,-0.721 0.31,-0.714L0.518,-0.035C0.518,-0.034 0.518,-0.033 0.519,-0.032C0.519,-0.031 0.519,-0.03 0.519,-0.029C0.519,-0.021 0.515,-0.014 0.506,-0.009C0.497,-0.003 0.488,-0 0.479,-0C0.466,-0 0.458,-0.006 0.454,-0.017L0.408,-0.171L0.131,-0.171L0.085,-0.017C0.084,-0.011 0.081,-0.007 0.076,-0.004C0.07,-0.001 0.065,-0 0.059,-0ZM0.391,-0.228L0.27,-0.631L0.148,-0.228L0.391,-0.228Z" style="fill-rule:nonzero;"/>
            </g>
        </g>
        <g transform="matrix(0.946902,-0.321521,0.321521,0.946902,-72.5205,65.0585)">
            <g transform="matrix(31.4,0,0,31.4,160.714,252.096)">
                <path d="M0.427,-0.707C0.427,-0.716 0.43,-0.722 0.437,-0.726C0.444,-0.729 0.451,-0.731 0.46,-0.731C0.468,-0.731 0.475,-0.729 0.483,-0.726C0.49,-0.722 0.493,-0.716 0.493,-0.707L0.493,-0.208C0.493,-0.169 0.488,-0.136 0.476,-0.109C0.466,-0.082 0.451,-0.059 0.432,-0.043C0.412,-0.025 0.39,-0.013 0.365,-0.006C0.34,0.002 0.312,0.006 0.283,0.006C0.254,0.006 0.226,0.002 0.201,-0.006C0.175,-0.013 0.153,-0.025 0.134,-0.043C0.115,-0.059 0.1,-0.082 0.089,-0.109C0.078,-0.136 0.073,-0.169 0.073,-0.208L0.073,-0.707C0.073,-0.716 0.077,-0.722 0.084,-0.726C0.091,-0.729 0.098,-0.731 0.106,-0.731C0.115,-0.731 0.122,-0.729 0.129,-0.726C0.136,-0.722 0.139,-0.716 0.139,-0.707L0.139,-0.208C0.139,-0.156 0.152,-0.117 0.177,-0.093C0.202,-0.068 0.238,-0.055 0.283,-0.055C0.328,-0.055 0.364,-0.068 0.389,-0.093C0.414,-0.117 0.427,-0.156 0.427,-0.208L0.427,-0.707Z" style="fill-rule:nonzero;"/>
            </g>
        </g>
        <g transform="matrix(0.897435,-0.441146,0.441146,0.897435,-90.4497,103.571)">
            <g transform="matrix(31.4,0,0,31.4,177.512,246.304)">
                <path d="M0.109,-0.061L0.436,-0.061C0.445,-0.061 0.451,-0.058 0.455,-0.051C0.459,-0.045 0.461,-0.038 0.461,-0.031C0.461,-0.024 0.459,-0.017 0.455,-0.01C0.451,-0.003 0.445,-0 0.436,-0L0.048,-0C0.041,-0 0.035,-0.002 0.031,-0.007C0.026,-0.011 0.024,-0.016 0.024,-0.023C0.024,-0.03 0.026,-0.038 0.03,-0.046L0.363,-0.67L0.061,-0.67C0.053,-0.67 0.047,-0.673 0.043,-0.68C0.038,-0.686 0.036,-0.693 0.036,-0.701C0.036,-0.708 0.038,-0.715 0.042,-0.722C0.046,-0.728 0.052,-0.731 0.061,-0.731L0.424,-0.731C0.433,-0.731 0.439,-0.729 0.443,-0.725C0.447,-0.721 0.449,-0.716 0.449,-0.71C0.449,-0.702 0.446,-0.693 0.441,-0.684L0.109,-0.061Z" style="fill-rule:nonzero;"/>
            </g>
        </g>
        <g transform="matrix(0.833541,-0.552457,0.552457,0.833541,-100.569,145.531)">
            <g transform="matrix(31.4,0,0,31.4,191.217,239.653)">
                <path d="M0.142,-0.395L0.299,-0.395C0.307,-0.395 0.313,-0.392 0.318,-0.386C0.322,-0.38 0.324,-0.373 0.324,-0.365C0.324,-0.358 0.322,-0.352 0.319,-0.346C0.315,-0.341 0.308,-0.338 0.299,-0.338L0.142,-0.338L0.142,-0.061L0.462,-0.061C0.47,-0.061 0.476,-0.058 0.481,-0.051C0.485,-0.045 0.487,-0.038 0.487,-0.03C0.487,-0.023 0.485,-0.016 0.482,-0.01C0.478,-0.003 0.471,-0 0.462,-0L0.106,-0C0.099,-0 0.092,-0.002 0.086,-0.007C0.079,-0.011 0.076,-0.017 0.076,-0.026L0.076,-0.706C0.076,-0.715 0.079,-0.721 0.086,-0.725C0.092,-0.729 0.099,-0.731 0.106,-0.731L0.462,-0.731C0.471,-0.731 0.478,-0.728 0.482,-0.722C0.485,-0.716 0.487,-0.709 0.487,-0.702C0.487,-0.693 0.485,-0.686 0.481,-0.68C0.476,-0.673 0.47,-0.67 0.462,-0.67L0.142,-0.67L0.142,-0.395Z" style="fill-rule:nonzero;"/>
            </g>
        </g>
        <g transform="matrix(0.758244,-0.651971,0.651971,0.758244,-101.109,189.208)">
            <g transform="matrix(31.4,0,0,31.4,204.574,230.94)">
                <path d="M0.076,-0.707C0.076,-0.722 0.084,-0.73 0.101,-0.731L0.278,-0.731C0.307,-0.731 0.335,-0.728 0.361,-0.722C0.387,-0.715 0.41,-0.704 0.43,-0.689C0.449,-0.674 0.465,-0.653 0.476,-0.628C0.488,-0.603 0.494,-0.571 0.494,-0.534C0.494,-0.503 0.49,-0.476 0.482,-0.454C0.474,-0.431 0.463,-0.412 0.449,-0.397C0.435,-0.381 0.419,-0.369 0.4,-0.36C0.381,-0.351 0.36,-0.345 0.338,-0.341L0.492,-0.045C0.495,-0.042 0.496,-0.037 0.496,-0.032C0.496,-0.023 0.492,-0.016 0.484,-0.009C0.476,-0.002 0.467,0.002 0.458,0.002C0.45,0.002 0.443,-0.002 0.438,-0.01C0.432,-0.017 0.427,-0.025 0.423,-0.033L0.269,-0.333L0.142,-0.333L0.142,-0.026C0.142,-0.017 0.139,-0.011 0.132,-0.007C0.125,-0.002 0.117,-0 0.109,-0C0.1,-0 0.093,-0.002 0.086,-0.007C0.079,-0.011 0.076,-0.017 0.076,-0.026L0.076,-0.707ZM0.142,-0.67L0.142,-0.39L0.278,-0.39C0.323,-0.39 0.359,-0.401 0.387,-0.423C0.414,-0.444 0.428,-0.48 0.428,-0.531C0.428,-0.581 0.414,-0.617 0.387,-0.638C0.359,-0.659 0.323,-0.67 0.278,-0.67L0.142,-0.67Z" style="fill-rule:nonzero;"/>
            </g>
        </g>
        <g transform="matrix(0.677568,-0.73546,0.73546,0.677568,-91.9977,230.629)">
            <g transform="matrix(31.4,0,0,31.4,217.031,220.237)">
                <path d="M0.441,-0.731C0.45,-0.731 0.456,-0.728 0.46,-0.722C0.464,-0.715 0.466,-0.708 0.466,-0.701C0.466,-0.693 0.464,-0.686 0.46,-0.679C0.456,-0.672 0.45,-0.669 0.441,-0.669L0.274,-0.669L0.274,-0.026C0.274,-0.017 0.271,-0.011 0.264,-0.007C0.257,-0.002 0.249,-0 0.241,-0C0.232,-0 0.225,-0.002 0.218,-0.007C0.211,-0.011 0.208,-0.017 0.208,-0.026L0.208,-0.669L0.04,-0.669C0.032,-0.669 0.026,-0.672 0.021,-0.679C0.017,-0.685 0.015,-0.692 0.015,-0.7C0.015,-0.707 0.017,-0.714 0.021,-0.721C0.025,-0.728 0.031,-0.731 0.04,-0.731L0.441,-0.731Z" style="fill-rule:nonzero;"/>
            </g>
        </g>
        <g transform="matrix(0.612678,-0.790333,0.790333,0.612678,-77.2334,260.462)">
            <g transform="matrix(31.4,0,0,31.4,227.12,209.029)">
                <path d="M0.076,-0.707C0.076,-0.716 0.079,-0.722 0.086,-0.726C0.093,-0.729 0.1,-0.731 0.109,-0.731C0.117,-0.731 0.125,-0.729 0.132,-0.726C0.139,-0.722 0.142,-0.716 0.142,-0.707L0.142,-0.026C0.142,-0.017 0.139,-0.011 0.132,-0.007C0.125,-0.002 0.117,-0 0.109,-0C0.1,-0 0.093,-0.002 0.086,-0.007C0.079,-0.011 0.076,-0.017 0.076,-0.026L0.076,-0.707Z" style="fill-rule:nonzero;"/>
            </g>
        </g>
        <g transform="matrix(0.534795,-0.844982,0.844982,0.534795,-64.4672,290.427)">
            <g transform="matrix(31.4,0,0,31.4,231.527,203.762)">
                <path d="M0.076,-0.706C0.076,-0.715 0.079,-0.721 0.086,-0.725C0.092,-0.729 0.099,-0.731 0.106,-0.731L0.46,-0.731C0.469,-0.731 0.475,-0.728 0.479,-0.722C0.483,-0.716 0.485,-0.709 0.485,-0.702C0.485,-0.693 0.483,-0.686 0.478,-0.68C0.474,-0.673 0.468,-0.67 0.46,-0.67L0.142,-0.67L0.142,-0.395L0.3,-0.395C0.307,-0.395 0.313,-0.392 0.318,-0.386C0.322,-0.38 0.324,-0.373 0.324,-0.365C0.324,-0.358 0.322,-0.352 0.319,-0.346C0.315,-0.341 0.309,-0.338 0.3,-0.338L0.142,-0.338L0.142,-0.025C0.142,-0.016 0.139,-0.01 0.132,-0.006C0.125,-0.002 0.117,-0 0.109,-0C0.1,-0 0.093,-0.002 0.086,-0.006C0.079,-0.01 0.076,-0.016 0.076,-0.025L0.076,-0.706Z" style="fill-rule:nonzero;"/>
            </g>
        </g>
        <g transform="matrix(0.466186,-0.884687,0.884687,0.466186,-40.6263,313.807)">
            <g transform="matrix(31.4,0,0,31.4,239.722,190.569)">
                <path d="M0.076,-0.707C0.076,-0.716 0.079,-0.722 0.086,-0.726C0.093,-0.729 0.1,-0.731 0.109,-0.731C0.117,-0.731 0.125,-0.729 0.132,-0.726C0.139,-0.722 0.142,-0.716 0.142,-0.707L0.142,-0.026C0.142,-0.017 0.139,-0.011 0.132,-0.007C0.125,-0.002 0.117,-0 0.109,-0C0.1,-0 0.093,-0.002 0.086,-0.007C0.079,-0.011 0.076,-0.017 0.076,-0.026L0.076,-0.707Z" style="fill-rule:nonzero;"/>
            </g>
        </g>
        <g transform="matrix(0.375627,-0.926771,0.926771,0.375627,-19.2901,340.657)">
            <g transform="matrix(31.4,0,0,31.4,243.178,184.645)">
                <path d="M0.076,-0.707C0.076,-0.716 0.079,-0.722 0.086,-0.726C0.093,-0.729 0.1,-0.731 0.109,-0.731C0.117,-0.731 0.125,-0.729 0.132,-0.726C0.139,-0.722 0.142,-0.716 0.142,-0.707L0.142,-0.353L0.431,-0.721C0.436,-0.728 0.443,-0.731 0.452,-0.731C0.46,-0.731 0.468,-0.728 0.476,-0.721C0.484,-0.714 0.488,-0.706 0.488,-0.697C0.488,-0.695 0.488,-0.693 0.487,-0.69C0.486,-0.687 0.485,-0.685 0.483,-0.682L0.268,-0.415L0.514,-0.045C0.517,-0.04 0.518,-0.035 0.518,-0.032C0.518,-0.023 0.514,-0.015 0.506,-0.008C0.498,-0.001 0.489,0.002 0.48,0.002C0.47,0.002 0.462,-0.003 0.455,-0.013L0.224,-0.36L0.142,-0.256L0.142,-0.026C0.142,-0.017 0.139,-0.011 0.132,-0.007C0.125,-0.002 0.117,-0 0.109,-0C0.1,-0 0.093,-0.002 0.086,-0.007C0.079,-0.011 0.076,-0.017 0.076,-0.026L0.076,-0.707Z" style="fill-rule:nonzero;"/>
            </g>
        </g>
        <g transform="matrix(0.259575,-0.965723,0.965723,0.259575,21.0385,366.344)">
            <g transform="matrix(31.4,0,0,31.4,249.427,169.452)">
                <path d="M0.059,-0C0.05,-0 0.042,-0.003 0.034,-0.008C0.025,-0.013 0.021,-0.019 0.021,-0.028C0.021,-0.031 0.021,-0.034 0.022,-0.035L0.231,-0.714C0.234,-0.722 0.239,-0.728 0.246,-0.732C0.253,-0.735 0.261,-0.737 0.27,-0.737C0.279,-0.737 0.288,-0.735 0.295,-0.731C0.302,-0.727 0.307,-0.721 0.31,-0.714L0.518,-0.035C0.518,-0.034 0.518,-0.033 0.519,-0.032C0.519,-0.031 0.519,-0.03 0.519,-0.029C0.519,-0.021 0.515,-0.014 0.506,-0.009C0.497,-0.003 0.488,-0 0.479,-0C0.466,-0 0.458,-0.006 0.454,-0.017L0.408,-0.171L0.131,-0.171L0.085,-0.017C0.084,-0.011 0.081,-0.007 0.076,-0.004C0.07,-0.001 0.065,-0 0.059,-0ZM0.391,-0.228L0.27,-0.631L0.148,-0.228L0.391,-0.228Z" style="fill-rule:nonzero;"/>
            </g>
        </g>
        <g transform="matrix(0.149663,-0.988737,0.988737,0.149663,62.4884,382.16)">
            <g transform="matrix(31.4,0,0,31.4,253.424,154.75)">
                <path d="M0.441,-0.731C0.45,-0.731 0.456,-0.728 0.46,-0.722C0.464,-0.715 0.466,-0.708 0.466,-0.701C0.466,-0.693 0.464,-0.686 0.46,-0.679C0.456,-0.672 0.45,-0.669 0.441,-0.669L0.274,-0.669L0.274,-0.026C0.274,-0.017 0.271,-0.011 0.264,-0.007C0.257,-0.002 0.249,-0 0.241,-0C0.232,-0 0.225,-0.002 0.218,-0.007C0.211,-0.011 0.208,-0.017 0.208,-0.026L0.208,-0.669L0.04,-0.669C0.032,-0.669 0.026,-0.672 0.021,-0.679C0.017,-0.685 0.015,-0.692 0.015,-0.7C0.015,-0.707 0.017,-0.714 0.021,-0.721C0.025,-0.728 0.031,-0.731 0.04,-0.731L0.441,-0.731Z" style="fill-rule:nonzero;"/>
            </g>
        </g>
        <g transform="matrix(0.21447,-0.976731,0.976731,0.21447,-82.3586,91.9443)">
            <g transform="matrix(31.4,0,0,31.4,1.06179,109.175)">
                <path d="M0.076,-0.706C0.076,-0.715 0.079,-0.721 0.086,-0.725C0.092,-0.729 0.099,-0.731 0.106,-0.731L0.27,-0.731C0.298,-0.731 0.324,-0.729 0.349,-0.725C0.374,-0.72 0.395,-0.712 0.414,-0.699C0.433,-0.686 0.447,-0.669 0.458,-0.647C0.469,-0.625 0.474,-0.596 0.474,-0.561C0.474,-0.519 0.466,-0.484 0.451,-0.456C0.435,-0.427 0.414,-0.407 0.389,-0.396C0.404,-0.39 0.418,-0.382 0.431,-0.373C0.444,-0.364 0.455,-0.352 0.464,-0.339C0.472,-0.326 0.48,-0.31 0.485,-0.291C0.49,-0.272 0.492,-0.249 0.492,-0.224L0.492,-0.206C0.492,-0.168 0.487,-0.136 0.476,-0.11C0.466,-0.083 0.452,-0.062 0.435,-0.046C0.417,-0.03 0.396,-0.018 0.372,-0.011C0.348,-0.004 0.322,-0 0.294,-0L0.106,-0C0.097,-0 0.089,-0.003 0.084,-0.008C0.079,-0.013 0.076,-0.018 0.076,-0.025L0.076,-0.706ZM0.286,-0.061C0.33,-0.061 0.364,-0.073 0.389,-0.096C0.414,-0.119 0.426,-0.157 0.426,-0.209L0.426,-0.226C0.426,-0.278 0.414,-0.315 0.389,-0.336C0.364,-0.357 0.33,-0.368 0.286,-0.368L0.141,-0.368L0.141,-0.061L0.286,-0.061ZM0.141,-0.425L0.272,-0.425C0.318,-0.425 0.352,-0.435 0.375,-0.454C0.397,-0.472 0.408,-0.506 0.408,-0.554C0.408,-0.577 0.405,-0.596 0.398,-0.611C0.391,-0.625 0.381,-0.637 0.369,-0.647C0.356,-0.656 0.342,-0.662 0.325,-0.665C0.308,-0.668 0.289,-0.67 0.268,-0.67L0.141,-0.67L0.141,-0.425Z" style="fill-rule:nonzero;"/>
            </g>
        </g>
        <g transform="matrix(0.341538,-0.939868,0.939868,0.341538,-61.4577,73.5525)">
            <g transform="matrix(31.4,0,0,31.4,4.636,92.6376)">
                <path d="M0.142,-0.395L0.299,-0.395C0.307,-0.395 0.313,-0.392 0.318,-0.386C0.322,-0.38 0.324,-0.373 0.324,-0.365C0.324,-0.358 0.322,-0.352 0.319,-0.346C0.315,-0.341 0.308,-0.338 0.299,-0.338L0.142,-0.338L0.142,-0.061L0.462,-0.061C0.47,-0.061 0.476,-0.058 0.481,-0.051C0.485,-0.045 0.487,-0.038 0.487,-0.03C0.487,-0.023 0.485,-0.016 0.482,-0.01C0.478,-0.003 0.471,-0 0.462,-0L0.106,-0C0.099,-0 0.092,-0.002 0.086,-0.007C0.079,-0.011 0.076,-0.017 0.076,-0.026L0.076,-0.706C0.076,-0.715 0.079,-0.721 0.086,-0.725C0.092,-0.729 0.099,-0.731 0.106,-0.731L0.462,-0.731C0.471,-0.731 0.478,-0.728 0.482,-0.722C0.485,-0.716 0.487,-0.709 0.487,-0.702C0.487,-0.693 0.485,-0.686 0.481,-0.68C0.476,-0.673 0.47,-0.67 0.462,-0.67L0.142,-0.67L0.142,-0.395Z" style="fill-rule:nonzero;"/>
            </g>
        </g>
        <g transform="matrix(0.457438,-0.889241,0.889241,0.457438,-42.208,61.9464)">
            <g transform="matrix(31.4,0,0,31.4,9.99246,77.562)">
                <path d="M0.076,-0.707C0.076,-0.722 0.084,-0.73 0.101,-0.731L0.278,-0.731C0.307,-0.731 0.335,-0.728 0.361,-0.722C0.387,-0.715 0.41,-0.704 0.43,-0.689C0.449,-0.674 0.465,-0.653 0.476,-0.628C0.488,-0.603 0.494,-0.571 0.494,-0.534C0.494,-0.503 0.49,-0.476 0.482,-0.454C0.474,-0.431 0.463,-0.412 0.449,-0.397C0.435,-0.381 0.419,-0.369 0.4,-0.36C0.381,-0.351 0.36,-0.345 0.338,-0.341L0.492,-0.045C0.495,-0.042 0.496,-0.037 0.496,-0.032C0.496,-0.023 0.492,-0.016 0.484,-0.009C0.476,-0.002 0.467,0.002 0.458,0.002C0.45,0.002 0.443,-0.002 0.438,-0.01C0.432,-0.017 0.427,-0.025 0.423,-0.033L0.269,-0.333L0.142,-0.333L0.142,-0.026C0.142,-0.017 0.139,-0.011 0.132,-0.007C0.125,-0.002 0.117,-0 0.109,-0C0.1,-0 0.093,-0.002 0.086,-0.007C0.079,-0.011 0.076,-0.017 0.076,-0.026L0.076,-0.707ZM0.142,-0.67L0.142,-0.39L0.278,-0.39C0.323,-0.39 0.359,-0.401 0.387,-0.423C0.414,-0.444 0.428,-0.48 0.428,-0.531C0.428,-0.581 0.414,-0.617 0.387,-0.638C0.359,-0.659 0.323,-0.67 0.278,-0.67L0.142,-0.67Z" style="fill-rule:nonzero;"/>
            </g>
        </g>
        <g transform="matrix(0.563667,-0.826002,0.826002,0.563667,-24.3782,55.4208)">
            <g transform="matrix(31.4,0,0,31.4,17.5515,62.785)">
                <path d="M0.106,-0C0.099,-0 0.092,-0.002 0.086,-0.007C0.079,-0.011 0.076,-0.017 0.076,-0.026L0.076,-0.707C0.076,-0.716 0.079,-0.722 0.086,-0.726C0.093,-0.729 0.1,-0.731 0.109,-0.731C0.117,-0.731 0.125,-0.729 0.132,-0.726C0.139,-0.722 0.142,-0.716 0.142,-0.707L0.142,-0.061L0.427,-0.061C0.434,-0.061 0.44,-0.058 0.444,-0.051C0.447,-0.045 0.449,-0.038 0.449,-0.031C0.449,-0.023 0.447,-0.016 0.444,-0.01C0.44,-0.003 0.434,-0 0.427,-0L0.106,-0Z" style="fill-rule:nonzero;"/>
            </g>
        </g>
        <g transform="matrix(0.624413,-0.781095,0.781095,0.624413,-11.2608,54.26)">
            <g transform="matrix(31.4,0,0,31.4,25.8349,50.8394)">
                <path d="M0.076,-0.707C0.076,-0.716 0.079,-0.722 0.086,-0.726C0.093,-0.729 0.1,-0.731 0.109,-0.731C0.117,-0.731 0.125,-0.729 0.132,-0.726C0.139,-0.722 0.142,-0.716 0.142,-0.707L0.142,-0.026C0.142,-0.017 0.139,-0.011 0.132,-0.007C0.125,-0.002 0.117,-0 0.109,-0C0.1,-0 0.093,-0.002 0.086,-0.007C0.079,-0.011 0.076,-0.017 0.076,-0.026L0.076,-0.707Z" style="fill-rule:nonzero;"/>
            </g>
        </g>
        <g transform="matrix(0.696768,-0.717296,0.717296,0.696768,-6.19974,51.9228)">
            <g transform="matrix(31.4,0,0,31.4,29.9259,45.2942)">
                <path d="M0.464,-0C0.455,-0 0.446,-0.004 0.439,-0.012C0.432,-0.019 0.425,-0.028 0.42,-0.038L0.142,-0.579L0.142,-0.026C0.142,-0.017 0.139,-0.011 0.132,-0.007C0.125,-0.002 0.117,-0 0.109,-0C0.1,-0 0.093,-0.002 0.086,-0.007C0.079,-0.011 0.076,-0.017 0.076,-0.026L0.076,-0.706C0.076,-0.715 0.079,-0.722 0.086,-0.726C0.093,-0.729 0.1,-0.731 0.109,-0.731C0.121,-0.731 0.131,-0.727 0.139,-0.718C0.147,-0.709 0.154,-0.698 0.161,-0.685L0.431,-0.153L0.431,-0.707C0.431,-0.716 0.434,-0.722 0.441,-0.726C0.448,-0.729 0.455,-0.731 0.464,-0.731C0.472,-0.731 0.48,-0.729 0.487,-0.726C0.494,-0.722 0.497,-0.716 0.497,-0.707L0.497,-0.026C0.497,-0.017 0.494,-0.011 0.487,-0.007C0.48,-0.002 0.472,-0 0.464,-0Z" style="fill-rule:nonzero;"/>
            </g>
        </g>
        <g transform="matrix(0.789187,-0.614153,0.614153,0.789187,3.82824,51.8704)">
            <g transform="matrix(31.4,0,0,31.4,42.5109,32.3589)">
                <path d="M0.142,-0.395L0.299,-0.395C0.307,-0.395 0.313,-0.392 0.318,-0.386C0.322,-0.38 0.324,-0.373 0.324,-0.365C0.324,-0.358 0.322,-0.352 0.319,-0.346C0.315,-0.341 0.308,-0.338 0.299,-0.338L0.142,-0.338L0.142,-0.061L0.462,-0.061C0.47,-0.061 0.476,-0.058 0.481,-0.051C0.485,-0.045 0.487,-0.038 0.487,-0.03C0.487,-0.023 0.485,-0.016 0.482,-0.01C0.478,-0.003 0.471,-0 0.462,-0L0.106,-0C0.099,-0 0.092,-0.002 0.086,-0.007C0.079,-0.011 0.076,-0.017 0.076,-0.026L0.076,-0.706C0.076,-0.715 0.079,-0.721 0.086,-0.725C0.092,-0.729 0.099,-0.731 0.106,-0.731L0.462,-0.731C0.471,-0.731 0.478,-0.728 0.482,-0.722C0.485,-0.716 0.487,-0.709 0.487,-0.702C0.487,-0.693 0.485,-0.686 0.481,-0.68C0.476,-0.673 0.47,-0.67 0.462,-0.67L0.142,-0.67L0.142,-0.395Z" style="fill-rule:nonzero;"/>
            </g>
        </g>
        <g transform="matrix(0.859749,-0.510718,0.510718,0.859749,8.50803,51.8958)">
            <g transform="matrix(31.4,0,0,31.4,55.0445,22.4572)">
                <path d="M0.076,-0.707C0.076,-0.722 0.084,-0.73 0.101,-0.731L0.278,-0.731C0.307,-0.731 0.335,-0.728 0.361,-0.722C0.387,-0.715 0.41,-0.704 0.43,-0.689C0.449,-0.674 0.465,-0.653 0.476,-0.628C0.488,-0.603 0.494,-0.571 0.494,-0.534C0.494,-0.503 0.49,-0.476 0.482,-0.454C0.474,-0.431 0.463,-0.412 0.449,-0.397C0.435,-0.381 0.419,-0.369 0.4,-0.36C0.381,-0.351 0.36,-0.345 0.338,-0.341L0.492,-0.045C0.495,-0.042 0.496,-0.037 0.496,-0.032C0.496,-0.023 0.492,-0.016 0.484,-0.009C0.476,-0.002 0.467,0.002 0.458,0.002C0.45,0.002 0.443,-0.002 0.438,-0.01C0.432,-0.017 0.427,-0.025 0.423,-0.033L0.269,-0.333L0.142,-0.333L0.142,-0.026C0.142,-0.017 0.139,-0.011 0.132,-0.007C0.125,-0.002 0.117,-0 0.109,-0C0.1,-0 0.093,-0.002 0.086,-0.007C0.079,-0.011 0.076,-0.017 0.076,-0.026L0.076,-0.707ZM0.142,-0.67L0.142,-0.39L0.278,-0.39C0.323,-0.39 0.359,-0.401 0.387,-0.423C0.414,-0.444 0.428,-0.48 0.428,-0.531C0.428,-0.581 0.414,-0.617 0.387,-0.638C0.359,-0.659 0.323,-0.67 0.278,-0.67L0.142,-0.67Z" style="fill-rule:nonzero;"/>
            </g>
        </g>
        <g transform="matrix(0.935725,-0.352731,0.352731,0.935725,9.34397,49.6215)">
            <g transform="matrix(31.4,0,0,31.4,74.975,11.1717)">
                <path d="M0.059,-0C0.05,-0 0.042,-0.003 0.034,-0.008C0.025,-0.013 0.021,-0.019 0.021,-0.028C0.021,-0.031 0.021,-0.034 0.022,-0.035L0.231,-0.714C0.234,-0.722 0.239,-0.728 0.246,-0.732C0.253,-0.735 0.261,-0.737 0.27,-0.737C0.279,-0.737 0.288,-0.735 0.295,-0.731C0.302,-0.727 0.307,-0.721 0.31,-0.714L0.518,-0.035C0.518,-0.034 0.518,-0.033 0.519,-0.032C0.519,-0.031 0.519,-0.03 0.519,-0.029C0.519,-0.021 0.515,-0.014 0.506,-0.009C0.497,-0.003 0.488,-0 0.479,-0C0.466,-0 0.458,-0.006 0.454,-0.017L0.408,-0.171L0.131,-0.171L0.085,-0.017C0.084,-0.011 0.081,-0.007 0.076,-0.004C0.07,-0.001 0.065,-0 0.059,-0ZM0.391,-0.228L0.27,-0.631L0.148,-0.228L0.391,-0.228Z" style="fill-rule:nonzero;"/>
            </g>
        </g>
        <g transform="matrix(0.97485,-0.222863,0.222863,0.97485,6.47324,43.7486)">
            <g transform="matrix(31.4,0,0,31.4,90.7352,5.19378)">
                <path d="M0.427,-0.707C0.427,-0.716 0.43,-0.722 0.437,-0.726C0.444,-0.729 0.451,-0.731 0.46,-0.731C0.468,-0.731 0.475,-0.729 0.483,-0.726C0.49,-0.722 0.493,-0.716 0.493,-0.707L0.493,-0.208C0.493,-0.169 0.488,-0.136 0.476,-0.109C0.466,-0.082 0.451,-0.059 0.432,-0.043C0.412,-0.025 0.39,-0.013 0.365,-0.006C0.34,0.002 0.312,0.006 0.283,0.006C0.254,0.006 0.226,0.002 0.201,-0.006C0.175,-0.013 0.153,-0.025 0.134,-0.043C0.115,-0.059 0.1,-0.082 0.089,-0.109C0.078,-0.136 0.073,-0.169 0.073,-0.208L0.073,-0.707C0.073,-0.716 0.077,-0.722 0.084,-0.726C0.091,-0.729 0.098,-0.731 0.106,-0.731C0.115,-0.731 0.122,-0.729 0.129,-0.726C0.136,-0.722 0.139,-0.716 0.139,-0.707L0.139,-0.208C0.139,-0.156 0.152,-0.117 0.177,-0.093C0.202,-0.068 0.238,-0.055 0.283,-0.055C0.328,-0.055 0.364,-0.068 0.389,-0.093C0.414,-0.117 0.427,-0.156 0.427,-0.208L0.427,-0.707Z" style="fill-rule:nonzero;"/>
            </g>
        </g>
        <g transform="matrix(0.996276,-0.0862169,0.0862169,0.996276,2.36468,33.2323)">
            <g transform="matrix(31.4,0,0,31.4,108.065,1.24013)">
                <path d="M0.076,-0.706C0.076,-0.715 0.079,-0.721 0.086,-0.725C0.092,-0.729 0.099,-0.731 0.106,-0.731L0.46,-0.731C0.469,-0.731 0.475,-0.728 0.479,-0.722C0.483,-0.716 0.485,-0.709 0.485,-0.702C0.485,-0.693 0.483,-0.686 0.478,-0.68C0.474,-0.673 0.468,-0.67 0.46,-0.67L0.142,-0.67L0.142,-0.395L0.3,-0.395C0.307,-0.395 0.313,-0.392 0.318,-0.386C0.322,-0.38 0.324,-0.373 0.324,-0.365C0.324,-0.358 0.322,-0.352 0.319,-0.346C0.315,-0.341 0.309,-0.338 0.3,-0.338L0.142,-0.338L0.142,-0.025C0.142,-0.016 0.139,-0.01 0.132,-0.006C0.125,-0.002 0.117,-0 0.109,-0C0.1,-0 0.093,-0.002 0.086,-0.006C0.079,-0.01 0.076,-0.016 0.076,-0.025L0.076,-0.706Z" style="fill-rule:nonzero;"/>
            </g>
        </g>
        <g transform="matrix(0.999419,0.0340763,-0.0340763,0.999419,-0.753879,19.7768)">
            <g transform="matrix(31.4,0,0,31.4,123.519,-0.228434)">
                <path d="M0.076,-0.706C0.076,-0.715 0.079,-0.721 0.086,-0.725C0.092,-0.729 0.099,-0.731 0.106,-0.731L0.27,-0.731C0.298,-0.731 0.324,-0.729 0.349,-0.725C0.374,-0.72 0.395,-0.712 0.414,-0.699C0.433,-0.686 0.447,-0.669 0.458,-0.647C0.469,-0.625 0.474,-0.596 0.474,-0.561C0.474,-0.519 0.466,-0.484 0.451,-0.456C0.435,-0.427 0.414,-0.407 0.389,-0.396C0.404,-0.39 0.418,-0.382 0.431,-0.373C0.444,-0.364 0.455,-0.352 0.464,-0.339C0.472,-0.326 0.48,-0.31 0.485,-0.291C0.49,-0.272 0.492,-0.249 0.492,-0.224L0.492,-0.206C0.492,-0.168 0.487,-0.136 0.476,-0.11C0.466,-0.083 0.452,-0.062 0.435,-0.046C0.417,-0.03 0.396,-0.018 0.372,-0.011C0.348,-0.004 0.322,-0 0.294,-0L0.106,-0C0.097,-0 0.089,-0.003 0.084,-0.008C0.079,-0.013 0.076,-0.018 0.076,-0.025L0.076,-0.706ZM0.286,-0.061C0.33,-0.061 0.364,-0.073 0.389,-0.096C0.414,-0.119 0.426,-0.157 0.426,-0.209L0.426,-0.226C0.426,-0.278 0.414,-0.315 0.389,-0.336C0.364,-0.357 0.33,-0.368 0.286,-0.368L0.141,-0.368L0.141,-0.061L0.286,-0.061ZM0.141,-0.425L0.272,-0.425C0.318,-0.425 0.352,-0.435 0.375,-0.454C0.397,-0.472 0.408,-0.506 0.408,-0.554C0.408,-0.577 0.405,-0.596 0.398,-0.611C0.391,-0.625 0.381,-0.637 0.369,-0.647C0.356,-0.656 0.342,-0.662 0.325,-0.665C0.308,-0.668 0.289,-0.67 0.268,-0.67L0.141,-0.67L0.141,-0.425Z" style="fill-rule:nonzero;"/>
            </g>
        </g>
        <g transform="matrix(0.986839,0.161708,-0.161708,0.986839,-1.98118,0.975769)">
            <g transform="matrix(31.4,0,0,31.4,140.454,0.316947)">
                <path d="M0.059,-0C0.05,-0 0.042,-0.003 0.034,-0.008C0.025,-0.013 0.021,-0.019 0.021,-0.028C0.021,-0.031 0.021,-0.034 0.022,-0.035L0.231,-0.714C0.234,-0.722 0.239,-0.728 0.246,-0.732C0.253,-0.735 0.261,-0.737 0.27,-0.737C0.279,-0.737 0.288,-0.735 0.295,-0.731C0.302,-0.727 0.307,-0.721 0.31,-0.714L0.518,-0.035C0.518,-0.034 0.518,-0.033 0.519,-0.032C0.519,-0.031 0.519,-0.03 0.519,-0.029C0.519,-0.021 0.515,-0.014 0.506,-0.009C0.497,-0.003 0.488,-0 0.479,-0C0.466,-0 0.458,-0.006 0.454,-0.017L0.408,-0.171L0.131,-0.171L0.085,-0.017C0.084,-0.011 0.081,-0.007 0.076,-0.004C0.07,-0.001 0.065,-0 0.059,-0ZM0.391,-0.228L0.27,-0.631L0.148,-0.228L0.391,-0.228Z" style="fill-rule:nonzero;"/>
            </g>
        </g>
        <g transform="matrix(0.955947,0.29354,-0.29354,0.955947,0.757023,-23.0344)">
            <g transform="matrix(31.4,0,0,31.4,157.081,3.00492)">
                <path d="M0.427,-0.707C0.427,-0.716 0.43,-0.722 0.437,-0.726C0.444,-0.729 0.451,-0.731 0.46,-0.731C0.468,-0.731 0.475,-0.729 0.483,-0.726C0.49,-0.722 0.493,-0.716 0.493,-0.707L0.493,-0.208C0.493,-0.169 0.488,-0.136 0.476,-0.109C0.466,-0.082 0.451,-0.059 0.432,-0.043C0.412,-0.025 0.39,-0.013 0.365,-0.006C0.34,0.002 0.312,0.006 0.283,0.006C0.254,0.006 0.226,0.002 0.201,-0.006C0.175,-0.013 0.153,-0.025 0.134,-0.043C0.115,-0.059 0.1,-0.082 0.089,-0.109C0.078,-0.136 0.073,-0.169 0.073,-0.208L0.073,-0.707C0.073,-0.716 0.077,-0.722 0.084,-0.726C0.091,-0.729 0.098,-0.731 0.106,-0.731C0.115,-0.731 0.122,-0.729 0.129,-0.726C0.136,-0.722 0.139,-0.716 0.139,-0.707L0.139,-0.208C0.139,-0.156 0.152,-0.117 0.177,-0.093C0.202,-0.068 0.238,-0.055 0.283,-0.055C0.328,-0.055 0.364,-0.068 0.389,-0.093C0.414,-0.117 0.427,-0.156 0.427,-0.208L0.427,-0.707Z" style="fill-rule:nonzero;"/>
            </g>
        </g>
        <g transform="matrix(0.909988,0.414634,-0.414634,0.909988,9.15479,-49.5751)">
            <g transform="matrix(31.4,0,0,31.4,174.037,8.2979)">
                <path d="M0.109,-0.061L0.436,-0.061C0.445,-0.061 0.451,-0.058 0.455,-0.051C0.459,-0.045 0.461,-0.038 0.461,-0.031C0.461,-0.024 0.459,-0.017 0.455,-0.01C0.451,-0.003 0.445,-0 0.436,-0L0.048,-0C0.041,-0 0.035,-0.002 0.031,-0.007C0.026,-0.011 0.024,-0.016 0.024,-0.023C0.024,-0.03 0.026,-0.038 0.03,-0.046L0.363,-0.67L0.061,-0.67C0.053,-0.67 0.047,-0.673 0.043,-0.68C0.038,-0.686 0.036,-0.693 0.036,-0.701C0.036,-0.708 0.038,-0.715 0.042,-0.722C0.046,-0.728 0.052,-0.731 0.061,-0.731L0.424,-0.731C0.433,-0.731 0.439,-0.729 0.443,-0.725C0.447,-0.721 0.449,-0.716 0.449,-0.71C0.449,-0.702 0.446,-0.693 0.441,-0.684L0.109,-0.061Z" style="fill-rule:nonzero;"/>
            </g>
        </g>
        <g transform="matrix(0.84938,0.527782,-0.527782,0.84938,23.3073,-76.6028)">
            <g transform="matrix(31.4,0,0,31.4,187.913,14.5337)">
                <path d="M0.142,-0.395L0.299,-0.395C0.307,-0.395 0.313,-0.392 0.318,-0.386C0.322,-0.38 0.324,-0.373 0.324,-0.365C0.324,-0.358 0.322,-0.352 0.319,-0.346C0.315,-0.341 0.308,-0.338 0.299,-0.338L0.142,-0.338L0.142,-0.061L0.462,-0.061C0.47,-0.061 0.476,-0.058 0.481,-0.051C0.485,-0.045 0.487,-0.038 0.487,-0.03C0.487,-0.023 0.485,-0.016 0.482,-0.01C0.478,-0.003 0.471,-0 0.462,-0L0.106,-0C0.099,-0 0.092,-0.002 0.086,-0.007C0.079,-0.011 0.076,-0.017 0.076,-0.026L0.076,-0.706C0.076,-0.715 0.079,-0.721 0.086,-0.725C0.092,-0.729 0.099,-0.731 0.106,-0.731L0.462,-0.731C0.471,-0.731 0.478,-0.728 0.482,-0.722C0.485,-0.716 0.487,-0.709 0.487,-0.702C0.487,-0.693 0.485,-0.686 0.481,-0.68C0.476,-0.673 0.47,-0.67 0.462,-0.67L0.142,-0.67L0.142,-0.395Z" style="fill-rule:nonzero;"/>
            </g>
        </g>
        <g transform="matrix(0.776883,0.629645,-0.629645,0.776883,44.2471,-103.147)">
            <g transform="matrix(31.4,0,0,31.4,201.531,22.8598)">
                <path d="M0.076,-0.707C0.076,-0.722 0.084,-0.73 0.101,-0.731L0.278,-0.731C0.307,-0.731 0.335,-0.728 0.361,-0.722C0.387,-0.715 0.41,-0.704 0.43,-0.689C0.449,-0.674 0.465,-0.653 0.476,-0.628C0.488,-0.603 0.494,-0.571 0.494,-0.534C0.494,-0.503 0.49,-0.476 0.482,-0.454C0.474,-0.431 0.463,-0.412 0.449,-0.397C0.435,-0.381 0.419,-0.369 0.4,-0.36C0.381,-0.351 0.36,-0.345 0.338,-0.341L0.492,-0.045C0.495,-0.042 0.496,-0.037 0.496,-0.032C0.496,-0.023 0.492,-0.016 0.484,-0.009C0.476,-0.002 0.467,0.002 0.458,0.002C0.45,0.002 0.443,-0.002 0.438,-0.01C0.432,-0.017 0.427,-0.025 0.423,-0.033L0.269,-0.333L0.142,-0.333L0.142,-0.026C0.142,-0.017 0.139,-0.011 0.132,-0.007C0.125,-0.002 0.117,-0 0.109,-0C0.1,-0 0.093,-0.002 0.086,-0.007C0.079,-0.011 0.076,-0.017 0.076,-0.026L0.076,-0.707ZM0.142,-0.67L0.142,-0.39L0.278,-0.39C0.323,-0.39 0.359,-0.401 0.387,-0.423C0.414,-0.444 0.428,-0.48 0.428,-0.531C0.428,-0.581 0.414,-0.617 0.387,-0.638C0.359,-0.659 0.323,-0.67 0.278,-0.67L0.142,-0.67Z" style="fill-rule:nonzero;"/>
            </g>
        </g>
        <g transform="matrix(0.698635,0.715478,-0.715478,0.698635,71.1619,-126.552)">
            <g transform="matrix(31.4,0,0,31.4,214.296,33.1975)">
                <path d="M0.441,-0.731C0.45,-0.731 0.456,-0.728 0.46,-0.722C0.464,-0.715 0.466,-0.708 0.466,-0.701C0.466,-0.693 0.464,-0.686 0.46,-0.679C0.456,-0.672 0.45,-0.669 0.441,-0.669L0.274,-0.669L0.274,-0.026C0.274,-0.017 0.271,-0.011 0.264,-0.007C0.257,-0.002 0.249,-0 0.241,-0C0.232,-0 0.225,-0.002 0.218,-0.007C0.211,-0.011 0.208,-0.017 0.208,-0.026L0.208,-0.669L0.04,-0.669C0.032,-0.669 0.026,-0.672 0.021,-0.679C0.017,-0.685 0.015,-0.692 0.015,-0.7C0.015,-0.707 0.017,-0.714 0.021,-0.721C0.025,-0.728 0.031,-0.731 0.04,-0.731L0.441,-0.731Z" style="fill-rule:nonzero;"/>
            </g>
        </g>
        <g transform="matrix(0.635424,0.772163,-0.772163,0.635424,97.4459,-142.178)">
            <g transform="matrix(31.4,0,0,31.4,224.703,44.1052)">
                <path d="M0.076,-0.707C0.076,-0.716 0.079,-0.722 0.086,-0.726C0.093,-0.729 0.1,-0.731 0.109,-0.731C0.117,-0.731 0.125,-0.729 0.132,-0.726C0.139,-0.722 0.142,-0.716 0.142,-0.707L0.142,-0.026C0.142,-0.017 0.139,-0.011 0.132,-0.007C0.125,-0.002 0.117,-0 0.109,-0C0.1,-0 0.093,-0.002 0.086,-0.007C0.079,-0.011 0.076,-0.017 0.076,-0.026L0.076,-0.707Z" style="fill-rule:nonzero;"/>
            </g>
        </g>
        <g transform="matrix(0.559321,0.828951,-0.828951,0.559321,121.945,-154.921)">
            <g transform="matrix(31.4,0,0,31.4,229.255,49.2335)">
                <path d="M0.076,-0.706C0.076,-0.715 0.079,-0.721 0.086,-0.725C0.092,-0.729 0.099,-0.731 0.106,-0.731L0.46,-0.731C0.469,-0.731 0.475,-0.728 0.479,-0.722C0.483,-0.716 0.485,-0.709 0.485,-0.702C0.485,-0.693 0.483,-0.686 0.478,-0.68C0.474,-0.673 0.468,-0.67 0.46,-0.67L0.142,-0.67L0.142,-0.395L0.3,-0.395C0.307,-0.395 0.313,-0.392 0.318,-0.386C0.322,-0.38 0.324,-0.373 0.324,-0.365C0.324,-0.358 0.322,-0.352 0.319,-0.346C0.315,-0.341 0.309,-0.338 0.3,-0.338L0.142,-0.338L0.142,-0.025C0.142,-0.016 0.139,-0.01 0.132,-0.006C0.125,-0.002 0.117,-0 0.109,-0C0.1,-0 0.093,-0.002 0.086,-0.006C0.079,-0.01 0.076,-0.016 0.076,-0.025L0.076,-0.706Z" style="fill-rule:nonzero;"/>
            </g>
        </g>
        <g transform="matrix(0.4921,0.870539,-0.870539,0.4921,154.019,-163.651)">
            <g transform="matrix(31.4,0,0,31.4,237.826,62.1682)">
                <path d="M0.076,-0.707C0.076,-0.716 0.079,-0.722 0.086,-0.726C0.093,-0.729 0.1,-0.731 0.109,-0.731C0.117,-0.731 0.125,-0.729 0.132,-0.726C0.139,-0.722 0.142,-0.716 0.142,-0.707L0.142,-0.026C0.142,-0.017 0.139,-0.011 0.132,-0.007C0.125,-0.002 0.117,-0 0.109,-0C0.1,-0 0.093,-0.002 0.086,-0.007C0.079,-0.011 0.076,-0.017 0.076,-0.026L0.076,-0.707Z" style="fill-rule:nonzero;"/>
            </g>
        </g>
        <g transform="matrix(0.402783,0.915295,-0.915295,0.402783,184.486,-170.73)">
            <g transform="matrix(31.4,0,0,31.4,241.464,68.007)">
                <path d="M0.076,-0.707C0.076,-0.716 0.079,-0.722 0.086,-0.726C0.093,-0.729 0.1,-0.731 0.109,-0.731C0.117,-0.731 0.125,-0.729 0.132,-0.726C0.139,-0.722 0.142,-0.716 0.142,-0.707L0.142,-0.353L0.431,-0.721C0.436,-0.728 0.443,-0.731 0.452,-0.731C0.46,-0.731 0.468,-0.728 0.476,-0.721C0.484,-0.714 0.488,-0.706 0.488,-0.697C0.488,-0.695 0.488,-0.693 0.487,-0.69C0.486,-0.687 0.485,-0.685 0.483,-0.682L0.268,-0.415L0.514,-0.045C0.517,-0.04 0.518,-0.035 0.518,-0.032C0.518,-0.023 0.514,-0.015 0.506,-0.008C0.498,-0.001 0.489,0.002 0.48,0.002C0.47,0.002 0.462,-0.003 0.455,-0.013L0.224,-0.36L0.142,-0.256L0.142,-0.026C0.142,-0.017 0.139,-0.011 0.132,-0.007C0.125,-0.002 0.117,-0 0.109,-0C0.1,-0 0.093,-0.002 0.086,-0.007C0.079,-0.011 0.076,-0.017 0.076,-0.026L0.076,-0.707Z" style="fill-rule:nonzero;"/>
            </g>
        </g>
        <g transform="matrix(0.287975,0.957638,-0.957638,0.287975,233.208,-171.629)">
            <g transform="matrix(31.4,0,0,31.4,248.16,83.0118)">
                <path d="M0.059,-0C0.05,-0 0.042,-0.003 0.034,-0.008C0.025,-0.013 0.021,-0.019 0.021,-0.028C0.021,-0.031 0.021,-0.034 0.022,-0.035L0.231,-0.714C0.234,-0.722 0.239,-0.728 0.246,-0.732C0.253,-0.735 0.261,-0.737 0.27,-0.737C0.279,-0.737 0.288,-0.735 0.295,-0.731C0.302,-0.727 0.307,-0.721 0.31,-0.714L0.518,-0.035C0.518,-0.034 0.518,-0.033 0.519,-0.032C0.519,-0.031 0.519,-0.03 0.519,-0.029C0.519,-0.021 0.515,-0.014 0.506,-0.009C0.497,-0.003 0.488,-0 0.479,-0C0.466,-0 0.458,-0.006 0.454,-0.017L0.408,-0.171L0.131,-0.171L0.085,-0.017C0.084,-0.011 0.081,-0.007 0.076,-0.004C0.07,-0.001 0.065,-0 0.059,-0ZM0.391,-0.228L0.27,-0.631L0.148,-0.228L0.391,-0.228Z" style="fill-rule:nonzero;"/>
            </g>
        </g>
        <g transform="matrix(0.178741,0.983896,-0.983896,0.178741,279.834,-164.092)">
            <g transform="matrix(31.4,0,0,31.4,252.587,97.5797)">
                <path d="M0.441,-0.731C0.45,-0.731 0.456,-0.728 0.46,-0.722C0.464,-0.715 0.466,-0.708 0.466,-0.701C0.466,-0.693 0.464,-0.686 0.46,-0.679C0.456,-0.672 0.45,-0.669 0.441,-0.669L0.274,-0.669L0.274,-0.026C0.274,-0.017 0.271,-0.011 0.264,-0.007C0.257,-0.002 0.249,-0 0.241,-0C0.232,-0 0.225,-0.002 0.218,-0.007C0.211,-0.011 0.208,-0.017 0.208,-0.026L0.208,-0.669L0.04,-0.669C0.032,-0.669 0.026,-0.672 0.021,-0.679C0.017,-0.685 0.015,-0.692 0.015,-0.7C0.015,-0.707 0.017,-0.714 0.021,-0.721C0.025,-0.728 0.031,-0.731 0.04,-0.731L0.441,-0.731Z" style="fill-rule:nonzero;"/>
            </g>
        </g>
    </g>
    <g transform="matrix(0.34072,0,0,0.370341,-240.334,-2214.93)">
        <path d="M1081.05,6162.36L1096.21,6255.67C1098.43,6269.36 1104.65,6281.99 1114.01,6291.81C1123.36,6301.63 1135.39,6308.16 1148.43,6310.5L1237.3,6326.42L1148.43,6342.34C1135.39,6344.68 1123.36,6351.21 1114.01,6361.03C1104.65,6370.85 1098.43,6383.48 1096.21,6397.17L1081.05,6490.48L1065.88,6397.17C1063.66,6383.48 1057.44,6370.85 1048.09,6361.03C1038.73,6351.21 1026.7,6344.68 1013.66,6342.34L924.797,6326.42L1013.66,6310.5C1026.7,6308.16 1038.73,6301.63 1048.09,6291.81C1057.44,6281.99 1063.66,6269.36 1065.88,6255.67L1081.05,6162.36Z"/>
    </g>
</svg>
