<?xml version="1.0" encoding="UTF-8" standalone="no"?><!DOCTYPE svg PUBLIC "-//W3C//DTD SVG 1.1//EN" "http://www.w3.org/Graphics/SVG/1.1/DTD/svg11.dtd"><svg width="100%" height="100%" viewBox="0 0 3177 2617" version="1.1" xmlns="http://www.w3.org/2000/svg" xmlns:xlink="http://www.w3.org/1999/xlink" xml:space="preserve" xmlns:serif="http://www.serif.com/" style="fill-rule:evenodd;clip-rule:evenodd;stroke-miterlimit:10;"><g><g id="Ebene-1" serif:id="Ebene 1"><g><path d="M1732.99,927.98c-9.85,-2.279 -19.316,-16.771 -15.358,-28.587c5.15,-15.363 28.779,-21.213 47.642,-21.175c27.533,0.058 43.004,3.945 43.004,-27.13c-0,-19.187 -8.342,-36.462 2.208,-57.562c21.834,-43.671 48.259,-47.554 87.605,-51.617c46.104,-4.762 85.895,8.396 121.262,40.304c36.467,32.904 29.817,80.479 23.154,125.117c-3.496,23.421 -7.25,29.021 -23.683,46.992c-16.883,18.458 -36.796,36.65 2.512,35.046c47.767,-1.95 52.046,-40.571 157.034,-38.809c78.508,1.321 137.213,27.921 157.038,96.142c22.05,75.892 -10.384,115.696 -28.238,142.938c-18.242,27.837 -54.517,28.5 -140.921,37.345c-93.904,9.617 -187.742,29.555 -280.029,-4.695c-45.6,-16.921 -74.021,-41.488 -73.971,-89.992c0.025,-23.4 -2.396,-46.904 5.296,-68.95c6.266,-17.971 20.183,-32.254 26.541,-50.075c4.525,-12.688 5.196,-28.229 7.538,-41.963c-34.038,-19.766 -12.667,-34.812 -45.329,-13.029c-26.863,17.913 -56.455,19.192 -65.505,9.925c-10.583,-23.821 15.738,-29.908 36.392,-43.008c-5.325,-2.996 -16.021,1.196 -23.021,1.458l-21.171,1.325Z" style="fill:none;fill-rule:nonzero;stroke:#f0e5d8;stroke-width:29.17px;"/></g><g><path d="M1887.24,878.219c-13.297,0.35 -28.67,-11.467 -28.23,-33.524c0.439,-22.057 11.466,-28.232 24.259,-28.232c12.789,0 22.938,11.03 22.936,27.351c0.001,16.322 -2.205,33.966 -18.965,34.405Z" style="fill:none;fill-rule:nonzero;stroke:#f0e5d8;stroke-width:29.17px;"/></g><g><path d="M955.672,1467.49c38.517,-1.838 74.217,1.846 112.367,-4.009c36.058,-5.541 86.346,-8.75 122.037,-0.05c39.171,9.546 74.538,10.405 115.709,8.467c36.762,-1.737 133.837,0.45 142.383,1.733c-4.712,73.426 0.029,154.126 0.688,225.017c0.729,78.65 19.829,254.159 19.829,271.517c-37.938,0.892 -63.15,4.213 -101.883,4.109c-40.225,-0.109 -78.863,-2.421 -117.821,-6.263c-76.7,-7.562 -152.175,6.263 -229.384,6.263c-20.75,-0 -50.537,3.341 -67.279,-6.313c-0,0 -1.3,-143.925 4.675,-216.238c2.812,-34.004 -4.317,-66.466 -2.571,-101.458c1.746,-34.921 3.829,-70.325 2.113,-105.204c-0.963,-19.584 -3.396,-39.117 -3.184,-58.75c0.117,-9.984 0.034,-17.284 5.967,-25.325c6.133,-8.3 11.362,-17.234 17.721,-25.367c7.121,-9.104 14.725,-17.821 22.425,-25.796c15.8,-16.362 31.937,-33.6 44.2,-52.771c13.441,-21.012 23.458,-40.262 41.925,-58.212c8.533,-8.292 38.804,-42.9 46.092,-52.071c13.77,-17.313 77,-77.988 85.891,-83.909c9.509,5.617 26.746,37.996 31.346,47.709c4.863,10.258 35.425,46.416 51.817,61.762c8.712,8.159 69.733,92.217 83.092,110.463c11.525,15.746 46.241,60.821 52.441,68.254c4.142,4.971 8.034,13.196 11.909,22.3" style="fill:none;fill-rule:nonzero;stroke:#f0e5d8;stroke-width:29.17px;"/></g><g><path d="M1027.68,1715.6c0.504,-4.759 -3.096,-31.976 -2.787,-38.288c0.6,-12.267 2.737,-24.163 3.483,-36.2c0.704,-11.413 1.342,-25.125 -0.871,-36.2c-1.158,-5.813 -2.129,-25.817 2.434,-25.796c2.491,0.013 52.825,0.033 72.929,0.033c20.358,0 40.692,-3.65 61.154,-2.679c0.446,5.517 3.875,27.496 3.588,33.313c-0.613,12.537 2.17,24.487 2.787,36.933c1.096,22.396 2.938,43.346 2.825,66.321c-23.087,-1.167 -39.4,-3.746 -62,-0.067c-12.658,2.059 -26.1,1.971 -39.004,2.63c-11.708,0.595 -23.988,1.512 -35.488,-0l-9.05,-0Z" style="fill:none;fill-rule:nonzero;stroke:#f0e5d8;stroke-width:29.17px;"/></g><g><path d="M1161.81,1968.73c-0.4,-18.754 -1.954,-28.075 -0.796,-39.321c1.354,-13.192 -0.154,-26.65 0.383,-39.8c1.071,-26 -1.371,-53.846 -2.883,-79.65c-0.496,-8.408 -1.317,-11.792 10.942,-11.725c7.5,0.042 14.062,2.2 21.237,2.025c17.25,-0.421 26.475,-0.483 41.621,-0.825c6.517,-0.146 15.146,-0.379 21.783,-0.779c7,-0.425 3.896,2.187 4.296,6.4c0.317,3.308 0.9,6.171 0.9,9.625c-0.012,14.304 -0.329,28 1.117,42.125c0.675,6.629 1.266,13.321 2.896,19.654c1.67,6.475 3.808,48.129 3.808,62.783c-0,10.646 0.604,21.034 0.604,31.492" style="fill:none;fill-rule:nonzero;stroke:#f0e5d8;stroke-width:29.17px;"/></g><g><path d="M1346.66,1329.56c0,-9.091 -1.821,-16.95 -0.5,-25.8c0.596,-4.004 -1.629,-22.929 -0.05,-25.771c3.067,-5.533 20.029,-2.362 25.275,-2.079c8.667,0.463 44.975,-4.375 48.388,4.734c3.108,8.287 0.529,75.329 0.529,84.683c-0,23.138 4.208,44.892 4.208,67.854" style="fill:none;fill-rule:nonzero;stroke:#f0e5d8;stroke-width:29.17px;"/></g><g><path d="M1390.35,1577.13c-0.509,4.758 3.091,31.975 2.787,38.291c-0.604,12.263 -2.737,24.163 -3.483,36.2c-0.709,11.413 -1.342,25.121 0.866,36.2c1.163,5.809 2.13,25.813 -2.433,25.796c-2.492,-0.016 -52.821,-0.033 -72.921,-0.033c-20.362,0 -40.7,3.646 -61.162,2.675c-0.446,-5.513 -3.871,-27.496 -3.584,-33.313c0.613,-12.537 -2.175,-24.487 -2.787,-36.933c-1.1,-22.396 -2.942,-43.346 -2.829,-66.317c23.091,1.163 39.4,3.746 62.004,0.067c12.654,-2.062 26.096,-1.975 39.008,-2.633c11.704,-0.596 23.984,-1.513 35.484,-0l9.05,-0Z" style="fill:none;fill-rule:nonzero;stroke:#f0e5d8;stroke-width:29.17px;"/></g><g><path d="M1881.32,2282.22c11.616,-17.017 32.871,-55.142 39.9,-89.413c6.333,-30.891 8.271,-74.804 13.179,-105.883c9.208,-58.317 -1.525,-71.663 4.433,-131.363c4.742,-47.487 6.334,-100.346 3.125,-149.2c-20.758,27.363 -31.321,62.592 -73.462,57.371c-28.117,-3.483 -56.821,-43.642 -42.617,-79.521c-31.779,29.433 -58.217,33.258 -83.913,31.629c-21.737,-1.375 -42.47,-10.862 -56.675,-28.654c-24.191,-30.287 -3.671,-98.313 41.738,-96.117c-27.679,-19.333 -32.754,-67.212 -12.742,-93.141c15.675,-20.317 54.917,-43.059 89.571,-18.671c-19.275,-47.671 14.646,-92.446 54.096,-111.234c36.904,-17.575 91.383,-0.583 106.029,42.18c7.617,-65.609 49.792,-77.913 98.413,-71.863c54.862,6.821 80.579,52.162 80.217,100.183c26.837,-48.237 85.791,-35.12 110.362,-3.07c28.667,37.387 6.038,82.829 -32.542,98.108c41.88,8.254 91.321,48.575 57.1,102.321c-23.087,36.258 -79.525,45.25 -127.412,24.604c11.987,47.713 -13.621,95.338 -56.238,102.808c-39.362,6.896 -86.55,-9.666 -99.279,-44.712c-7.687,24.733 -1.042,68.687 0.425,96.204c1.563,29.371 2.863,59.534 5.267,88.575c4.825,58.238 4.829,102.509 20.216,158.255c10.425,37.75 26.313,83.362 49.646,115.983c-42.7,2.804 -55.179,-1.704 -97.591,4.45c-22.15,3.212 -91.246,0.171 -91.246,0.171Z" style="fill:none;fill-rule:nonzero;stroke:#f0e5d8;stroke-width:29.17px;"/></g><g><path d="M1133.88,565.03c-28.792,12.754 -47.271,38.662 -54.209,69.387c-15.7,69.5 17.325,110.538 70.646,137.321c18.142,9.113 66.871,13.621 86.304,9.888c16.48,-3.159 33.509,-4.638 48.221,-13.729c25.109,-15.521 42.7,-46.6 48.23,-74.513c13.954,-70.446 -36.638,-131.804 -106.571,-142.892c-22.821,-3.616 -60.417,0.271 -92.621,14.538Z" style="fill:none;fill-rule:nonzero;stroke:#f0e5d8;stroke-width:29.17px;"/></g><g><path d="M1284.55,516.617c24.537,-38.381 41.433,-81.687 65.601,-120.453" style="fill:none;fill-rule:nonzero;stroke:#f0e5d8;stroke-width:29.17px;"/></g><g><path d="M1371.79,610.026c22.342,-13.213 46.758,-22.396 71.008,-28.525c11.909,-3.009 22.834,-7.521 33.942,-12.388c9.346,-4.096 22.938,-7.204 30.917,-13.125" style="fill:none;fill-rule:nonzero;stroke:#f0e5d8;stroke-width:29.17px;"/></g><g><path d="M1372.56,744.351c29.312,-0.509 59.208,9.8 85.65,17.775c11.2,3.379 22.388,6.604 33.254,11.387c9.834,4.334 22.154,4.25 30.863,9.438" style="fill:none;fill-rule:nonzero;stroke:#f0e5d8;stroke-width:29.17px;"/></g><g><path d="M1281.46,821.551c0.583,11.2 7.312,19.741 13.354,28.562c5.717,8.342 9.588,19.409 13.663,28.567c4.32,9.7 8.275,19.613 12.333,29.375c1.95,4.683 3.787,9.538 5.642,14.454c1.779,4.729 6.245,9.871 6.733,14.842" style="fill:none;fill-rule:nonzero;stroke:#f0e5d8;stroke-width:29.17px;"/></g><g><path d="M1149.45,823.863c-6.712,8.321 -7.283,25.284 -9.241,35.509c-1.979,10.362 -3.813,20.479 -5.596,30.887c-3.288,19.192 -8.733,40.542 -16.817,58.667" style="fill:none;fill-rule:nonzero;stroke:#f0e5d8;stroke-width:29.17px;"/></g><g><path d="M1050.63,762.109c-21.225,11.192 -31.875,38.404 -50.175,53.079c-7.909,6.342 -17.255,11.688 -24.492,18.909c-6.504,6.491 -11.104,17.145 -18.742,22.195" style="fill:none;fill-rule:nonzero;stroke:#f0e5d8;stroke-width:29.17px;"/></g><g><path d="M1026.7,658.663c-9.987,2.138 -20.612,-0.271 -30.67,-0.733c-11.138,-0.509 -21.946,-0.354 -32.788,0.691c-21.542,2.08 -43.421,0.888 -64.692,0.813" style="fill:none;fill-rule:nonzero;stroke:#f0e5d8;stroke-width:29.17px;"/></g><g><path d="M1171.84,508.893c1.066,-8.942 -5.203,-20.537 -6.972,-29.336c-2.175,-10.842 -4.146,-21.245 -5.382,-32.386c-1.23,-11.027 -5.788,-21.592 -8.516,-32.46c-2.452,-9.788 -3.587,-20.214 -5.381,-30.108" style="fill:none;fill-rule:nonzero;stroke:#f0e5d8;stroke-width:29.17px;"/></g><g><path d="M1072.25,555.982c-9.226,-9.89 -16.761,-21.568 -25.628,-31.442c-8.115,-9.032 -18.133,-15.68 -26.904,-23.969c-8.504,-8.031 -15.974,-15.487 -22.161,-24.854c-6.527,-9.876 -15.518,-20.989 -27.21,-24.723" style="fill:none;fill-rule:nonzero;stroke:#f0e5d8;stroke-width:29.17px;"/></g><g><path d="M1229.26,2475.45c176.087,-0.554 167.475,9.117 211.108,-10.937c65.146,-29.942 55.55,-35.321 91.55,-94.155c18.292,-29.891 28.317,-86.804 28.209,-141.833c-59.03,-5.954 -60.717,3.346 -68.513,12.808c-10.229,12.425 -67.804,76.296 -90.963,103.78c-14.687,17.416 -51.258,23.225 -173.058,20.995c-82.113,-1.508 -164.838,-2.612 -247.375,0c-79.854,2.525 -109.621,6.367 -190.988,-1.675c-19.321,-1.908 -114.187,-28.404 -157.079,-19.491c-32.096,6.666 -56.896,21.696 -72.967,28.45c-26.417,11.108 -72.904,22.746 -77.917,57.387c-7.125,49.246 183.63,47.184 222.242,48.959c89.663,4.12 160.617,1.279 250.038,2.104c35.104,0.329 33.217,0.071 39.229,0.283" style="fill:none;fill-rule:nonzero;stroke:#f0e5d8;stroke-width:29.17px;"/></g><g><path d="M862.193,2426.26c5.204,16.283 32.471,22.058 46.787,25.65c19.613,4.933 40.842,14.125 60.159,20.833c32.421,11.254 63.371,29.396 94.604,43.971c37.042,17.283 75.804,30.462 113.771,44.337c16.529,6.042 33.029,12.388 50.096,18.075c9.766,3.259 19.141,8.688 28.996,12c10.366,3.484 19.779,1.184 30.329,0.009c19.55,-2.179 37.942,-1.163 57.625,-1.95c15.308,-0.613 69.071,9.746 42.608,-19.217c-10.8,-11.825 -40.271,-30.517 -54.004,-36.458c-16.475,-7.13 -31.725,-15.713 -47.704,-24.813c-23.834,-13.575 -59.192,-33.575 -80.992,-49.575c-11.679,-8.571 -53.283,-31.25 -67.117,-38.433" style="fill:none;fill-rule:nonzero;stroke:#f0e5d8;stroke-width:29.17px;"/></g><g><path d="M599.538,2404.37c3.9,4.225 38.48,4.833 57.192,6.683c10.034,0.992 20.554,0.754 30.446,0.737c9.858,-0.008 26.758,2.971 26.754,-8.925c-0.004,-19.954 -40.929,-22.616 -53.491,-24.658c-12.217,-1.987 -24.021,-1.162 -35.646,1.692c-11.4,2.8 -31.938,17.229 -25.255,24.471Z" style="fill:none;fill-rule:nonzero;stroke:#f0e5d8;stroke-width:20.83px;"/></g><g><path d="M638.068,1356.89c24.996,-4.796 50.821,-7.038 73.137,-20.829c38.075,-23.534 72.046,-69.871 73.142,-113.009c3.525,-138.733 -45.054,-208.204 -161.271,-227.208c-34.588,-5.659 -102.825,1.533 -151.671,23.17c-43.667,19.342 -71.754,82.838 -72.075,130.605c-0.679,101.112 26.971,151.646 107.842,192.271c27.512,13.821 101.421,20.658 130.896,15" style="fill:none;fill-rule:nonzero;stroke:#f0e5d8;stroke-width:29.17px;"/></g><g><path d="M598.847,997.13c-4.529,33.388 0.421,81.763 25.766,108.154c30.63,31.896 74.276,31.45 115.301,31.696c10.979,0.067 23.175,-0.712 32.758,-6.137" style="fill:none;fill-rule:nonzero;stroke:#f0e5d8;stroke-width:29.17px;"/></g><g><path d="M420.417,1122.48c-7.591,11.688 -13.241,23.596 -15.52,36.913c-2.321,13.604 -4.017,28.35 -2.584,42.583c1.921,19.071 9.075,25.554 22.246,38.942c11.904,12.096 29.142,23.221 45.638,30.204c21.466,9.087 40.625,11.2 63.079,6.854c41.479,-8.033 51.679,-36.358 67.1,-71.371c16.871,-38.296 -9.5,-84.35 -44.333,-102.775c-17.196,-9.096 -31.955,-13.529 -50.155,-15.746c-22.329,-2.721 -47.725,1.063 -60.104,7.4c-12.379,6.334 -19.621,18.142 -25.367,26.996Z" style="fill:none;fill-rule:nonzero;stroke:#f0e5d8;stroke-width:29.17px;"/></g><g><path d="M784.53,1210.77c-37.383,-25.838 -90.121,-20.425 -125.208,4.858c-32.471,23.396 -47.634,75.917 -37.379,114.63c1.583,5.966 12.008,22.7 16.129,26.629" style="fill:none;fill-rule:nonzero;stroke:#f0e5d8;stroke-width:29.17px;"/></g><g><path d="M1738.32,438.72c-25.696,-9.545 -21.317,-58.725 -21.346,-80.587c-0.067,-53.579 83.341,-74.925 120.666,-74.925c60.276,-0 122.934,-7.688 146.801,-16.554c20.329,-7.55 62.616,-35.634 84.945,-76.088c24.717,-44.792 72.601,-84.217 138.817,-87.7c56.675,-2.983 151.925,-6.746 210.255,-4.367c54.658,2.23 102.858,11.046 143.458,43.859c42.4,34.271 45.988,89.933 87.317,119.029c25.796,18.163 58.046,7.542 87.508,15.721c30.742,8.537 36.946,15.6 47.754,44.079c10.325,27.217 7.671,37.896 9.167,66.858c1.642,31.817 -25.533,53.909 -53.437,56.338c-56.342,4.908 -59.421,4.65 -116.921,-0c-30.688,-2.479 -55.017,-62.871 -120.63,-60.983c-80.733,2.325 -84.416,58.716 -114.421,61.566c-65.25,6.188 -108.612,-3.483 -167.275,-3.483c-30.696,-0 -47.05,-5.229 -76.441,-4.188c-27.25,0.967 -40.3,-55.641 -118.717,-53.895c-61.242,1.358 -81.892,54.595 -103.35,52.637c-30.18,-2.75 -61.83,3.179 -91.8,3.117c-45.467,-0.092 -92.35,-0.434 -92.35,-0.434Z" style="fill:none;fill-rule:nonzero;stroke:#f0e5d8;stroke-width:29.17px;"/></g><g><path d="M1950.23,418.98c-0.283,42.283 11.267,59.433 45.088,76.421c11.504,5.779 42.412,8.637 54.737,6.27" style="fill:none;fill-rule:nonzero;stroke:#f0e5d8;stroke-width:29.17px;"/></g><g><path d="M2050.05,501.676c10.454,-2.005 21.258,-2.942 30.587,-8.709c15.925,-9.841 35.213,-18.379 32.163,-75.429" style="fill:none;fill-rule:nonzero;stroke:#f0e5d8;stroke-width:29.17px;"/></g><g><path d="M2421.14,419.963c-0.283,42.283 11.263,59.433 45.083,76.421c11.509,5.779 42.413,8.637 54.742,6.271" style="fill:none;fill-rule:nonzero;stroke:#f0e5d8;stroke-width:29.17px;"/></g><g><path d="M2520.97,502.659c10.45,-2.008 21.25,-2.946 30.584,-8.708c15.92,-9.846 35.212,-18.38 32.162,-75.43" style="fill:none;fill-rule:nonzero;stroke:#f0e5d8;stroke-width:29.17px;"/></g><g><path d="M2202.68,258.537l93.221,-0c13.721,-0 39.4,3.129 40.08,-4.646c1.158,-13.359 -2.005,-42.875 -2.909,-54.604c-3.771,-49.075 1.163,-60.117 -33.642,-60.105c-15.291,0.004 -77.67,2.159 -92.391,4.375c-25.3,3.813 -50.384,11.821 -65.05,33.955c-7.234,10.908 -33.113,62.729 -37.754,81.895c-0,0 69.066,-0.87 98.445,-0.87Z" style="fill:none;fill-rule:nonzero;stroke:#f0e5d8;stroke-width:29.17px;"/></g><g><path d="M2380.42,256.199c14.45,0.1 45.225,2.854 59.821,2.904c14.613,0.054 50.779,1.204 65.458,0.538c13.055,-0.596 45.192,7.596 49.838,-3.15c6.721,-15.542 -66.808,-105.609 -72.896,-110.067c-12.521,-9.163 -29.329,-5.763 -46.75,-6.679c-15.187,-0.796 -30.529,-4.292 -46.779,-2.904c-15.842,1.354 -15.663,5.229 -16.242,14.812c-0.887,14.654 7.55,104.546 7.55,104.546Z" style="fill:none;fill-rule:nonzero;stroke:#f0e5d8;stroke-width:29.17px;"/></g><g><path d="M2584.79,2040.68c-28.791,12.754 -47.271,38.662 -54.208,69.383c-15.7,69.509 17.325,110.542 70.646,137.325c18.141,9.113 66.871,13.621 86.304,9.888c16.479,-3.159 33.508,-4.638 48.221,-13.729c25.108,-15.521 42.7,-46.6 48.229,-74.513c13.954,-70.446 -36.637,-131.804 -106.571,-142.888c-22.821,-3.62 -60.417,0.267 -92.621,14.534Z" style="fill:none;fill-rule:nonzero;stroke:#f0e5d8;stroke-width:29.17px;"/></g><g><path d="M2735.46,1992.26c24.538,-38.38 41.436,-81.68 65.6,-120.444" style="fill:none;fill-rule:nonzero;stroke:#f0e5d8;stroke-width:29.17px;"/></g><g><path d="M2822.69,2085.67c22.342,-13.217 46.759,-22.4 71.009,-28.525c11.908,-3.009 22.833,-7.521 33.941,-12.388c9.346,-4.1 22.938,-7.208 30.917,-13.129" style="fill:none;fill-rule:nonzero;stroke:#f0e5d8;stroke-width:29.17px;"/></g><g><path d="M2823.47,2220c29.313,-0.509 59.209,9.8 85.65,17.775c11.2,3.379 22.388,6.604 33.255,11.387c9.833,4.334 22.154,4.25 30.862,9.438" style="fill:none;fill-rule:nonzero;stroke:#f0e5d8;stroke-width:29.17px;"/></g><g><path d="M2732.37,2297.2c0.584,11.2 7.313,19.741 13.355,28.562c5.716,8.342 9.587,19.413 13.662,28.567c4.321,9.7 8.275,19.613 12.333,29.375c1.95,4.683 3.788,9.542 5.642,14.454c1.779,4.729 6.246,9.871 6.733,14.842" style="fill:none;fill-rule:nonzero;stroke:#f0e5d8;stroke-width:29.17px;"/></g><g><path d="M2600.36,2299.51c-6.713,8.321 -7.284,25.279 -9.242,35.509c-1.979,10.362 -3.812,20.479 -5.596,30.887c-3.287,19.188 -8.733,40.542 -16.816,58.667" style="fill:none;fill-rule:nonzero;stroke:#f0e5d8;stroke-width:29.17px;"/></g><g><path d="M2501.54,2237.76c-21.225,11.192 -31.875,38.404 -50.175,53.075c-7.908,6.346 -17.254,11.692 -24.492,18.908c-6.504,6.496 -11.104,17.15 -18.741,22.2" style="fill:none;fill-rule:nonzero;stroke:#f0e5d8;stroke-width:29.17px;"/></g><g><path d="M2477.62,2134.31c-9.988,2.142 -20.613,-0.267 -30.671,-0.733c-11.137,-0.509 -21.946,-0.35 -32.787,0.691c-21.542,2.08 -43.421,0.888 -64.692,0.817" style="fill:none;fill-rule:nonzero;stroke:#f0e5d8;stroke-width:29.17px;"/></g><g><path d="M2622.75,1984.54c1.066,-8.942 -5.204,-20.541 -6.973,-29.336c-2.175,-10.846 -4.143,-21.25 -5.382,-32.386c-1.23,-11.031 -5.788,-21.592 -8.515,-32.46c-2.452,-9.788 -3.587,-20.214 -5.381,-30.108" style="fill:none;fill-rule:nonzero;stroke:#f0e5d8;stroke-width:29.17px;"/></g><g><path d="M2523.16,2031.63c-9.227,-9.89 -16.761,-21.568 -25.629,-31.442c-8.115,-9.032 -18.132,-15.68 -26.903,-23.969c-8.504,-8.031 -15.974,-15.487 -22.158,-24.856c-6.53,-9.88 -15.524,-20.99 -27.214,-24.721" style="fill:none;fill-rule:nonzero;stroke:#f0e5d8;stroke-width:29.17px;"/></g><g><path d="M108.455,1800.83c-9.85,-2.284 -19.317,-16.771 -15.359,-28.588c5.15,-15.362 28.78,-21.212 47.642,-21.171c27.533,0.054 43.004,3.946 43.004,-27.133c0,-19.188 -8.341,-36.459 2.209,-57.563c21.833,-43.671 48.258,-47.554 87.604,-51.616c46.104,-4.763 85.896,8.395 121.262,40.304c36.467,32.904 29.817,80.479 23.155,125.117c-3.496,23.42 -7.25,29.02 -23.684,46.987c-16.883,18.467 -36.796,36.654 2.513,35.05c47.767,-1.95 52.046,-40.575 157.033,-38.808c78.509,1.321 137.213,27.921 157.038,96.142c22.05,75.891 -10.383,115.695 -28.238,142.937c-18.241,27.838 -54.516,28.504 -140.921,37.35c-93.904,9.608 -187.741,29.55 -280.029,-4.696c-45.6,-16.925 -74.021,-41.487 -73.971,-90c0.025,-23.396 -2.396,-46.9 5.296,-68.946c6.267,-17.966 20.183,-32.254 26.542,-50.075c4.525,-12.687 5.195,-28.233 7.537,-41.962c-34.037,-19.767 -12.667,-34.813 -45.329,-13.029c-26.863,17.912 -56.454,19.191 -65.504,9.92c-10.584,-23.816 15.737,-29.904 36.391,-43.004c-5.325,-2.996 -16.02,1.196 -23.02,1.463l-21.171,1.321Z" style="fill:none;fill-rule:nonzero;stroke:#f0e5d8;stroke-width:29.17px;"/></g><g><path d="M262.704,1751.07c-13.296,0.349 -28.67,-11.472 -28.23,-33.529c0.44,-22.057 11.466,-28.231 24.259,-28.231c12.789,-0 22.939,11.03 22.936,27.351c0.001,16.321 -2.204,33.97 -18.965,34.409Z" style="fill:none;fill-rule:nonzero;stroke:#f0e5d8;stroke-width:29.17px;"/></g><g><path d="M236.109,868.72c11.617,-17.017 32.871,-55.142 39.9,-89.413c6.333,-30.892 8.271,-74.804 13.179,-105.883c9.209,-58.317 -1.525,-71.663 4.434,-131.363c4.741,-47.488 6.333,-100.346 3.125,-149.204c-20.759,27.366 -31.321,62.596 -73.463,57.375c-28.117,-3.484 -56.821,-43.642 -42.617,-79.521c-31.779,29.433 -58.216,33.258 -83.912,31.633c-21.738,-1.379 -42.471,-10.866 -56.675,-28.654c-24.192,-30.292 -3.671,-98.317 41.737,-96.121c-27.679,-19.333 -32.754,-67.212 -12.741,-93.142c15.675,-20.316 54.916,-43.058 89.57,-18.67c-19.275,-47.671 14.646,-92.446 54.096,-111.234c36.905,-17.575 91.384,-0.583 106.03,42.179c7.616,-65.608 49.791,-77.912 98.412,-71.862c54.863,6.821 80.579,52.162 80.217,100.183c26.837,-48.237 85.792,-35.121 110.362,-3.071c28.667,37.388 6.038,82.83 -32.541,98.109c41.879,8.254 91.321,48.575 57.1,102.321c-23.088,36.262 -79.525,45.254 -127.413,24.604c11.988,47.712 -13.621,95.337 -56.237,102.808c-39.363,6.896 -86.55,-9.666 -99.28,-44.712c-7.687,24.733 -1.041,68.687 0.425,96.204c1.563,29.371 2.863,59.533 5.267,88.575c4.825,58.238 4.829,102.508 20.217,158.254c10.425,37.75 26.312,83.363 49.646,115.984c-42.7,2.804 -55.18,-1.704 -97.592,4.45c-22.15,3.212 -91.246,0.171 -91.246,0.171Z" style="fill:none;fill-rule:nonzero;stroke:#f0e5d8;stroke-width:29.17px;"/></g><g><path d="M2635.86,941.463c38.516,-1.837 74.216,1.846 112.367,-4.008c36.058,-5.542 86.345,-8.75 122.037,-0.05c39.171,9.546 74.538,10.404 115.709,8.467c36.762,-1.738 133.837,0.45 142.383,1.733c-4.713,73.425 0.029,154.125 0.687,225.017c0.73,78.65 19.83,254.158 19.83,271.517c-37.938,0.891 -63.15,4.212 -101.884,4.108c-40.225,-0.108 -78.862,-2.421 -117.821,-6.262c-76.7,-7.563 -152.175,6.262 -229.383,6.262c-20.75,0 -50.538,3.342 -67.279,-6.312c-0,-0 -1.3,-143.925 4.675,-216.238c2.812,-34.004 -4.317,-66.467 -2.571,-101.458c1.746,-34.921 3.829,-70.326 2.112,-105.205c-0.962,-19.583 -3.396,-39.116 -3.183,-58.75c0.117,-9.983 0.033,-17.283 5.967,-25.325c6.133,-8.3 11.362,-17.233 17.72,-25.366c7.121,-9.105 14.725,-17.821 22.425,-25.796c15.8,-16.363 31.938,-33.6 44.2,-52.771c13.442,-21.013 23.459,-40.263 41.926,-58.213c8.533,-8.291 38.804,-42.9 46.091,-52.071c13.771,-17.312 77,-77.987 85.892,-83.908c9.508,5.617 26.746,37.996 31.346,47.708c4.862,10.259 35.425,46.417 51.817,61.763c8.712,8.158 69.733,92.217 83.091,110.462c11.525,15.746 46.242,60.821 52.442,68.255c4.142,4.971 8.033,13.196 11.908,22.3" style="fill:none;fill-rule:nonzero;stroke:#f0e5d8;stroke-width:29.17px;"/></g><g><path d="M2707.86,1189.58c0.504,-4.758 -3.096,-31.975 -2.788,-38.287c0.6,-12.267 2.738,-24.163 3.484,-36.2c0.704,-11.413 1.341,-25.125 -0.871,-36.201c-1.158,-5.812 -2.129,-25.816 2.433,-25.795c2.492,0.012 52.825,0.033 72.93,0.033c20.358,-0 40.691,-3.65 61.154,-2.679c0.446,5.516 3.875,27.496 3.587,33.312c-0.612,12.538 2.171,24.488 2.788,36.934c1.096,22.396 2.937,43.346 2.825,66.321c-23.088,-1.167 -39.4,-3.746 -62,-0.067c-12.659,2.058 -26.1,1.971 -39.004,2.629c-11.709,0.596 -23.988,1.513 -35.488,0l-9.05,0Z" style="fill:none;fill-rule:nonzero;stroke:#f0e5d8;stroke-width:29.17px;"/></g><g><path d="M2841.99,1442.71c-0.4,-18.755 -1.954,-28.075 -0.795,-39.321c1.354,-13.192 -0.155,-26.65 0.383,-39.8c1.071,-26 -1.371,-53.846 -2.883,-79.65c-0.496,-8.409 -1.317,-11.792 10.941,-11.725c7.5,0.041 14.063,2.2 21.238,2.025c17.25,-0.421 26.475,-0.484 41.621,-0.825c6.516,-0.146 15.145,-0.38 21.783,-0.78c7,-0.425 3.896,2.188 4.296,6.4c0.317,3.309 0.9,6.171 0.9,9.625c-0.013,14.305 -0.329,28.001 1.117,42.126c0.675,6.629 1.266,13.32 2.895,19.654c1.671,6.475 3.809,48.129 3.809,62.783c-0,10.646 0.604,21.033 0.604,31.492" style="fill:none;fill-rule:nonzero;stroke:#f0e5d8;stroke-width:29.17px;"/></g><g><path d="M3026.85,803.53c-0,-9.092 -1.821,-16.95 -0.5,-25.8c0.596,-4.004 -1.629,-22.929 -0.05,-25.771c3.066,-5.533 20.029,-2.362 25.275,-2.079c8.666,0.462 44.975,-4.375 48.387,4.733c3.109,8.288 0.529,75.329 0.529,84.684c0,23.137 4.209,44.891 4.209,67.854" style="fill:none;fill-rule:nonzero;stroke:#f0e5d8;stroke-width:29.17px;"/></g><g><path d="M3070.54,1051.11c-0.508,4.759 3.092,31.975 2.788,38.292c-0.604,12.263 -2.738,24.163 -3.484,36.2c-0.708,11.413 -1.341,25.121 0.867,36.2c1.163,5.808 2.129,25.813 -2.433,25.796c-2.492,-0.017 -52.821,-0.033 -72.921,-0.033c-20.363,-0 -40.7,3.645 -61.163,2.675c-0.446,-5.513 -3.871,-27.496 -3.583,-33.313c0.612,-12.537 -2.175,-24.487 -2.788,-36.933c-1.1,-22.396 -2.941,-43.346 -2.829,-66.317c23.092,1.162 39.4,3.746 62.005,0.067c12.654,-2.063 26.095,-1.975 39.008,-2.634c11.704,-0.596 23.983,-1.512 35.483,0l9.05,0Z" style="fill:none;fill-rule:nonzero;stroke:#f0e5d8;stroke-width:29.17px;"/></g></g></g></svg>