<?xml version="1.0" encoding="UTF-8" standalone="no"?><!DOCTYPE svg PUBLIC "-//W3C//DTD SVG 1.1//EN" "http://www.w3.org/Graphics/SVG/1.1/DTD/svg11.dtd"><svg width="100%" height="100%" viewBox="0 0 772 114" version="1.1" xmlns="http://www.w3.org/2000/svg" xmlns:xlink="http://www.w3.org/1999/xlink" xml:space="preserve" xmlns:serif="http://www.serif.com/" style="fill-rule:evenodd;clip-rule:evenodd;stroke-linejoin:round;stroke-miterlimit:2;"><path d="M771.642,0c-0,0 -550.69,0 -721.642,0c-27.614,0 -50,22.386 -50,50l0,63.708c0,-9.283 3.687,-18.185 10.251,-24.749c6.564,-6.564 15.466,-10.251 24.749,-10.251c43.533,-0 623.109,-0 666.642,-0c9.282,-0 18.185,-3.688 24.748,-10.251c6.564,-6.564 10.252,-15.466 10.252,-24.749l-0,-8.708c-0,-9.283 3.687,-18.185 10.251,-24.749c6.564,-6.564 15.466,-10.251 24.749,-10.251Z" style="fill:#fff;"/></svg>