<?xml version="1.0" encoding="UTF-8" standalone="no"?><!DOCTYPE svg PUBLIC "-//W3C//DTD SVG 1.1//EN" "http://www.w3.org/Graphics/SVG/1.1/DTD/svg11.dtd"><svg width="100%" height="100%" viewBox="0 0 254 114" version="1.1" xmlns="http://www.w3.org/2000/svg" xmlns:xlink="http://www.w3.org/1999/xlink" xml:space="preserve" xmlns:serif="http://www.serif.com/" style="fill-rule:evenodd;clip-rule:evenodd;stroke-linejoin:round;stroke-miterlimit:2;"><path id="Corner-S" d="M253.191,0c-0,0 -129.407,0 -203.191,0c-13.261,-0 -25.979,5.268 -35.355,14.645c-9.377,9.376 -14.645,22.094 -14.645,35.355c-0,30.517 0,63.708 0,63.708c0,-9.283 3.687,-18.185 10.251,-24.749c6.564,-6.564 15.466,-10.251 24.749,-10.251c43.533,-0 104.658,-0 148.191,-0c9.282,-0 18.185,-3.688 24.748,-10.251c6.564,-6.564 10.252,-15.466 10.252,-24.749l-0,-8.708c-0,-9.283 3.687,-18.185 10.251,-24.749c6.564,-6.564 15.466,-10.251 24.749,-10.251Z" style="fill:#fff;"/></svg>