<?xml version="1.0" encoding="UTF-8" standalone="no"?><!DOCTYPE svg PUBLIC "-//W3C//DTD SVG 1.1//EN" "http://www.w3.org/Graphics/SVG/1.1/DTD/svg11.dtd"><svg width="100%" height="100%" viewBox="0 0 641 385" version="1.1" xmlns="http://www.w3.org/2000/svg" xmlns:xlink="http://www.w3.org/1999/xlink" xml:space="preserve" xmlns:serif="http://www.serif.com/" style="fill-rule:evenodd;clip-rule:evenodd;stroke-linejoin:round;stroke-miterlimit:2;"><g id="Jugendamt"><g><rect x="97.783" y="146.21" width="443.777" height="154.473" style="fill:#f2f2f2;"/><path d="M541.561,146.21l-443.778,-0l0,154.473l443.778,-0l-0,-154.473Zm-5,5l-0,144.473c-0,-0 -433.778,-0 -433.778,-0c0,-0 0,-144.473 0,-144.473c0,-0 433.778,-0 433.778,-0l-0,-0Z" style="fill:#999;"/><rect x="102.955" y="146.21" width="433.434" height="27.483" style="fill:#cfcfcf;"/><path d="M473.75,61.672c-0.973,-1.099 -2.37,-1.727 -3.837,-1.727c-26.561,-0 -274.005,-0 -300.516,-0c-1.462,-0 -2.855,0.624 -3.827,1.716c-8.659,9.716 -51.155,57.406 -51.155,57.406l410.184,0c0,0 -42.218,-47.654 -50.849,-57.395Z" style="fill:#f2f2f2;"/><path d="M473.75,61.672c-0.973,-1.099 -2.37,-1.727 -3.837,-1.727c-26.561,-0 -274.005,-0 -300.516,-0c-1.462,-0 -2.855,0.624 -3.827,1.716c-8.659,9.716 -51.155,57.406 -51.155,57.406l410.184,0c0,0 -42.218,-47.654 -50.849,-57.395Zm-3.743,3.315l43.483,49.08c-0,0 -387.922,0 -387.922,0c-0,0 43.735,-49.08 43.735,-49.08c0.024,-0.027 0.058,-0.042 0.094,-0.042l300.516,-0c0.036,-0 0.071,0.015 0.094,0.042Z" style="fill:#999;"/><path d="M541.396,119.692c-0,-1.545 -0.614,-3.026 -1.706,-4.119c-1.093,-1.092 -2.575,-1.706 -4.12,-1.706c-48.432,-0 -383.694,-0 -432.126,-0c-1.545,-0 -3.027,0.614 -4.119,1.706c-1.093,1.093 -1.707,2.574 -1.707,4.119l0,21.309l443.778,0l-0,-21.309Z" style="fill:#f0e5d8;"/><path d="M541.396,119.692c-0,-1.545 -0.614,-3.026 -1.706,-4.119c-1.093,-1.092 -2.575,-1.706 -4.12,-1.706c-48.432,-0 -383.694,-0 -432.126,-0c-1.545,-0 -3.027,0.614 -4.119,1.706c-1.093,1.093 -1.707,2.574 -1.707,4.119l0,21.309l443.778,0l-0,-21.309Zm-5,0l-0,16.309c-45.564,0 -388.213,0 -433.778,0c0,0 0,-16.309 0,-16.309c0,-0.219 0.087,-0.429 0.242,-0.583c0.155,-0.155 0.365,-0.242 0.584,-0.242c48.432,-0 383.694,-0 432.126,-0c0.219,-0 0.429,0.087 0.584,0.242c0.155,0.154 0.242,0.364 0.242,0.583Z" style="fill:#b89c7a;"/><path d="M553.776,326.432c0,-2.778 -2.251,-5.029 -5.028,-5.029c-47.149,-0 -411.003,-0 -458.152,-0c-2.777,-0 -5.029,2.251 -5.029,5.029c0,14.924 0,57.933 0,57.933l468.209,-0l0,-57.933Z" style="fill:#e1ccb3;"/><path d="M553.776,326.432c0,-2.778 -2.251,-5.029 -5.028,-5.029c-47.149,-0 -411.003,-0 -458.152,-0c-2.777,-0 -5.029,2.251 -5.029,5.029c0,14.924 0,57.933 0,57.933l468.209,-0l0,-57.933Zm-5,-0l0,52.933c0,-0 -458.209,-0 -458.209,-0c0,-0 0,-52.933 0,-52.933c0,-0.016 0.013,-0.029 0.029,-0.029c0,-0 458.152,-0 458.152,-0c0.016,-0 0.028,0.013 0.028,0.029Z" style="fill:#b89c7a;"/><path d="M541.561,295.592l-443.778,-0l-12.216,30.993l468.209,0l-12.215,-30.993Z" style="fill:#f0e5d8;"/><path d="M541.561,295.592l-443.778,-0l-12.216,30.993l468.209,0l-12.215,-30.993Zm-3.404,5l8.274,20.994c0,-0.001 -453.519,-0.001 -453.519,-0.001c0,0.001 8.275,-20.993 8.275,-20.993c-0,-0 436.97,-0 436.97,-0l-0,-0Z" style="fill:#b89c7a;"/><path d="M541.561,151.6l-443.778,0c0,0 -4.266,-7.402 -7.755,-13.458c-0.921,-1.597 -0.92,-3.564 0.003,-5.16c0.922,-1.596 2.626,-2.58 4.469,-2.579c58.94,-0 391.403,-0 450.344,-0c1.843,-0.001 3.547,0.983 4.469,2.579c0.922,1.596 0.924,3.563 0.003,5.16c-3.49,6.056 -7.755,13.458 -7.755,13.458Z" style="fill:#f0e5d8;"/><path d="M541.561,151.6l-443.778,0c0,0 -4.266,-7.402 -7.755,-13.458c-0.921,-1.597 -0.92,-3.564 0.003,-5.16c0.922,-1.596 2.626,-2.58 4.469,-2.579c58.94,-0 391.403,-0 450.344,-0c1.843,-0.001 3.547,0.983 4.469,2.579c0.922,1.596 0.924,3.563 0.003,5.16c-3.49,6.056 -7.755,13.458 -7.755,13.458Zm-2.89,-5c-36.238,0 -401.761,0 -437.998,0c-0,0 -6.313,-10.954 -6.313,-10.954c-0.029,-0.051 -0.029,-0.112 -0,-0.162c0.029,-0.051 0.082,-0.081 0.14,-0.081l450.344,-0c0.057,-0 0.111,0.03 0.14,0.081c0.029,0.05 0.029,0.111 0,0.162l-6.313,10.954Z" style="fill:#b89c7a;"/><path d="M514.746,212.713c-0,-1.355 -0.539,-2.656 -1.497,-3.615c-0.959,-0.958 -2.26,-1.497 -3.615,-1.497c-5.306,0 -13.557,0 -18.862,0c-1.356,0 -2.657,0.539 -3.615,1.497c-0.959,0.959 -1.498,2.26 -1.498,3.615c0,10.753 0,35.603 0,46.356c0,1.355 0.539,2.656 1.498,3.615c0.958,0.958 2.259,1.497 3.615,1.497c5.305,-0 13.556,-0 18.862,-0c1.355,-0 2.656,-0.539 3.615,-1.497c0.958,-0.959 1.497,-2.26 1.497,-3.615c-0,-10.753 -0,-35.603 -0,-46.356Z" style="fill:url(#_Linear1);"/><path d="M514.746,212.713c-0,-1.355 -0.539,-2.656 -1.497,-3.615c-0.959,-0.958 -2.26,-1.497 -3.615,-1.497c-5.306,0 -13.557,0 -18.862,0c-1.356,0 -2.657,0.539 -3.615,1.497c-0.959,0.959 -1.498,2.26 -1.498,3.615c0,10.753 0,35.603 0,46.356c0,1.355 0.539,2.656 1.498,3.615c0.958,0.958 2.259,1.497 3.615,1.497c5.305,-0 13.556,-0 18.862,-0c1.355,-0 2.656,-0.539 3.615,-1.497c0.958,-0.959 1.497,-2.26 1.497,-3.615c-0,-10.753 -0,-35.603 -0,-46.356Zm-5,0l-0,46.356c-0,0.029 -0.012,0.058 -0.033,0.079c-0.021,0.021 -0.05,0.033 -0.079,0.033l-18.862,-0c-0.03,-0 -0.059,-0.012 -0.08,-0.033c-0.021,-0.021 -0.033,-0.05 -0.033,-0.079c0,-0.001 0,-46.356 0,-46.356c0,-0.029 0.012,-0.058 0.033,-0.079c0.021,-0.021 0.05,-0.033 0.08,-0.033l18.862,0c0.029,0 0.058,0.012 0.079,0.033c0.021,0.021 0.033,0.05 0.033,0.079Z" style="fill:#999;"/><path d="M153.355,212.713c0,-1.355 -0.538,-2.656 -1.497,-3.615c-0.959,-0.958 -2.259,-1.497 -3.615,-1.497c-5.306,0 -13.556,0 -18.862,0c-1.356,0 -2.656,0.539 -3.615,1.497c-0.959,0.959 -1.498,2.26 -1.498,3.615c0,10.753 0,35.603 0,46.356c0,1.355 0.539,2.656 1.498,3.615c0.959,0.958 2.259,1.497 3.615,1.497c5.306,-0 13.556,-0 18.862,-0c1.356,-0 2.656,-0.539 3.615,-1.497c0.959,-0.959 1.497,-2.26 1.497,-3.615c0,-10.753 0,-35.603 0,-46.356Z" style="fill:url(#_Linear2);"/><path d="M153.355,212.713c0,-1.355 -0.538,-2.656 -1.497,-3.615c-0.959,-0.958 -2.259,-1.497 -3.615,-1.497c-5.306,0 -13.556,0 -18.862,0c-1.356,0 -2.656,0.539 -3.615,1.497c-0.959,0.959 -1.498,2.26 -1.498,3.615c0,10.753 0,35.603 0,46.356c0,1.355 0.539,2.656 1.498,3.615c0.959,0.958 2.259,1.497 3.615,1.497c5.306,-0 13.556,-0 18.862,-0c1.356,-0 2.656,-0.539 3.615,-1.497c0.959,-0.959 1.497,-2.26 1.497,-3.615c0,-10.753 0,-35.603 0,-46.356Zm-5,0l0,46.356c0,0.029 -0.012,0.058 -0.033,0.079c-0.021,0.021 -0.049,0.033 -0.079,0.033l-18.862,-0c-0.03,-0 -0.059,-0.012 -0.08,-0.033c-0.021,-0.021 -0.033,-0.05 -0.033,-0.079c0,-0.001 0,-46.356 0,-46.356c0,-0.029 0.012,-0.058 0.033,-0.079c0.021,-0.021 0.05,-0.033 0.08,-0.033l18.862,0c0.03,0 0.058,0.012 0.079,0.033c0.021,0.021 0.033,0.05 0.033,0.079Z" style="fill:#999;"/><path d="M526.133,149.148c-0,-0.689 -0.274,-1.35 -0.761,-1.837c-0.488,-0.487 -1.148,-0.761 -1.837,-0.761c-0,0 -0,0 -0,0c-0.69,0 -1.35,0.274 -1.838,0.761c-0.487,0.487 -0.761,1.148 -0.761,1.837c0,2.518 0,6.314 0,8.832c0,0.689 0.274,1.35 0.761,1.837c0.488,0.487 1.148,0.761 1.838,0.761c-0,-0 -0,-0 -0,-0c0.689,-0 1.349,-0.274 1.837,-0.761c0.487,-0.487 0.761,-1.148 0.761,-1.837c-0,-2.518 -0,-6.314 -0,-8.832Z" style="fill:#e1ccb3;"/><path d="M526.133,149.148c-0,-0.689 -0.274,-1.35 -0.761,-1.837c-0.488,-0.487 -1.148,-0.761 -1.837,-0.761c-0,0 -0,0 -0,0c-0.69,0 -1.35,0.274 -1.838,0.761c-0.487,0.487 -0.761,1.148 -0.761,1.837c0,2.518 0,6.314 0,8.832c0,0.689 0.274,1.35 0.761,1.837c0.488,0.487 1.148,0.761 1.838,0.761c-0,-0 -0,-0 -0,-0c0.689,-0 1.349,-0.274 1.837,-0.761c0.487,-0.487 0.761,-1.148 0.761,-1.837c-0,-2.518 -0,-6.314 -0,-8.832Z" style="fill:#b89c7a;"/><path d="M114.048,149.148c0,-0.689 0.274,-1.35 0.761,-1.837c0.487,-0.487 1.148,-0.761 1.837,-0.761c0,0 0,0 0,0c0.689,0 1.35,0.274 1.837,0.761c0.488,0.487 0.761,1.148 0.761,1.837c0,2.518 0,6.314 0,8.832c0,0.689 -0.273,1.35 -0.761,1.837c-0.487,0.487 -1.148,0.761 -1.837,0.761c0,-0 0,-0 0,-0c-0.689,-0 -1.35,-0.274 -1.837,-0.761c-0.487,-0.487 -0.761,-1.148 -0.761,-1.837c0,-2.518 0,-6.314 0,-8.832Z" style="fill:#e1ccb3;"/><path d="M114.048,149.148c0,-0.689 0.274,-1.35 0.761,-1.837c0.487,-0.487 1.148,-0.761 1.837,-0.761c0,0 0,0 0,0c0.689,0 1.35,0.274 1.837,0.761c0.488,0.487 0.761,1.148 0.761,1.837c0,2.518 0,6.314 0,8.832c0,0.689 -0.273,1.35 -0.761,1.837c-0.487,0.487 -1.148,0.761 -1.837,0.761c0,-0 0,-0 0,-0c-0.689,-0 -1.35,-0.274 -1.837,-0.761c-0.487,-0.487 -0.761,-1.148 -0.761,-1.837c0,-2.518 0,-6.314 0,-8.832Z" style="fill:#b89c7a;"/><path d="M526.133,289.253c-0,-0.689 -0.274,-1.349 -0.761,-1.837c-0.488,-0.487 -1.148,-0.761 -1.837,-0.761c-0,0 -0,0 -0,0c-0.69,0 -1.35,0.274 -1.838,0.761c-0.487,0.488 -0.761,1.148 -0.761,1.837c0,2.518 0,6.315 0,8.832c0,0.689 0.274,1.35 0.761,1.837c0.488,0.487 1.148,0.761 1.838,0.761c-0,-0 -0,-0 -0,-0c0.689,-0 1.349,-0.274 1.837,-0.761c0.487,-0.487 0.761,-1.148 0.761,-1.837c-0,-2.517 -0,-6.314 -0,-8.832Z" style="fill:#e1ccb3;"/><path d="M526.133,289.253c-0,-0.689 -0.274,-1.349 -0.761,-1.837c-0.488,-0.487 -1.148,-0.761 -1.837,-0.761c-0,0 -0,0 -0,0c-0.69,0 -1.35,0.274 -1.838,0.761c-0.487,0.488 -0.761,1.148 -0.761,1.837c0,2.518 0,6.315 0,8.832c0,0.689 0.274,1.35 0.761,1.837c0.488,0.487 1.148,0.761 1.838,0.761c-0,-0 -0,-0 -0,-0c0.689,-0 1.349,-0.274 1.837,-0.761c0.487,-0.487 0.761,-1.148 0.761,-1.837c-0,-2.517 -0,-6.314 -0,-8.832Z" style="fill:#b89c7a;"/><path d="M114.048,289.253c0,-0.689 0.274,-1.349 0.761,-1.837c0.487,-0.487 1.148,-0.761 1.837,-0.761c0,0 0,0 0,0c0.689,0 1.35,0.274 1.837,0.761c0.488,0.488 0.761,1.148 0.761,1.837c0,2.518 0,6.315 0,8.832c0,0.689 -0.273,1.35 -0.761,1.837c-0.487,0.487 -1.148,0.761 -1.837,0.761c0,-0 0,-0 0,-0c-0.689,-0 -1.35,-0.274 -1.837,-0.761c-0.487,-0.487 -0.761,-1.148 -0.761,-1.837c0,-2.517 0,-6.314 0,-8.832Z" style="fill:#e1ccb3;"/><path d="M114.048,289.253c0,-0.689 0.274,-1.349 0.761,-1.837c0.487,-0.487 1.148,-0.761 1.837,-0.761c0,0 0,0 0,0c0.689,0 1.35,0.274 1.837,0.761c0.488,0.488 0.761,1.148 0.761,1.837c0,2.518 0,6.315 0,8.832c0,0.689 -0.273,1.35 -0.761,1.837c-0.487,0.487 -1.148,0.761 -1.837,0.761c0,-0 0,-0 0,-0c-0.689,-0 -1.35,-0.274 -1.837,-0.761c-0.487,-0.487 -0.761,-1.148 -0.761,-1.837c0,-2.517 0,-6.314 0,-8.832Z" style="fill:#b89c7a;"/><path d="M478.491,289.253c0,-0.689 -0.274,-1.349 -0.761,-1.837c-0.487,-0.487 -1.148,-0.761 -1.837,-0.761c0,0 0,0 0,0c-0.689,0 -1.35,0.274 -1.837,0.761c-0.487,0.488 -0.761,1.148 -0.761,1.837c0,2.518 0,6.315 0,8.832c0,0.689 0.274,1.35 0.761,1.837c0.487,0.487 1.148,0.761 1.837,0.761c0,-0 0,-0 0,-0c0.689,-0 1.35,-0.274 1.837,-0.761c0.487,-0.487 0.761,-1.148 0.761,-1.837c0,-2.517 0,-6.314 0,-8.832Z" style="fill:#e1ccb3;"/><path d="M478.491,289.253c0,-0.689 -0.274,-1.349 -0.761,-1.837c-0.487,-0.487 -1.148,-0.761 -1.837,-0.761c0,0 0,0 0,0c-0.689,0 -1.35,0.274 -1.837,0.761c-0.487,0.488 -0.761,1.148 -0.761,1.837c0,2.518 0,6.315 0,8.832c0,0.689 0.274,1.35 0.761,1.837c0.487,0.487 1.148,0.761 1.837,0.761c0,-0 0,-0 0,-0c0.689,-0 1.35,-0.274 1.837,-0.761c0.487,-0.487 0.761,-1.148 0.761,-1.837c0,-2.517 0,-6.314 0,-8.832Z" style="fill:#b89c7a;"/><path d="M161.69,289.253c-0,-0.689 0.273,-1.349 0.761,-1.837c0.487,-0.487 1.148,-0.761 1.837,-0.761c-0,0 -0,0 -0,0c0.689,0 1.35,0.274 1.837,0.761c0.487,0.488 0.761,1.148 0.761,1.837c-0,2.518 -0,6.315 -0,8.832c-0,0.689 -0.274,1.35 -0.761,1.837c-0.487,0.487 -1.148,0.761 -1.837,0.761c-0,-0 -0,-0 -0,-0c-0.689,-0 -1.35,-0.274 -1.837,-0.761c-0.488,-0.487 -0.761,-1.148 -0.761,-1.837c-0,-2.517 -0,-6.314 -0,-8.832Z" style="fill:#e1ccb3;"/><path d="M161.69,289.253c-0,-0.689 0.273,-1.349 0.761,-1.837c0.487,-0.487 1.148,-0.761 1.837,-0.761c-0,0 -0,0 -0,0c0.689,0 1.35,0.274 1.837,0.761c0.487,0.488 0.761,1.148 0.761,1.837c-0,2.518 -0,6.315 -0,8.832c-0,0.689 -0.274,1.35 -0.761,1.837c-0.487,0.487 -1.148,0.761 -1.837,0.761c-0,-0 -0,-0 -0,-0c-0.689,-0 -1.35,-0.274 -1.837,-0.761c-0.488,-0.487 -0.761,-1.148 -0.761,-1.837c-0,-2.517 -0,-6.314 -0,-8.832Z" style="fill:#b89c7a;"/></g><g><rect x="190.492" y="164.292" width="258.359" height="171.821" style="fill:#dedede;"/><rect x="190.492" y="164.292" width="258.359" height="114.628" style="fill:#d0d0d0;"/><rect x="190.492" y="164.292" width="258.359" height="62.138" style="fill:#c3c3c3;"/><path d="M319.507,21.877l164.49,96.778l-328.979,0l164.489,-96.778Z" style="fill:#cfcfcf;"/><path d="M319.507,56.163l106.916,62.904l-213.831,0l106.915,-62.904Z" style="fill:#f2f2f2;"/><rect x="175.805" y="180.573" width="28.363" height="140.726" style="fill:#f0e5d8;"/><path d="M204.168,180.573l-28.363,-0l-0,140.726l28.363,-0l-0,-140.726Zm-5,5l-0,130.726c-0,-0 -18.363,-0 -18.363,-0c-0,-0 -0,-130.726 -0,-130.726l18.363,-0Z" style="fill:#b89c7a;"/><rect x="240.565" y="180.573" width="28.363" height="140.726" style="fill:#f0e5d8;"/><path d="M268.928,180.573l-28.363,-0l0,140.726l28.363,-0l0,-140.726Zm-5,5l0,130.726c0,-0 -18.363,-0 -18.363,-0c0,-0 0,-130.726 0,-130.726l18.363,-0Z" style="fill:#b89c7a;"/><rect x="305.326" y="180.573" width="28.363" height="140.726" style="fill:#f0e5d8;"/><path d="M333.689,180.573l-28.363,-0l-0,140.726l28.363,-0l-0,-140.726Zm-5,5l-0,130.726c-0,-0 -18.363,-0 -18.363,-0c-0,-0 -0,-130.726 -0,-130.726l18.363,-0Z" style="fill:#b89c7a;"/><rect x="370.086" y="180.573" width="28.363" height="140.726" style="fill:#f0e5d8;"/><path d="M398.449,180.573l-28.363,-0l0,140.726l28.363,-0l0,-140.726Zm-5,5l0,130.726c0,-0 -18.363,-0 -18.363,-0c0,-0 0,-130.726 0,-130.726l18.363,-0Z" style="fill:#b89c7a;"/><rect x="434.847" y="180.573" width="28.363" height="140.726" style="fill:#f0e5d8;"/><path d="M463.21,180.573l-28.363,-0l-0,140.726l28.363,-0l-0,-140.726Zm-5,5l-0,130.726c-0,-0 -18.363,-0 -18.363,-0c-0,-0 -0,-130.726 -0,-130.726l18.363,-0Z" style="fill:#b89c7a;"/><rect x="180.983" y="180.573" width="18.007" height="34.216" style="fill:#e1ccb3;"/><rect x="245.743" y="180.573" width="18.007" height="34.216" style="fill:#e1ccb3;"/><rect x="310.504" y="180.573" width="18.007" height="34.216" style="fill:#e1ccb3;"/><rect x="375.264" y="180.573" width="18.007" height="34.216" style="fill:#e1ccb3;"/><rect x="440.025" y="180.573" width="18.007" height="34.216" style="fill:#e1ccb3;"/><path d="M204.168,316.108l-28.363,-0l-10.039,20.955l48.441,0l-10.039,-20.955Z" style="fill:#f0e5d8;"/><path d="M204.168,316.108l-28.363,-0l-10.039,20.955l48.441,0l-10.039,-20.955Zm-3.149,5l5.248,10.955c0,0 -32.562,0 -32.562,0c0,0 5.248,-10.955 5.248,-10.955l22.066,-0Z" style="fill:#b89c7a;"/><path d="M268.928,316.108l-28.363,-0l-10.039,20.955l48.441,0l-10.039,-20.955Z" style="fill:#f0e5d8;"/><path d="M268.928,316.108l-28.363,-0l-10.039,20.955l48.441,0l-10.039,-20.955Zm-3.149,5l5.249,10.955c-0,0 -32.562,0 -32.562,0c-0,0 5.248,-10.955 5.248,-10.955l22.065,-0Z" style="fill:#b89c7a;"/><path d="M333.689,316.108l-28.363,-0l-10.039,20.955l48.441,0l-10.039,-20.955Z" style="fill:#f0e5d8;"/><path d="M333.689,316.108l-28.363,-0l-10.039,20.955l48.441,0l-10.039,-20.955Zm-3.149,5l5.248,10.955c0,0 -32.562,0 -32.562,0c0,0 5.248,-10.955 5.248,-10.955l22.066,-0Z" style="fill:#b89c7a;"/><path d="M398.449,316.108l-28.363,-0l-10.039,20.955l48.441,0l-10.039,-20.955Z" style="fill:#f0e5d8;"/><path d="M398.449,316.108l-28.363,-0l-10.039,20.955l48.441,0l-10.039,-20.955Zm-3.149,5l5.249,10.955c-0,0 -32.562,0 -32.562,0c-0,0 5.248,-10.955 5.248,-10.955l22.065,-0Z" style="fill:#b89c7a;"/><path d="M463.21,316.108l-28.363,-0l-10.039,20.955l48.44,0l-10.038,-20.955Z" style="fill:#f0e5d8;"/><path d="M463.21,316.108l-28.363,-0l-10.039,20.955l48.44,0l-10.038,-20.955Zm-3.149,5l5.248,10.955c0,0 -32.562,0 -32.562,0c0,0 5.248,-10.955 5.248,-10.955l22.066,-0Z" style="fill:#b89c7a;"/><path d="M214.207,179.709c-0,-6.201 -5.035,-11.236 -11.236,-11.236l-25.969,-0c-6.201,-0 -11.236,5.035 -11.236,11.236c-0,6.201 5.035,11.236 11.236,11.236l25.969,-0c6.201,-0 11.236,-5.035 11.236,-11.236Z" style="fill:#e1ccb3;"/><path d="M214.207,179.709c-0,-6.201 -5.035,-11.236 -11.236,-11.236l-25.969,-0c-6.201,-0 -11.236,5.035 -11.236,11.236c-0,6.201 5.035,11.236 11.236,11.236l25.969,-0c6.201,-0 11.236,-5.035 11.236,-11.236Zm-5,-0c-0,3.442 -2.795,6.236 -6.236,6.236l-25.969,-0c-3.442,-0 -6.236,-2.794 -6.236,-6.236c-0,-3.442 2.794,-6.236 6.236,-6.236l25.969,-0c3.441,-0 6.236,2.794 6.236,6.236Z" style="fill:#b89c7a;"/><path d="M278.967,179.709c0,-6.201 -5.035,-11.236 -11.236,-11.236l-25.969,-0c-6.201,-0 -11.236,5.035 -11.236,11.236c0,6.201 5.035,11.236 11.236,11.236l25.969,-0c6.201,-0 11.236,-5.035 11.236,-11.236Z" style="fill:#e1ccb3;"/><path d="M278.967,179.709c0,-6.201 -5.035,-11.236 -11.236,-11.236l-25.969,-0c-6.201,-0 -11.236,5.035 -11.236,11.236c0,6.201 5.035,11.236 11.236,11.236l25.969,-0c6.201,-0 11.236,-5.035 11.236,-11.236Zm-5,-0c0,3.442 -2.794,6.236 -6.236,6.236l-25.969,-0c-3.441,-0 -6.236,-2.794 -6.236,-6.236c0,-3.442 2.795,-6.236 6.236,-6.236l25.969,-0c3.442,-0 6.236,2.794 6.236,6.236Z" style="fill:#b89c7a;"/><path d="M343.728,179.709c-0,-6.201 -5.035,-11.236 -11.236,-11.236l-25.969,-0c-6.201,-0 -11.236,5.035 -11.236,11.236c-0,6.201 5.035,11.236 11.236,11.236l25.969,-0c6.201,-0 11.236,-5.035 11.236,-11.236Z" style="fill:#e1ccb3;"/><path d="M343.728,179.709c-0,-6.201 -5.035,-11.236 -11.236,-11.236l-25.969,-0c-6.201,-0 -11.236,5.035 -11.236,11.236c-0,6.201 5.035,11.236 11.236,11.236l25.969,-0c6.201,-0 11.236,-5.035 11.236,-11.236Zm-5,-0c-0,3.442 -2.795,6.236 -6.236,6.236l-25.969,-0c-3.442,-0 -6.236,-2.794 -6.236,-6.236c-0,-3.442 2.794,-6.236 6.236,-6.236l25.969,-0c3.441,-0 6.236,2.794 6.236,6.236Z" style="fill:#b89c7a;"/><path d="M408.488,179.709c-0,-6.201 -5.035,-11.236 -11.236,-11.236l-25.969,-0c-6.201,-0 -11.236,5.035 -11.236,11.236c0,6.201 5.035,11.236 11.236,11.236l25.969,-0c6.201,-0 11.236,-5.035 11.236,-11.236Z" style="fill:#e1ccb3;"/><path d="M408.488,179.709c-0,-6.201 -5.035,-11.236 -11.236,-11.236l-25.969,-0c-6.201,-0 -11.236,5.035 -11.236,11.236c0,6.201 5.035,11.236 11.236,11.236l25.969,-0c6.201,-0 11.236,-5.035 11.236,-11.236Zm-5,-0c-0,3.442 -2.794,6.236 -6.236,6.236l-25.969,-0c-3.441,-0 -6.236,-2.794 -6.236,-6.236c0,-3.442 2.795,-6.236 6.236,-6.236l25.969,-0c3.442,-0 6.236,2.794 6.236,6.236Z" style="fill:#b89c7a;"/><path d="M473.248,179.709c0,-6.201 -5.034,-11.236 -11.235,-11.236l-25.969,-0c-6.202,-0 -11.236,5.035 -11.236,11.236c-0,6.201 5.034,11.236 11.236,11.236l25.969,-0c6.201,-0 11.235,-5.035 11.235,-11.236Z" style="fill:#e1ccb3;"/><path d="M473.248,179.709c0,-6.201 -5.034,-11.236 -11.235,-11.236l-25.969,-0c-6.202,-0 -11.236,5.035 -11.236,11.236c-0,6.201 5.034,11.236 11.236,11.236l25.969,-0c6.201,-0 11.235,-5.035 11.235,-11.236Zm-5,-0c0,3.442 -2.794,6.236 -6.235,6.236l-25.969,-0c-3.442,-0 -6.236,-2.794 -6.236,-6.236c-0,-3.442 2.794,-6.236 6.236,-6.236l25.969,-0c3.441,-0 6.235,2.794 6.235,6.236Z" style="fill:#b89c7a;"/><path d="M198.945,332.037l-40.017,0c-3.049,0 -5.52,2.472 -5.52,5.52c0,9.986 0,30.024 0,30.024l45.537,0l-0,-35.544Z" style="fill:#f2f2f2;"/><path d="M198.945,332.037l-40.017,0c-3.049,0 -5.52,2.472 -5.52,5.52c0,9.986 0,30.024 0,30.024l45.537,0l-0,-35.544Zm-5,5l-0,25.544c-0,0 -35.537,0 -35.537,0c0,0 0,-25.024 0,-25.024c0,-0.287 0.233,-0.52 0.52,-0.52l35.017,0Z" style="fill:#999;"/><path d="M192.015,361.35l-43.057,0c-2.813,0 -5.094,2.28 -5.094,5.093c0,6.779 0,17.922 0,17.922l48.151,-0l0,-23.015Z" style="fill:#cfcfcf;"/><path d="M192.015,361.35l-43.057,0c-2.813,0 -5.094,2.28 -5.094,5.093c0,6.779 0,17.922 0,17.922l48.151,-0l0,-23.015Zm-5,5l0,13.015c0,-0 -38.151,-0 -38.151,-0c0,-0 0,-12.922 0,-12.922c0,-0.051 0.042,-0.093 0.093,-0.093l38.058,0Z" style="fill:#999;"/><path d="M485.936,337.557c-0,-3.048 -2.472,-5.52 -5.52,-5.52c-12.126,0 -40.017,0 -40.017,0l-0,35.544l45.537,0l-0,-30.024Z" style="fill:#f2f2f2;"/><path d="M485.936,337.557c-0,-3.048 -2.472,-5.52 -5.52,-5.52l-40.017,0l-0,35.544l45.537,0l-0,-30.024Zm-5,0l-0,25.024c-0,0 -35.537,0 -35.537,0c-0,0 -0,-25.544 -0,-25.544c-0,0 35.017,0 35.017,0c0.287,0 0.52,0.233 0.52,0.52Z" style="fill:#999;"/><path d="M495.479,366.443c0,-2.813 -2.28,-5.093 -5.093,-5.093c-12.383,0 -43.057,0 -43.057,0l-0,23.015l48.15,-0c0,-0 0,-11.143 0,-17.922Z" style="fill:#cfcfcf;"/><path d="M495.479,366.443c0,-2.813 -2.28,-5.093 -5.093,-5.093c-12.383,0 -43.057,0 -43.057,0l-0,23.015l48.15,-0l0,-17.922Zm-5,0l0,12.922c0,-0 -38.15,-0 -38.15,-0c-0,-0 -0,-13.015 -0,-13.015c-0,0 38.057,0 38.057,0c0.052,0 0.093,0.042 0.093,0.093Z" style="fill:#999;"/><path d="M485.659,154.891l-332.304,-0l16.522,18.802l299.26,0l16.522,-18.802Z" style="fill:#f0e5d8;"/><path d="M485.659,154.891l-332.304,-0l16.522,18.802l299.26,0l16.522,-18.802Zm-11.05,5l-7.735,8.802c0,0 -294.734,0 -294.734,0c-0,0 -7.735,-8.802 -7.735,-8.802l310.204,-0Z" style="fill:#b89c7a;"/><path d="M485.659,132.182l-332.304,0l0,23.094c0,1.316 0.523,2.578 1.453,3.508c0.931,0.931 2.193,1.453 3.509,1.453c38.135,0 284.245,0 322.381,0c1.316,0 2.578,-0.522 3.508,-1.453c0.93,-0.93 1.453,-2.192 1.453,-3.508c0,-8.057 0,-23.094 0,-23.094Z" style="fill:#e1ccb3;"/><path d="M485.659,132.182l-332.304,0l0,23.094c0,1.316 0.523,2.578 1.453,3.508c0.931,0.931 2.193,1.453 3.509,1.453c38.135,0 284.245,0 322.381,0c1.316,0 2.578,-0.522 3.508,-1.453c0.93,-0.93 1.453,-2.192 1.453,-3.508c0,-8.057 0,-23.094 0,-23.094Zm-327.304,23.055l0,-18.055l322.304,0l0,18.055l-322.304,0Z" style="fill:#b89c7a;"/><path d="M485.659,122.028c0,-1.337 -0.531,-2.619 -1.476,-3.565c-0.946,-0.945 -2.228,-1.476 -3.565,-1.476c-38.37,-0 -283.851,-0 -322.222,-0c-1.337,-0 -2.619,0.531 -3.564,1.476c-0.946,0.946 -1.477,2.228 -1.477,3.565c0,5.977 0,15.136 0,15.136l332.304,0l0,-15.136Z" style="fill:#f0e5d8;"/><path d="M485.659,122.028c0,-1.337 -0.531,-2.619 -1.476,-3.565c-0.946,-0.945 -2.228,-1.476 -3.565,-1.476c-38.37,-0 -283.851,-0 -322.222,-0c-1.337,-0 -2.619,0.531 -3.564,1.476c-0.946,0.946 -1.477,2.228 -1.477,3.565c0,5.977 0,15.136 0,15.136l332.304,0l0,-15.136Zm-5,-0l0,10.136c0,0 -281.161,0 -322.304,0c0,0 0,-10.136 0,-10.136c0,-0.011 0.004,-0.021 0.012,-0.029c0.008,-0.008 0.018,-0.012 0.029,-0.012l322.222,-0c0.011,-0 0.021,0.004 0.029,0.012c0.008,0.008 0.012,0.018 0.012,0.029Z" style="fill:#b89c7a;"/><path d="M322.026,1.474c-1.581,-0.912 -3.529,-0.912 -5.111,0.001c-19.526,11.274 -145.038,83.738 -170.021,98.162c-2.386,1.378 -3.204,4.429 -1.826,6.816c1.769,3.064 4.133,7.158 5.897,10.213c1.366,2.366 4.39,3.176 6.756,1.811c24.074,-13.9 142.089,-82.036 159.639,-92.168c1.351,-0.78 3.016,-0.78 4.368,-0c17.55,10.132 135.565,78.268 159.639,92.168c2.366,1.365 5.39,0.555 6.756,-1.811c1.764,-3.055 4.127,-7.148 5.896,-10.212c0.662,-1.146 0.841,-2.508 0.498,-3.787c-0.343,-1.278 -1.18,-2.368 -2.326,-3.029c-25.002,-14.423 -150.628,-86.893 -170.165,-98.164Z" style="fill:#f0e5d8;"/><path d="M322.026,1.474c-1.581,-0.912 -3.529,-0.912 -5.111,0.001c-19.526,11.274 -145.038,83.738 -170.021,98.162c-2.386,1.378 -3.204,4.429 -1.826,6.816c1.769,3.064 4.133,7.158 5.897,10.213c1.366,2.366 4.39,3.176 6.756,1.811c24.074,-13.9 142.089,-82.036 159.639,-92.168c1.351,-0.78 3.016,-0.78 4.368,-0c17.55,10.132 135.565,78.268 159.639,92.168c2.366,1.365 5.39,0.555 6.756,-1.811c1.764,-3.055 4.127,-7.148 5.896,-10.212c0.662,-1.146 0.841,-2.508 0.498,-3.787c-0.343,-1.278 -1.18,-2.368 -2.326,-3.029c-25.002,-14.423 -150.628,-86.893 -170.165,-98.164Zm167.657,102.489l-5.863,10.156l-159.592,-92.14c-2.899,-1.674 -6.47,-1.674 -9.368,-0l-159.592,92.14l-5.865,-10.157l170.012,-98.157c0.035,-0.02 0.078,-0.02 0.113,0l170.155,98.158Z" style="fill:#b89c7a;"/><circle cx="319.544" cy="77.235" r="30.531" style="fill:#f2f2f2;"/><path d="M319.544,46.704c16.85,0 30.53,13.681 30.53,30.531c0,16.85 -13.68,30.531 -30.53,30.531c-16.85,-0 -30.531,-13.681 -30.531,-30.531c0,-16.85 13.681,-30.531 30.531,-30.531Zm-0,5c14.091,0 25.53,11.44 25.53,25.531c0,14.091 -11.439,25.531 -25.53,25.531c-14.091,-0 -25.531,-11.44 -25.531,-25.531c0,-14.091 11.44,-25.531 25.531,-25.531Z" style="fill:#999;"/><rect x="193.772" y="332.037" width="251.543" height="16.784" style="fill:#cfcfcf;"/><path d="M445.315,332.037l-251.543,0l0,16.784l251.543,0l0,-16.784Zm-5,5l0,6.784c0,0 -206.573,0 -241.543,0c0,0 0,-6.784 0,-6.784c0,0 241.543,0 241.543,0l0,0Z" style="fill:#999;"/><rect x="193.772" y="344.035" width="251.543" height="16.784" style="fill:#cfcfcf;"/><path d="M445.315,344.035l-251.543,0l0,16.784l251.543,-0l0,-16.784Zm-5,5l0,6.784c0,-0 -241.543,-0 -241.543,-0c0,-0 0,-6.784 0,-6.784c0,0 241.543,0 241.543,0l0,0Z" style="fill:#999;"/><path d="M445.315,355.815l-251.543,-0l-11.997,16.783l275.538,0l-11.998,-16.783Z" style="fill:#f2f2f2;"/><path d="M445.315,355.815l-251.543,-0l-11.997,16.783l275.538,0l-11.998,-16.783Zm-2.572,5l4.85,6.783c-0,0 -256.098,0 -256.098,0c0,0 4.849,-6.783 4.849,-6.783c0,-0 246.399,-0 246.399,-0l0,-0Z" style="fill:#999;"/><path d="M453.281,367.581l-267.474,0l-12.758,16.784l292.99,-0l-12.758,-16.784Z" style="fill:#f2f2f2;"/><path d="M453.281,367.581l-267.474,0l-12.758,16.784l292.99,-0l-12.758,-16.784Zm-2.48,5l5.157,6.784c-0,-0 -272.828,-0 -272.828,-0c0,-0 5.157,-6.784 5.157,-6.784c-0,0 262.514,0 262.514,0l0,0Z" style="fill:#999;"/><path d="M224.956,134.78c0,-0.689 -0.273,-1.35 -0.76,-1.837c-0.488,-0.487 -1.149,-0.761 -1.838,-0.761c0,0 0,0 0,0c-0.689,0 -1.35,0.274 -1.837,0.761c-0.487,0.487 -0.761,1.148 -0.761,1.837c0,2.518 0,6.314 0,8.832c0,0.689 0.274,1.35 0.761,1.837c0.487,0.487 1.148,0.761 1.837,0.761c0,-0 0,-0 0,-0c0.689,-0 1.35,-0.274 1.838,-0.761c0.487,-0.487 0.76,-1.148 0.76,-1.837c0,-2.518 0,-6.314 0,-8.832Z" style="fill:#e1ccb3;"/><path d="M224.956,134.78c0,-0.689 -0.273,-1.35 -0.76,-1.837c-0.488,-0.487 -1.149,-0.761 -1.838,-0.761c0,0 0,0 0,0c-0.689,0 -1.35,0.274 -1.837,0.761c-0.487,0.487 -0.761,1.148 -0.761,1.837c0,2.518 0,6.314 0,8.832c0,0.689 0.274,1.35 0.761,1.837c0.487,0.487 1.148,0.761 1.837,0.761c0,-0 0,-0 0,-0c0.689,-0 1.35,-0.274 1.838,-0.761c0.487,-0.487 0.76,-1.148 0.76,-1.837c0,-2.518 0,-6.314 0,-8.832Z" style="fill:#b89c7a;"/><path d="M289.717,134.78c0,-0.689 -0.273,-1.35 -0.761,-1.837c-0.487,-0.487 -1.148,-0.761 -1.837,-0.761c0,0 0,0 0,0c-0.689,0 -1.35,0.274 -1.837,0.761c-0.487,0.487 -0.761,1.148 -0.761,1.837c0,2.518 0,6.314 0,8.832c0,0.689 0.274,1.35 0.761,1.837c0.487,0.487 1.148,0.761 1.837,0.761c0,-0 0,-0 0,-0c0.689,-0 1.35,-0.274 1.837,-0.761c0.488,-0.487 0.761,-1.148 0.761,-1.837c0,-2.518 0,-6.314 0,-8.832Z" style="fill:#e1ccb3;"/><path d="M289.717,134.78c0,-0.689 -0.273,-1.35 -0.761,-1.837c-0.487,-0.487 -1.148,-0.761 -1.837,-0.761c0,0 0,0 0,0c-0.689,0 -1.35,0.274 -1.837,0.761c-0.487,0.487 -0.761,1.148 -0.761,1.837c0,2.518 0,6.314 0,8.832c0,0.689 0.274,1.35 0.761,1.837c0.487,0.487 1.148,0.761 1.837,0.761c0,-0 0,-0 0,-0c0.689,-0 1.35,-0.274 1.837,-0.761c0.488,-0.487 0.761,-1.148 0.761,-1.837c0,-2.518 0,-6.314 0,-8.832Z" style="fill:#b89c7a;"/><path d="M354.478,134.78c0,-0.689 -0.274,-1.35 -0.761,-1.837c-0.487,-0.487 -1.148,-0.761 -1.837,-0.761c0,0 0,0 -0,0c-0.689,0 -1.35,0.274 -1.837,0.761c-0.487,0.487 -0.761,1.148 -0.761,1.837c-0,2.518 -0,6.314 -0,8.832c-0,0.689 0.274,1.35 0.761,1.837c0.487,0.487 1.148,0.761 1.837,0.761c0,-0 0,-0 0,-0c0.689,-0 1.35,-0.274 1.837,-0.761c0.487,-0.487 0.761,-1.148 0.761,-1.837c0,-2.518 0,-6.314 0,-8.832Z" style="fill:#e1ccb3;"/><path d="M354.478,134.78c0,-0.689 -0.274,-1.35 -0.761,-1.837c-0.487,-0.487 -1.148,-0.761 -1.837,-0.761c0,0 0,0 -0,0c-0.689,0 -1.35,0.274 -1.837,0.761c-0.487,0.487 -0.761,1.148 -0.761,1.837c-0,2.518 -0,6.314 -0,8.832c-0,0.689 0.274,1.35 0.761,1.837c0.487,0.487 1.148,0.761 1.837,0.761c0,-0 0,-0 0,-0c0.689,-0 1.35,-0.274 1.837,-0.761c0.487,-0.487 0.761,-1.148 0.761,-1.837c0,-2.518 0,-6.314 0,-8.832Z" style="fill:#b89c7a;"/><path d="M419.239,134.78c-0,-0.689 -0.274,-1.35 -0.761,-1.837c-0.487,-0.487 -1.148,-0.761 -1.837,-0.761c-0,0 -0,0 -0,0c-0.689,0 -1.35,0.274 -1.837,0.761c-0.487,0.487 -0.761,1.148 -0.761,1.837c-0,2.518 -0,6.314 -0,8.832c-0,0.689 0.274,1.35 0.761,1.837c0.487,0.487 1.148,0.761 1.837,0.761c-0,-0 -0,-0 -0,-0c0.689,-0 1.35,-0.274 1.837,-0.761c0.487,-0.487 0.761,-1.148 0.761,-1.837c-0,-2.518 -0,-6.314 -0,-8.832Z" style="fill:#e1ccb3;"/><path d="M419.239,134.78c-0,-0.689 -0.274,-1.35 -0.761,-1.837c-0.487,-0.487 -1.148,-0.761 -1.837,-0.761c-0,0 -0,0 -0,0c-0.689,0 -1.35,0.274 -1.837,0.761c-0.487,0.487 -0.761,1.148 -0.761,1.837c-0,2.518 -0,6.314 -0,8.832c-0,0.689 0.274,1.35 0.761,1.837c0.487,0.487 1.148,0.761 1.837,0.761c-0,-0 -0,-0 -0,-0c0.689,-0 1.35,-0.274 1.837,-0.761c0.487,-0.487 0.761,-1.148 0.761,-1.837c-0,-2.518 -0,-6.314 -0,-8.832Z" style="fill:#b89c7a;"/></g><path d="M62.007,334.11c3.547,-12.296 14.891,-21.3 28.322,-21.3c16.267,0 29.473,13.207 29.473,29.473c-0,2.425 -0.294,4.782 -0.848,7.04c8.021,1.688 14.05,8.811 14.05,17.331c-0,9.775 -7.936,17.711 -17.711,17.711l-97.582,-0c-9.775,-0 -17.711,-7.936 -17.711,-17.711c0,-9.775 7.936,-17.711 17.711,-17.711c3.923,0 7.551,1.279 10.488,3.442c1.662,-11.593 11.643,-20.515 23.691,-20.515c3.614,-0 7.042,0.803 10.117,2.24Z" style="fill:#bae1b3;"/><path d="M62.007,334.11c3.547,-12.296 14.891,-21.3 28.322,-21.3c16.267,0 29.473,13.207 29.473,29.473c-0,2.425 -0.294,4.782 -0.848,7.04c8.021,1.688 14.05,8.811 14.05,17.331c-0,9.775 -7.936,17.711 -17.711,17.711l-97.582,-0c-9.775,-0 -17.711,-7.936 -17.711,-17.711c-0,-9.775 7.936,-17.711 17.711,-17.711c3.923,0 7.551,1.279 10.488,3.442c1.662,-11.593 11.643,-20.515 23.691,-20.515c3.614,-0 7.042,0.803 10.117,2.24Zm-2.118,4.529c1.325,0.62 2.854,0.628 4.186,0.024c1.331,-0.605 2.331,-1.762 2.736,-3.167c2.945,-10.21 12.366,-17.686 23.518,-17.686c13.507,0 24.473,10.966 24.473,24.473c-0,2.015 -0.243,3.973 -0.704,5.848c-0.323,1.316 -0.098,2.706 0.623,3.853c0.722,1.147 1.877,1.952 3.203,2.232c5.756,1.211 10.08,6.324 10.08,12.438c-0,7.015 -5.696,12.711 -12.711,12.711l-97.582,-0c-7.015,-0 -12.711,-5.696 -12.711,-12.711c-0,-7.015 5.696,-12.711 12.711,-12.711c2.814,0 5.416,0.916 7.523,2.468c1.416,1.043 3.275,1.265 4.897,0.586c1.622,-0.68 2.768,-2.162 3.017,-3.902c1.315,-9.171 9.212,-16.225 18.742,-16.225c2.857,-0 5.568,0.633 7.999,1.769Z" style="fill:#8bb883;"/><path d="M577.999,334.11c-3.547,-12.296 -14.892,-21.3 -28.323,-21.3c-16.266,0 -29.472,13.207 -29.472,29.473c-0,2.425 0.294,4.782 0.848,7.04c-8.021,1.688 -14.05,8.811 -14.05,17.331c0,9.775 7.936,17.711 17.711,17.711l97.582,-0c9.775,-0 17.711,-7.936 17.711,-17.711c-0,-9.775 -7.936,-17.711 -17.711,-17.711c-3.924,0 -7.551,1.279 -10.488,3.442c-1.662,-11.593 -11.643,-20.515 -23.691,-20.515c-3.614,-0 -7.042,0.803 -10.117,2.24Z" style="fill:#bae1b3;"/><path d="M577.999,334.11c-3.547,-12.296 -14.892,-21.3 -28.323,-21.3c-16.266,0 -29.472,13.207 -29.472,29.473c-0,2.425 0.294,4.782 0.848,7.04c-8.021,1.688 -14.05,8.811 -14.05,17.331c0,9.775 7.936,17.711 17.711,17.711l97.582,-0c9.775,-0 17.711,-7.936 17.711,-17.711c-0,-9.775 -7.936,-17.711 -17.711,-17.711c-3.924,0 -7.551,1.279 -10.488,3.442c-1.662,-11.593 -11.643,-20.515 -23.691,-20.515c-3.614,-0 -7.042,0.803 -10.117,2.24Zm-4.804,1.386c0.405,1.405 1.405,2.562 2.736,3.167c1.332,0.604 2.861,0.596 4.186,-0.024c2.431,-1.136 5.141,-1.769 7.999,-1.769c9.53,-0 17.427,7.054 18.742,16.225c0.249,1.74 1.395,3.222 3.017,3.902c1.622,0.679 3.481,0.457 4.897,-0.586c2.107,-1.552 4.709,-2.468 7.523,-2.468c7.015,0 12.711,5.696 12.711,12.711c-0,7.015 -5.696,12.711 -12.711,12.711l-97.582,-0c-7.015,-0 -12.711,-5.696 -12.711,-12.711c0,-6.114 4.324,-11.227 10.08,-12.438c1.325,-0.28 2.481,-1.085 3.202,-2.232c0.722,-1.147 0.946,-2.537 0.623,-3.853c-0.46,-1.875 -0.703,-3.833 -0.703,-5.848c-0,-13.507 10.966,-24.473 24.472,-24.473c11.153,0 20.574,7.476 23.519,17.686Z" style="fill:#8bb883;"/></g><defs><linearGradient id="_Linear1" x1="0" y1="0" x2="1" y2="0" gradientUnits="userSpaceOnUse" gradientTransform="matrix(29.0867,18.3167,-18.3167,29.0867,485.659,226.437)"><stop offset="0" style="stop-color:#b2d3e1;stop-opacity:1"/><stop offset="0.34" style="stop-color:#dbebf1;stop-opacity:1"/><stop offset="0.56" style="stop-color:#daeaf1;stop-opacity:1"/><stop offset="0.66" style="stop-color:#bad8e4;stop-opacity:1"/><stop offset="1" style="stop-color:#b3d4e1;stop-opacity:1"/></linearGradient><linearGradient id="_Linear2" x1="0" y1="0" x2="1" y2="0" gradientUnits="userSpaceOnUse" gradientTransform="matrix(29.0867,18.3167,-18.3167,29.0867,124.268,226.437)"><stop offset="0" style="stop-color:#b2d3e1;stop-opacity:1"/><stop offset="0.34" style="stop-color:#dbebf1;stop-opacity:1"/><stop offset="0.56" style="stop-color:#daeaf1;stop-opacity:1"/><stop offset="0.66" style="stop-color:#bad8e4;stop-opacity:1"/><stop offset="1" style="stop-color:#b3d4e1;stop-opacity:1"/></linearGradient></defs></svg>