<?xml version="1.0" encoding="UTF-8" standalone="no"?><!DOCTYPE svg PUBLIC "-//W3C//DTD SVG 1.1//EN" "http://www.w3.org/Graphics/SVG/1.1/DTD/svg11.dtd"><svg width="100%" height="100%" viewBox="0 0 81 101" version="1.1" xmlns="http://www.w3.org/2000/svg" xmlns:xlink="http://www.w3.org/1999/xlink" xml:space="preserve" xmlns:serif="http://www.serif.com/" style="fill-rule:evenodd;clip-rule:evenodd;stroke-linejoin:round;stroke-miterlimit:2;"><g id="Sparkle" fill="currentcolor"><path d="M28.579,10.878l2.588,25.661c0.394,3.901 1.548,7.505 3.299,10.299c1.751,2.794 4.01,4.636 6.455,5.264l16.084,4.129l-16.084,4.129c-2.445,0.628 -4.704,2.47 -6.455,5.264c-1.751,2.794 -2.905,6.398 -3.299,10.299l-2.588,25.661l-2.588,-25.661c-0.394,-3.901 -1.548,-7.505 -3.299,-10.299c-1.751,-2.794 -4.01,-4.636 -6.455,-5.264l-16.084,-4.129l16.084,-4.129c2.445,-0.628 4.704,-2.47 6.455,-5.264c1.751,-2.794 2.905,-6.398 3.299,-10.299l2.588,-25.661Z"/><path d="M52.045,1.217l0.874,8.674c0.133,1.319 0.524,2.537 1.116,3.481c0.592,0.945 1.355,1.567 2.182,1.779l5.436,1.396l-5.436,1.396c-0.827,0.212 -1.59,0.835 -2.182,1.779c-0.592,0.945 -0.983,2.163 -1.116,3.481l-0.874,8.674l-0.875,-8.674c-0.133,-1.318 -0.524,-2.536 -1.115,-3.481c-0.592,-0.944 -1.356,-1.567 -2.182,-1.779l-5.437,-1.396l5.437,-1.396c0.826,-0.212 1.59,-0.834 2.182,-1.779c0.591,-0.944 0.982,-2.162 1.115,-3.481l0.875,-8.674Z"/><path d="M71.262,19.218l0.875,8.673c0.133,1.319 0.523,2.537 1.115,3.482c0.592,0.944 1.355,1.567 2.182,1.779l5.437,1.396l-5.437,1.396c-0.827,0.212 -1.59,0.834 -2.182,1.779c-0.592,0.944 -0.982,2.162 -1.115,3.481l-0.875,8.674l-0.875,-8.674c-0.133,-1.319 -0.523,-2.537 -1.115,-3.481c-0.592,-0.945 -1.356,-1.567 -2.182,-1.779l-5.437,-1.396l5.437,-1.396c0.826,-0.212 1.59,-0.835 2.182,-1.779c0.592,-0.945 0.982,-2.163 1.115,-3.482l0.875,-8.673Z"/></g></svg>