<?xml version="1.0" encoding="UTF-8" standalone="no"?><!DOCTYPE svg PUBLIC "-//W3C//DTD SVG 1.1//EN" "http://www.w3.org/Graphics/SVG/1.1/DTD/svg11.dtd"><svg width="100%" height="100%" viewBox="0 0 80 80" version="1.1" xmlns="http://www.w3.org/2000/svg" xmlns:xlink="http://www.w3.org/1999/xlink" xml:space="preserve" xmlns:serif="http://www.serif.com/" style="fill-rule:evenodd;clip-rule:evenodd;stroke-linejoin:round;stroke-miterlimit:2;"><g id="Star" fill="currentcolor"><path d="M40.316,16.993c0,0 0,0 0,0.001c3.912,10.535 12.221,18.844 22.756,22.756c0.001,-0 0.001,-0 0.001,-0c-0,-0 -0,-0 -0.001,0c-10.535,3.912 -18.844,12.22 -22.756,22.756c0,0 0,0.001 0,0.001c0,-0 0,-0.001 -0,-0.001c-3.912,-10.536 -12.22,-18.844 -22.756,-22.756c-0,-0 -0.001,-0 -0.001,-0c0,-0 0.001,-0 0.001,-0c10.536,-3.912 18.844,-12.221 22.756,-22.756c0,-0.001 0,-0.001 0,-0.001Z"/><path d="M41.647,72.405c0,-1.859 -0.628,-3.368 -1.403,-3.368c-0.774,0 -1.403,1.509 -1.403,3.368l-0,3.716c-0,1.859 0.629,3.368 1.403,3.368c0.775,-0 1.403,-1.509 1.403,-3.368l0,-3.716Z"/><path d="M72.899,38.347c-1.858,-0 -3.367,0.628 -3.367,1.403c-0,0.774 1.509,1.403 3.367,1.403l3.716,0c1.859,0 3.368,-0.629 3.368,-1.403c0,-0.775 -1.509,-1.403 -3.368,-1.403l-3.716,-0Z"/><path d="M18.156,19.647c3.31,3.31 6.442,5.552 6.99,5.005c0.548,-0.548 -1.695,-3.68 -5.005,-6.99l-6.618,-6.618c-3.31,-3.31 -6.442,-5.553 -6.99,-5.005c-0.547,0.548 1.695,3.68 5.006,6.99l6.617,6.618Z"/><path d="M20.141,61.838c3.31,-3.31 5.553,-6.442 5.005,-6.99c-0.548,-0.548 -3.68,1.695 -6.99,5.005l-6.617,6.618c-3.311,3.31 -5.553,6.442 -5.006,6.99c0.548,0.547 3.68,-1.695 6.99,-5.006l6.618,-6.617Z"/><path d="M66.965,68.455c3.31,3.311 6.442,5.553 6.99,5.006c0.548,-0.548 -1.695,-3.68 -5.005,-6.99l-6.618,-6.618c-3.31,-3.31 -6.442,-5.553 -6.99,-5.005c-0.547,0.548 1.695,3.68 5.005,6.99l6.618,6.617Z"/><path d="M68.95,13.029c3.31,-3.31 5.553,-6.442 5.005,-6.99c-0.548,-0.548 -3.68,1.695 -6.99,5.005l-6.618,6.618c-3.31,3.31 -5.552,6.442 -5.005,6.99c0.548,0.547 3.68,-1.695 6.99,-5.005l6.618,-6.618Z"/><path d="M41.647,3.379c0,-1.859 -0.628,-3.368 -1.403,-3.368c-0.774,-0 -1.403,1.509 -1.403,3.368l-0,3.716c-0,1.858 0.629,3.367 1.403,3.367c0.775,0 1.403,-1.509 1.403,-3.367l0,-3.716Z"/><path d="M3.873,38.347c-1.859,-0 -3.368,0.628 -3.368,1.403c0,0.774 1.509,1.403 3.368,1.403l3.716,0c1.859,0 3.368,-0.629 3.368,-1.403c-0,-0.775 -1.509,-1.403 -3.368,-1.403l-3.716,-0Z"/></g></svg>