<?xml version="1.0" encoding="utf-8"?>

<!DOCTYPE svg PUBLIC "-//W3C//DTD SVG 1.1//EN" "http://www.w3.org/Graphics/SVG/1.1/DTD/svg11.dtd">
<svg version="1.1" id="Layer_1" xmlns="http://www.w3.org/2000/svg" xmlns:xlink="http://www.w3.org/1999/xlink" x="0px" y="0px"
	 viewBox="0 0 1654 1654" enable-background="new 0 0 1654 1654" xml:space="preserve">
<path fill="currentcolor" d="M818.973,27c12.909,352.519,22.28,352.719,50.248,1.075c-9.252,352.633,0.089,353.422,50.082,4.228
	c-31.375,351.357-22.103,352.73,49.717,7.364c-53.375,348.693-44.207,350.646,49.157,10.471
	c-75.165,344.654-66.137,347.179,48.402,13.537c-96.657,339.254-87.806,342.341,47.457,16.55
	c-117.768,332.516-109.129,336.152,46.324,19.497c-138.415,324.465-130.021,328.636,45.008,22.367
	c-158.515,315.133-150.399,319.824,43.515,25.149c-177.99,304.558-170.185,309.749,41.85,27.832
	c-196.762,292.781-189.298,298.452,40.02,30.405c-214.757,279.849-207.664,285.977,38.032,32.857
	c-231.905,265.812-225.211,272.373,35.894,35.181c-248.138,250.726-241.869,257.694,33.614,37.365
	c-263.392,234.65-257.573,241.999,31.201,39.402c-277.606,217.649-272.26,225.348,28.666,41.283
	c-290.724,199.788-285.872,207.808,26.017,43.002c-302.696,181.139-298.356,189.448,23.266,44.551
	c-313.472,161.775-309.663,170.34,20.422,45.924c-323.011,141.773-319.748,150.56,17.499,47.115
	c-331.276,121.211-328.571,130.186,14.505,48.121c-338.233,100.171-336.097,109.298,11.455,48.937
	c-343.856,78.735-342.296,87.979,8.36,49.56c-348.121,56.989-347.145,66.312,5.232,49.987
	c-351.012,35.018-350.624,44.384,2.083,50.217c-352.519,12.909-352.719,22.28-1.075,50.248
	c-352.634-9.252-353.422,0.089-4.228,50.082c-351.357-31.375-352.73-22.103-7.364,49.717
	c-348.693-53.375-350.646-44.207-10.471,49.157c-344.654-75.165-347.178-66.137-13.537,48.402
	c-339.254-96.657-342.341-87.806-16.55,47.457c-332.516-117.768-336.152-109.129-19.497,46.324
	c-324.465-138.415-328.636-130.021-22.367,45.008c-315.133-158.515-319.824-150.399-25.149,43.515
	c-304.558-177.99-309.749-170.185-27.832,41.85c-292.781-196.762-298.452-189.298-30.405,40.02
	c-279.849-214.757-285.977-207.664-32.858,38.032c-265.812-231.905-272.373-225.211-35.181,35.894
	c-250.726-248.138-257.694-241.869-37.365,33.614c-234.65-263.392-241.999-257.573-39.402,31.201
	c-217.649-277.606-225.348-272.26-41.283,28.666c-199.788-290.724-207.808-285.872-43.002,26.017
	c-181.139-302.696-189.448-298.356-44.551,23.266c-161.775-313.472-170.34-309.663-45.923,20.422
	c-141.773-323.011-150.56-319.748-47.115,17.499c-121.211-331.276-130.186-328.571-48.121,14.505
	c-100.171-338.233-109.298-336.097-48.937,11.455c-78.735-343.856-87.979-342.296-49.56,8.36
	c-56.989-348.121-66.312-347.145-49.987,5.232c-35.018-351.012-44.384-350.624-50.217,2.083
	c-12.909-352.519-22.28-352.719-50.248-1.075c9.252-352.634-0.089-353.422-50.082-4.228c31.375-351.357,22.103-352.73-49.717-7.364
	c53.375-348.693,44.207-350.646-49.157-10.471c75.165-344.654,66.137-347.178-48.402-13.537
	c96.657-339.254,87.806-342.341-47.457-16.55c117.768-332.516,109.129-336.152-46.324-19.497
	c138.415-324.465,130.021-328.636-45.008-22.367c158.515-315.133,150.399-319.824-43.515-25.149
	c177.99-304.558,170.184-309.749-41.85-27.832c196.762-292.781,189.298-298.452-40.02-30.405
	c214.757-279.849,207.664-285.977-38.032-32.858c231.906-265.812,225.211-272.373-35.894-35.181
	c248.138-250.726,241.869-257.694-33.614-37.365c263.392-234.65,257.573-241.999-31.201-39.402
	c277.606-217.649,272.26-225.348-28.666-41.283c290.724-199.788,285.872-207.808-26.017-43.002
	c302.696-181.139,298.356-189.448-23.266-44.551c313.472-161.775,309.663-170.34-20.422-45.923
	c323.011-141.773,319.748-150.56-17.498-47.115c331.276-121.211,328.571-130.186-14.506-48.121
	c338.233-100.171,336.097-109.298-11.455-48.937c343.856-78.735,342.296-87.979-8.36-49.56
	c348.121-56.989,347.145-66.312-5.232-49.987C380.095,850.225,379.707,840.86,27,835.027c352.519-12.909,352.719-22.28,1.075-50.248
	c352.633,9.252,353.422-0.089,4.228-50.082c351.357,31.375,352.73,22.103,7.364-49.717c348.693,53.375,350.646,44.207,10.471-49.157
	c344.654,75.165,347.179,66.137,13.537-48.402c339.254,96.657,342.341,87.806,16.55-47.457
	c332.516,117.768,336.152,109.129,19.497-46.324c324.465,138.415,328.636,130.021,22.367-45.008
	c315.133,158.515,319.824,150.399,25.149-43.515c304.558,177.99,309.749,170.184,27.832-41.85
	c292.781,196.762,298.452,189.298,30.405-40.02C485.322,538.003,491.45,530.91,238.33,285.214
	c265.812,231.906,272.373,225.211,35.181-35.894c250.726,248.138,257.694,241.869,37.365-33.614
	c234.65,263.392,241.999,257.573,39.402-31.201c217.649,277.606,225.348,272.26,41.283-28.666
	c199.788,290.724,207.808,285.872,43.002-26.017c181.139,302.696,189.448,298.356,44.551-23.266
	c161.775,313.472,170.34,309.663,45.924-20.422c141.773,323.011,150.56,319.748,47.115-17.498
	c121.211,331.276,130.186,328.571,48.121-14.506c100.171,338.233,109.298,336.097,48.937-11.455
	c78.735,343.856,87.979,342.296,49.56-8.36c56.989,348.121,66.312,347.145,49.987-5.232C803.775,380.095,813.14,379.707,818.973,27z
	 M777.681,151.348c31.582,458.857,42.336,599.925-6.39,143.371c46.861,456.75,28.174,316.512-35.937-138.941
	c60.331,455.969,79.922,596.083,2.625,143.489c75.448,452.906,47.992,314.118-44.59-136.41
	c88.843,451.281,117.192,589.889,11.629,143.041c103.738,447.275,67.621,310.485-53.068-133.341
	c117.004,444.812,154.001,581.366,20.588,142.029c131.617,439.878,86.983,305.626-61.335-129.746
	c144.703,436.587,190.201,570.549,29.466,140.456c158.978,430.746,106.002,299.562-69.361-125.639
	c171.831,426.64,225.651,557.481,38.227,138.329C795.245,757.899,734.136,630.3,532.42,216.95
	c198.281,415.009,260.21,542.212,46.837,135.655c211.711,407.424,142.711,283.914-84.561-115.955
	c223.948,401.74,293.742,524.803,55.262,132.447c236.876,393.327,160.256,274.393-91.675-110.416
	c248.731,386.885,326.115,505.323,63.47,128.715c261.106,377.677,177.169,263.789-98.427-104.442
	C695.86,653.458,780.528,766.803,494.753,407.43c284.305,360.537,193.383,252.144-104.791-98.056
	c295.26,352.66,386.878,460.466,79.102,119.746c306.382,341.974,208.834,239.504-110.741-91.282
	c316.821,333.425,415.027,435.265,86.464,114.542c327.25,322.061,223.46,225.918-116.254-84.149
	c337.132,312.874,441.539,408.346,93.486,108.887C768.845,777.996,659.223,688.56,300.71,400.436
	c356.112,291.087,466.308,379.816,100.139,102.802c365.035,278.506,250.013,196.13-125.884-68.915
	C648.651,702.476,764.2,784.11,381.36,530.636c381.802,255.036,261.835,180.044-129.963-60.874
	c389.787,244.159,510.234,318.377,112.234,89.441c397.062,230.559,272.623,163.248-133.529-52.594
	C634.45,725.811,759.32,792.32,347.73,588.826c410.756,205.172,282.336,145.808-136.568-44.106
	C628.476,738.101,757.276,796.638,333.72,619.39c422.828,178.976,290.934,127.792-139.068-35.443
	c428.633,166.796,560.854,217.129,127.005,66.826c433.232,152.073,298.384,109.272-141.019-26.641
	C618.9,763.684,754.02,805.616,311.59,682.851c441.926,124.57,304.657,90.321-142.413-17.734
	c446.159,111.759,583.645,145.124,134.379,50.381c448.876,96.576,309.727,71.013-143.246-8.757
	c452.296,83.524,591.606,108.19,137.278,41.844c454.054,68.2,313.575,51.425-143.513,0.255
	c456.648,54.959,597.232,70.829,139.634,33.142c457.44,39.555,316.185,31.634-143.214,9.266
	c459.197,26.177,600.501,33.189,141.44,24.309c459.021,10.754,317.547,11.718-142.35,18.24c459.935-2.707,601.4-4.582,142.687,15.38
	c458.791-18.089,317.656-8.244-140.923,27.142c458.857-31.582,599.925-42.336,143.371,6.39
	c456.75-46.861,316.512-28.174-138.941,35.937c455.969-60.331,596.083-79.922,143.489-2.625
	c452.906-75.448,314.118-47.992-136.41,44.59c451.281-88.843,589.889-117.192,143.041-11.629
	c447.275-103.738,310.485-67.621-133.341,53.068c444.812-117.004,581.366-154.001,142.029-20.588
	c439.878-131.617,305.626-86.983-129.746,61.335c436.587-144.703,570.549-190.201,140.456-29.466
	c430.746-158.978,299.562-106.002-125.639,69.361c426.64-171.831,557.481-225.651,138.329-38.227
	C757.899,858.755,630.3,919.864,216.95,1121.58c415.009-198.281,542.212-260.21,135.655-46.837
	c407.424-211.711,283.914-142.711-115.955,84.561c401.74-223.948,524.803-293.742,132.447-55.262
	c393.327-236.876,274.393-160.256-110.416,91.675c386.885-248.731,505.323-326.115,128.715-63.47
	c377.677-261.106,263.789-177.169-104.442,98.427c370.504-272.533,483.849-357.201,124.476-71.427
	c360.537-284.305,252.144-193.383-98.056,104.791c352.66-295.26,460.466-386.878,119.746-79.102
	c341.974-306.382,239.504-208.834-91.282,110.741c333.425-316.821,435.265-415.027,114.542-86.464
	c322.061-327.25,225.918-223.46-84.149,116.254c312.874-337.131,408.346-441.539,108.887-93.486
	c300.877-346.827,211.441-237.205-76.683,121.309c291.087-356.112,379.816-466.308,102.802-100.139
	c278.506-365.035,196.13-250.013-68.915,125.884C702.476,1005.349,784.11,889.8,530.636,1272.64
	c255.036-381.802,180.044-261.835-60.874,129.963c244.159-389.787,318.377-510.234,89.441-112.234
	c230.559-397.062,163.248-272.623-52.594,133.529C725.811,1019.55,792.32,894.68,588.826,1306.27
	c205.172-410.756,145.808-282.336-44.106,136.568c193.381-417.314,251.917-546.114,74.669-122.558
	c178.976-422.828,127.792-290.934-35.443,139.068c166.796-428.633,217.129-560.854,66.826-127.005
	c152.073-433.232,109.272-298.384-26.641,141.019c139.553-438.261,181.485-573.381,58.72-130.951
	c124.57-441.926,90.321-304.657-17.734,142.413c111.759-446.158,145.124-583.645,50.381-134.379
	c96.576-448.876,71.013-309.727-8.757,143.246c83.524-452.296,108.19-591.606,41.844-137.278
	c68.2-454.054,51.425-313.574,0.255,143.513c54.959-456.648,70.829-597.232,33.142-139.634
	c39.555-457.44,31.634-316.185,9.266,143.214c26.177-459.197,33.189-600.501,24.309-141.44
	c10.754-459.021,11.718-317.547,18.24,142.349c-2.707-459.935-4.582-601.4,15.38-142.687
	c-18.089-458.791-8.244-317.656,27.142,140.923c-31.582-458.857-42.336-599.925,6.39-143.371
	c-46.861-456.75-28.174-316.512,35.937,138.941c-60.331-455.969-79.922-596.083-2.625-143.489
	c-75.448-452.906-47.992-314.118,44.59,136.41c-88.843-451.281-117.192-589.889-11.629-143.041
	c-103.738-447.275-67.621-310.485,53.068,133.341c-117.004-444.812-154.001-581.366-20.588-142.029
	c-131.617-439.878-86.983-305.626,61.335,129.746c-144.703-436.587-190.201-570.549-29.466-140.456
	c-158.978-430.746-106.002-299.562,69.361,125.639c-171.831-426.64-225.651-557.481-38.227-138.328
	C858.755,896.101,919.864,1023.7,1121.58,1437.05c-198.281-415.009-260.21-542.212-46.837-135.655
	c-211.711-407.424-142.711-283.914,84.561,115.955c-223.948-401.74-293.742-524.803-55.262-132.447
	c-236.876-393.327-160.256-274.393,91.675,110.416c-248.731-386.885-326.115-505.323-63.47-128.715
	c-261.106-377.677-177.169-263.789,98.427,104.442c-272.533-370.504-357.201-483.849-71.427-124.476
	c-284.305-360.537-193.383-252.144,104.791,98.056c-295.26-352.66-386.878-460.466-79.102-119.746
	c-306.382-341.974-208.834-239.504,110.741,91.282c-316.821-333.425-415.027-435.265-86.464-114.542
	c-327.25-322.061-223.46-225.918,116.254,84.149c-337.131-312.873-441.539-408.346-93.486-108.887
	c-346.827-300.877-237.205-211.441,121.309,76.683c-356.112-291.087-466.308-379.816-100.139-102.802
	c-365.035-278.506-250.013-196.13,125.884,68.915C1005.349,951.524,889.8,869.89,1272.64,1123.365
	c-381.802-255.036-261.835-180.044,129.963,60.874c-389.787-244.159-510.234-318.377-112.234-89.441
	c-397.062-230.559-272.623-163.248,133.529,52.594C1019.55,928.189,894.68,861.68,1306.27,1065.174
	c-410.756-205.173-282.336-145.808,136.568,44.106c-417.314-193.381-546.114-251.917-122.558-74.669
	c-422.828-178.976-290.934-127.792,139.068,35.443c-428.633-166.796-560.854-217.129-127.005-66.826
	c-433.232-152.073-298.384-109.272,141.019,26.641C1035.1,890.316,899.98,848.384,1342.41,971.149
	c-441.926-124.57-304.657-90.321,142.413,17.734c-446.158-111.759-583.645-145.124-134.379-50.381
	c-448.876-96.576-309.727-71.013,143.246,8.757c-452.296-83.524-591.606-108.19-137.278-41.844
	c-454.054-68.2-313.574-51.425,143.513-0.255c-456.648-54.959-597.232-70.829-139.634-33.142
	c-457.44-39.555-316.185-31.634,143.214-9.266c-459.197-26.177-600.501-33.189-141.44-24.309
	c-459.021-10.754-317.547-11.718,142.349-18.24c-459.935,2.707-601.4,4.582-142.687-15.38
	c-458.791,18.089-317.656,8.244,140.923-27.142c-458.857,31.582-599.925,42.336-143.371-6.39
	c-456.75,46.861-316.512,28.174,138.941-35.937c-455.969,60.331-596.083,79.922-143.489,2.625
	c-452.906,75.448-314.118,47.992,136.41-44.59c-451.281,88.843-589.889,117.192-143.041,11.629
	c-447.275,103.738-310.485,67.621,133.341-53.068c-444.812,117.004-581.366,154.001-142.029,20.588
	c-439.878,131.617-305.626,86.983,129.746-61.335c-436.587,144.703-570.549,190.201-140.456,29.466
	c-430.746,158.978-299.562,106.002,125.639-69.361c-426.64,171.831-557.481,225.651-138.328,38.227
	C896.101,795.245,1023.7,734.136,1437.05,532.42c-415.009,198.281-542.212,260.21-135.655,46.837
	c-407.424,211.711-283.914,142.711,115.955-84.561c-401.74,223.948-524.803,293.742-132.447,55.262
	c-393.327,236.876-274.393,160.256,110.416-91.675c-386.885,248.731-505.323,326.115-128.715,63.47
	c-377.677,261.106-263.789,177.169,104.442-98.427c-370.504,272.533-483.849,357.201-124.476,71.427
	c-360.537,284.305-252.144,193.383,98.056-104.791c-352.66,295.26-460.466,386.878-119.746,79.102
	c-341.974,306.382-239.504,208.834,91.282-110.741c-333.425,316.821-435.265,415.027-114.542,86.464
	c-322.061,327.25-225.918,223.46,84.149-116.254c-312.873,337.132-408.346,441.539-108.887,93.486
	C876.004,768.845,965.44,659.223,1253.564,300.71c-291.087,356.112-379.816,466.308-102.802,100.139
	c-278.506,365.035-196.13,250.013,68.915-125.884C951.524,648.651,869.89,764.2,1123.365,381.36
	c-255.036,381.802-180.044,261.835,60.874-129.963c-244.159,389.787-318.377,510.234-89.441,112.234
	c-230.559,397.062-163.248,272.623,52.594-133.529C928.189,634.45,861.68,759.32,1065.174,347.73
	c-205.173,410.756-145.808,282.336,44.106-136.568C915.899,628.476,857.362,757.276,1034.61,333.72
	c-178.976,422.828-127.792,290.934,35.443-139.068c-166.796,428.633-217.129,560.854-66.826,127.005
	c-152.073,433.232-109.272,298.384,26.641-141.019C890.316,618.9,848.384,754.02,971.149,311.59
	c-124.57,441.926-90.321,304.657,17.734-142.413C877.124,615.335,843.76,752.822,938.502,303.555
	c-96.576,448.876-71.013,309.727,8.757-143.246c-83.524,452.296-108.19,591.606-41.844,137.278
	c-68.2,454.054-51.425,313.575-0.255-143.513C850.2,610.722,834.33,751.306,872.017,293.708
	c-39.555,457.44-31.634,316.185-9.266-143.214c-26.177,459.197-33.189,600.501-24.309,141.44
	c-10.754,459.021-11.718,317.547-18.24-142.35c2.707,459.935,4.582,601.4-15.38,142.687
	C822.912,751.062,813.067,609.927,777.681,151.348z"/>
</svg>
