<?xml version="1.0" encoding="UTF-8" standalone="no"?><!DOCTYPE svg PUBLIC "-//W3C//DTD SVG 1.1//EN" "http://www.w3.org/Graphics/SVG/1.1/DTD/svg11.dtd"><svg width="100%" height="100%" viewBox="0 0 62 38" version="1.1" xmlns="http://www.w3.org/2000/svg" xmlns:xlink="http://www.w3.org/1999/xlink" xml:space="preserve" xmlns:serif="http://www.serif.com/" style="fill-rule:evenodd;clip-rule:evenodd;stroke-linecap:round;stroke-linejoin:round;stroke-miterlimit:1.5;stroke:currentcolor;"><path d="M3.581,2.976c-0.144,2.585 0.14,5.126 0.168,7.708" style="fill:none;stroke-width:1px;"/><path d="M2.227,2.352c1.02,-0.34 2.052,-0.576 3.118,-0.318c2.913,0.705 4.349,4.276 3.248,6.937c-0.945,2.286 -3.141,3.199 -5.768,2.872" style="fill:none;stroke-width:1px;"/><path d="M13.535,7.906c-1.512,-0.818 -2.896,0.401 -3.016,1.92c-0.05,0.632 -0.026,1.477 0.604,1.831c1.173,0.659 2.847,0.038 3.452,-1.121c0.164,-0.314 0.149,-0.79 0.174,-1.138c0.032,-0.446 0.334,-1.231 -0.056,-1.581" style="fill:none;stroke-width:1px;"/><path d="M14.708,8.066c0,0.929 0.049,1.806 0.174,2.722c0.056,0.406 0.057,0.849 0.275,1.209" style="fill:none;stroke-width:1px;"/><path d="M20.171,7.943c-0.272,-0.371 -1.277,-0.475 -1.755,-0.169c-0.535,0.342 -0.979,1.298 -0.47,1.798c0.851,0.836 2.242,-0.092 2.479,1.536c0.039,0.262 0.041,0.533 0.04,0.797c-0.002,0.346 -0.481,0.515 -0.747,0.549c-0.609,0.079 -1.735,0.144 -1.833,-0.711" style="fill:none;stroke-width:1px;"/><path d="M28.681,2.976c0,1.253 0.303,2.402 0.381,3.647c0.113,1.796 0.036,3.616 0.036,5.414" style="fill:none;stroke-width:1px;"/><path d="M29.306,8.288c1.892,-0.968 3.711,1.158 2.975,3.047c-0.421,1.081 -2.189,0.986 -3.158,0.972" style="fill:none;stroke-width:1px;"/><path d="M34.82,8.392c0.182,1.076 0.417,3.049 0.063,4.09" style="fill:none;stroke-width:1px;"/><path d="M34.889,5.997c-0.008,0.024 -0.081,0.198 -0.068,0.237" style="fill:none;stroke-width:1px;"/><path d="M37.638,8.184c0.025,1.396 0.566,2.833 0.609,4.27" style="fill:none;stroke-width:1px;"/><path d="M37.95,9.538c0.286,-0.326 0.586,-0.673 0.898,-0.97c1.051,-0.998 2.218,-0.569 2.672,0.793c0.266,0.795 0.095,2.488 0.21,3.301" style="fill:none;stroke-width:1px;"/><path d="M48.716,8.392c0.234,1.384 0.104,2.871 0.104,4.27" style="fill:none;stroke-width:1px;"/><path d="M49.029,5.997c-0.027,-0.068 -0.011,-0.025 -0.046,-0.131" style="fill:none;stroke-width:1px;"/><path d="M53.989,8.809c-0.426,-0.218 -0.875,-0.488 -1.36,-0.546c-1.966,-0.234 -1.749,3.14 -0.932,4.088c0.676,0.784 2.356,0.935 2.675,-0.228" style="fill:none;stroke-width:1px;"/><path d="M56.177,3.289c0.519,3.072 0.11,6.274 0.105,9.373" style="fill:none;stroke-width:1px;"/><path d="M56.697,9.538c0.625,-1.157 2.162,-1.712 2.795,-0.261c0.477,1.095 0.328,2.424 0.329,3.594" style="fill:none;stroke-width:1px;"/><g><path d="M25.184,19.541c0.435,6.225 3.553,7.028 8.454,9.508" style="fill:none;stroke-width:1px;"/><path d="M34.747,27.293c-0.453,0.981 -0.891,2.069 -1.375,3.031c-0.081,0.162 -0.532,0.891 -0.47,1.048c0.092,0.229 0.66,0.149 0.831,0.139c0.918,-0.05 1.608,-0.079 2.615,-0.214c0.166,-0.022 1.285,-0.099 1.319,-0.226c0.05,-0.186 -0.805,-1.414 -0.911,-1.565c-0.397,-0.562 -1.029,-1.492 -1.83,-2.349" style="fill:none;stroke-width:1px;"/></g></svg>