<?xml version="1.0" encoding="UTF-8" standalone="no"?><!DOCTYPE svg PUBLIC "-//W3C//DTD SVG 1.1//EN" "http://www.w3.org/Graphics/SVG/1.1/DTD/svg11.dtd"><svg width="100%" height="100%" viewBox="0 0 1920 248" version="1.1" xmlns="http://www.w3.org/2000/svg" xmlns:xlink="http://www.w3.org/1999/xlink" xml:space="preserve" xmlns:serif="http://www.serif.com/" style="fill-rule:evenodd;clip-rule:evenodd;stroke-linejoin:round;stroke-miterlimit:2;"><path d="M960,116.281c-54.487,0.152 -112.267,15.066 -161.173,39.263c-23.128,11.443 -44.366,26.062 -67.81,36.974c-36.815,17.135 -77.113,28.184 -118,24.533c-36.182,-3.231 -69.803,-18.103 -100.452,-37.02c-25.93,-16.004 -39.852,-29.59 -66.692,-44.258c-42.764,-23.37 -91.917,-34.117 -140.15,-24.834c-31.048,5.976 -60.11,19.714 -85.623,38.218c-32.991,23.927 -61.873,52.46 -97.96,72.134c-38.246,20.851 -79.196,25.767 -122.14,25.767l-0,-247.058l1920,-0l0,247.058c-42.944,0 -83.894,-4.916 -122.14,-25.767c-36.087,-19.674 -64.969,-48.207 -97.96,-72.134c-25.513,-18.504 -54.575,-32.242 -85.623,-38.218c-48.233,-9.283 -97.386,1.464 -140.15,24.834c-26.84,14.668 -40.762,28.254 -66.692,44.258c-30.649,18.917 -64.27,33.789 -100.452,37.02c-40.887,3.651 -81.185,-7.398 -118,-24.533c-23.467,-10.922 -44.727,-25.551 -67.872,-37.017c-48.866,-24.207 -106.639,-39.22 -161.111,-39.22Z" style="fill:url(#_Linear1);"/><defs><linearGradient id="_Linear1" x1="0" y1="0" x2="1" y2="0" gradientUnits="userSpaceOnUse" gradientTransform="matrix(1920,0,0,1920,9.05942e-14,88.0036)"><stop offset="0" style="stop-color:#e9c46a;stop-opacity:1"/><stop offset="0.13" style="stop-color:#fae9c7;stop-opacity:1"/><stop offset="0.31" style="stop-color:#cbc378;stop-opacity:0.67"/><stop offset="0.48" style="stop-color:#c3df76;stop-opacity:1"/><stop offset="0.65" style="stop-color:#f0d89c;stop-opacity:1"/><stop offset="0.79" style="stop-color:#fed7b5;stop-opacity:1"/><stop offset="1" style="stop-color:#e9c46a;stop-opacity:1"/></linearGradient></defs></svg>