<?xml version="1.0" encoding="UTF-8" standalone="no"?><!DOCTYPE svg PUBLIC "-//W3C//DTD SVG 1.1//EN" "http://www.w3.org/Graphics/SVG/1.1/DTD/svg11.dtd"><svg width="100%" height="100%" viewBox="0 0 128 128" version="1.1" xmlns="http://www.w3.org/2000/svg" xmlns:xlink="http://www.w3.org/1999/xlink" xml:space="preserve" xmlns:serif="http://www.serif.com/" style="fill-rule:evenodd;clip-rule:evenodd;stroke-linejoin:round;stroke-miterlimit:2;"><g><clipPath id="_clip1"><circle cx="64" cy="64" r="64"/></clipPath><g clip-path="url(#_clip1)"><circle cx="64" cy="64" r="64" style="fill:url(#_Radial2);"/><ellipse cx="20.938" cy="4.166" rx="70.86" ry="57.303" style="fill:url(#_Radial3);"/><g><g style="filter:url(#_Effect4);"><path d="M59.455,17.512c-1.066,7.952 8.26,5.318 19.727,5.285c8.869,-0.024 18.289,6.05 26.418,16.161c0.846,-11.046 -12.175,-24.705 -26.16,-27.101c-6.737,-1.155 -18.919,-2.297 -19.985,5.655Z" style="fill:url(#_Radial5);"/></g></g><g><g style="filter:url(#_Effect6);"><path d="M63.418,111.691c3.088,-7.406 -6.602,-7.274 -17.687,-10.211c-8.573,-2.272 -16.1,-10.577 -21.335,-22.448c-3.676,10.451 5.366,27.015 18.255,32.949c6.208,2.859 17.679,7.115 20.767,-0.29Z" style="fill:url(#_Radial7);"/></g></g><g><g style="filter:url(#_Effect8);"><path d="M8.974,64.648c9.544,0.085 9.124,-10.823 12.589,-24.722c2.679,-10.75 13.097,-23.094 28.131,-34.486c-13.452,0.653 -34.383,18.515 -41.632,35.836c-3.491,8.343 -8.632,23.287 0.912,23.372Z" style="fill:url(#_Radial9);"/></g></g><g><g style="filter:url(#_Effect10);"><path d="M103.122,102.239c-7.755,-1.504 -11.04,0.023 -17.583,7.552c-5.079,5.845 -17.77,8.639 -50.172,8.349c10.452,4.798 39.577,10.579 56.027,-2.575c5.502,-4.401 19.482,-11.822 11.728,-13.326Z" style="fill:url(#_Radial11);"/></g></g><g><g style="filter:url(#_Effect12);"><path d="M128.895,40.276c-5.18,5.963 -5.5,9.571 -2.251,19.003c2.522,7.32 -1.404,19.708 -17.856,47.624c9.382,-6.652 28.951,-28.985 25.784,-49.808c-1.06,-6.965 -0.497,-22.783 -5.677,-16.819Z" style="fill:url(#_Radial13);"/></g></g><g opacity="0.5"><g style="filter:url(#_Effect14);"><path d="M12.653,79.656c-1.438,5.724 0.792,15.219 6.68,23.621c5.887,8.401 14.051,13.738 19.922,14.34c-5.594,-1.705 -13.039,-7.232 -18.647,-15.234c-5.607,-8.002 -8.262,-16.886 -7.955,-22.727Z" style="fill:url(#_Radial15);"/></g></g><g opacity="0.5"><g style="filter:url(#_Effect16);"><path d="M11.459,23.723c-4.949,5.021 -9.742,17.425 -11.085,31.859c-1.344,14.433 1.077,27.509 5.014,33.357c-2.984,-6.816 -4.743,-19.467 -3.464,-33.213c1.28,-13.747 5.345,-25.855 9.535,-32.003Z" style="fill:url(#_Radial17);"/></g></g><g opacity="0.5"><g style="filter:url(#_Effect18);"><path d="M116.072,54.443c2.121,-6.036 0.659,-16.519 -4.859,-26.193c-5.517,-9.674 -13.796,-16.269 -20.071,-17.517c5.867,2.411 13.351,9.139 18.606,18.353c5.255,9.213 7.236,19.08 6.324,25.357Z" style="fill:url(#_Radial19);"/></g></g><g opacity="0.5"><g style="filter:url(#_Effect20);"><path d="M119.02,64c3.642,-5.261 5.007,-15.757 2.246,-26.546c-2.761,-10.788 -8.999,-19.339 -14.721,-22.204c5.02,3.878 10.457,12.347 13.087,22.623c2.629,10.275 1.928,20.315 -0.612,26.127Z" style="fill:url(#_Radial21);"/></g></g><g opacity="0.5"><g style="filter:url(#_Effect22);"><path d="M80.497,132.895c8.164,-2.654 21.445,-13.408 32.974,-28.31c11.53,-14.903 18.603,-30.459 19.122,-39.027c-2.091,9.08 -9.475,23.801 -20.456,37.994c-10.981,14.194 -23.376,25.038 -31.64,29.343Z" style="fill:url(#_Radial23);"/></g></g><g opacity="0.5"><g style="filter:url(#_Effect24);"><path d="M126.505,75.495c4.586,-11.423 2.435,-30.337 -7.747,-47.045c-10.182,-16.708 -26.006,-27.29 -38.261,-28.45c11.371,3.36 25.624,14.328 35.322,30.241c9.697,15.913 12.912,33.607 10.686,45.254Z" style="fill:url(#_Radial25);"/></g></g><g opacity="0.5"><g style="filter:url(#_Effect26);"><path d="M53.576,13.616c-5.522,1.101 -10.826,3.099 -15.701,5.914c-13.615,7.86 -22.901,21.502 -25.222,37.05l31.034,4.633c0.909,-6.089 4.545,-11.431 9.877,-14.509c1.909,-1.102 3.986,-1.885 6.148,-2.316l-6.136,-30.772Z" style="fill:url(#_Radial27);"/></g></g><g opacity="0.95"><g style="filter:url(#_Effect28);"><path d="M14.868,21.676c10.015,-8.878 20.866,-13.018 24.216,-9.239c3.35,3.78 -2.061,14.056 -12.076,22.934c-10.015,8.878 -20.866,13.018 -24.216,9.238c-3.351,-3.779 2.061,-14.055 12.076,-22.933Z" style="fill:#fff;"/></g></g><g opacity="0.5"><g style="filter:url(#_Effect29);"><path d="M94.305,77.469c5.885,-11.885 15.117,-19.329 20.603,-16.613c5.486,2.716 5.162,14.571 -0.723,26.456c-5.885,11.886 -15.117,19.33 -20.603,16.614c-5.486,-2.717 -5.162,-14.571 0.723,-26.457Z" style="fill:url(#_Linear30);"/></g></g><path d="M66.444,68.511c37.79,-21.478 76.927,-24.035 87.343,-5.708c10.416,18.328 -11.808,50.644 -49.598,72.122c-37.789,21.477 -76.927,24.034 -87.343,5.707c-10.416,-18.327 11.808,-50.644 49.598,-72.121Z" style="fill:url(#_Radial31);"/><path d="M67.565,61.601c-37.644,21.734 -76.763,24.557 -87.303,6.3c-10.54,-18.256 11.464,-50.722 49.107,-72.456c37.643,-21.733 76.762,-24.556 87.303,-6.3c10.54,18.257 -11.464,50.723 -49.107,72.456Z" style="fill:url(#_Radial32);"/></g></g><defs><radialGradient id="_Radial2" cx="0" cy="0" r="1" gradientUnits="userSpaceOnUse" gradientTransform="matrix(3.91887e-15,-64,64,3.91887e-15,64,64)"><stop offset="0" style="stop-color:#fff;stop-opacity:0"/><stop offset="0.73" style="stop-color:#fff;stop-opacity:0"/><stop offset="0.87" style="stop-color:#fff;stop-opacity:0.18"/><stop offset="1" style="stop-color:#f4a261;stop-opacity:0.5"/></radialGradient><radialGradient id="_Radial3" cx="0" cy="0" r="1" gradientUnits="userSpaceOnUse" gradientTransform="matrix(3.50881e-15,-57.3032,57.3032,3.50881e-15,20.9377,4.16599)"><stop offset="0" style="stop-color:#fff;stop-opacity:0.5"/><stop offset="0.4" style="stop-color:#c08ae5;stop-opacity:0.5"/><stop offset="0.73" style="stop-color:#7258d9;stop-opacity:0.5"/><stop offset="1" style="stop-color:#6750d8;stop-opacity:0"/></radialGradient><filter id="_Effect4" filterUnits="userSpaceOnUse" x="35.1875" y="-22.1648" width="96.7833" height="96.7833"><feGaussianBlur in="SourceGraphic" stdDeviation="3"/></filter><radialGradient id="_Radial5" cx="0" cy="0" r="1" gradientUnits="userSpaceOnUse" gradientTransform="matrix(31.2788,-71.0687,71.0687,31.2788,64.442,56.001)"><stop offset="0" style="stop-color:#ec72f3;stop-opacity:1"/><stop offset="0.35" style="stop-color:#ebd288;stop-opacity:1"/><stop offset="0.54" style="stop-color:#fff;stop-opacity:1"/><stop offset="0.64" style="stop-color:#ed7df4;stop-opacity:1"/><stop offset="1" style="stop-color:#eace7e;stop-opacity:1"/></radialGradient><filter id="_Effect6" filterUnits="userSpaceOnUse" x="-2.58431" y="47.8863" width="89.9121" height="98.2856"><feGaussianBlur in="SourceGraphic" stdDeviation="3"/></filter><radialGradient id="_Radial7" cx="0" cy="0" r="1" gradientUnits="userSpaceOnUse" gradientTransform="matrix(-34.066,52.6546,-52.6546,-34.066,56.0855,75.7758)"><stop offset="0" style="stop-color:#ec72f3;stop-opacity:1"/><stop offset="0.4" style="stop-color:#ed7df4;stop-opacity:1"/><stop offset="0.54" style="stop-color:#fff;stop-opacity:1"/><stop offset="0.66" style="stop-color:#ebd288;stop-opacity:1"/><stop offset="1" style="stop-color:#eace7e;stop-opacity:1"/></radialGradient><filter id="_Effect8" filterUnits="userSpaceOnUse" x="-30.1053" y="-21.187" width="114.536" height="110.522"><feGaussianBlur in="SourceGraphic" stdDeviation="3"/></filter><radialGradient id="_Radial9" cx="0" cy="0" r="1" gradientUnits="userSpaceOnUse" gradientTransform="matrix(-29.2778,-42.7791,40.3647,-27.6254,40.0759,71.3025)"><stop offset="0" style="stop-color:#ec72f3;stop-opacity:1"/><stop offset="0.4" style="stop-color:#ed7df4;stop-opacity:1"/><stop offset="0.54" style="stop-color:#fff;stop-opacity:1"/><stop offset="0.66" style="stop-color:#ebd288;stop-opacity:1"/><stop offset="1" style="stop-color:#eace7e;stop-opacity:1"/></radialGradient><filter id="_Effect10" filterUnits="userSpaceOnUse" x="15.3442" y="79.6397" width="112.821" height="72.7726"><feGaussianBlur in="SourceGraphic" stdDeviation="3"/></filter><radialGradient id="_Radial11" cx="0" cy="0" r="1" gradientUnits="userSpaceOnUse" gradientTransform="matrix(1.09769,28.6032,-47.7316,9.42817,81.2545,93.7389)"><stop offset="0" style="stop-color:#ec72f3;stop-opacity:1"/><stop offset="0.4" style="stop-color:#ed7df4;stop-opacity:1"/><stop offset="0.54" style="stop-color:#fff;stop-opacity:1"/><stop offset="0.66" style="stop-color:#ebd288;stop-opacity:1"/><stop offset="1" style="stop-color:#eace7e;stop-opacity:1"/></radialGradient><filter id="_Effect12" filterUnits="userSpaceOnUse" x="88.7656" y="17.9228" width="72.7726" height="112.821"><feGaussianBlur in="SourceGraphic" stdDeviation="3"/></filter><radialGradient id="_Radial13" cx="0" cy="0" r="1" gradientUnits="userSpaceOnUse" gradientTransform="matrix(25.32,13.351,-15.7008,46.0509,110.601,54.9631)"><stop offset="0" style="stop-color:#ec72f3;stop-opacity:1"/><stop offset="0.4" style="stop-color:#ed7df4;stop-opacity:1"/><stop offset="0.54" style="stop-color:#fff;stop-opacity:1"/><stop offset="0.66" style="stop-color:#ebd288;stop-opacity:1"/><stop offset="1" style="stop-color:#eace7e;stop-opacity:1"/></radialGradient><filter id="_Effect14" filterUnits="userSpaceOnUse" x="-3.59755" y="67.3683" width="59.1028" height="62.537"><feGaussianBlur in="SourceGraphic" stdDeviation="0.419048"/></filter><radialGradient id="_Radial15" cx="0" cy="0" r="1" gradientUnits="userSpaceOnUse" gradientTransform="matrix(-88.4491,-93.9542,10.5067,-67.9873,65.0307,145.774)"><stop offset="0" style="stop-color:#ec72f3;stop-opacity:1"/><stop offset="0.35" style="stop-color:#ebd288;stop-opacity:1"/><stop offset="0.54" style="stop-color:#fff;stop-opacity:1"/><stop offset="0.64" style="stop-color:#ed7df4;stop-opacity:1"/><stop offset="1" style="stop-color:#eace7e;stop-opacity:1"/></radialGradient><filter id="_Effect16" filterUnits="userSpaceOnUse" x="-13.3374" y="19.5987" width="43.5222" height="73.4644"><feGaussianBlur in="SourceGraphic" stdDeviation="0.419048"/></filter><radialGradient id="_Radial17" cx="0" cy="0" r="1" gradientUnits="userSpaceOnUse" gradientTransform="matrix(-1.70965,-181.38,53.9188,-65.4344,5.3591,142.65)"><stop offset="0" style="stop-color:#ec72f3;stop-opacity:1"/><stop offset="0.35" style="stop-color:#ebd288;stop-opacity:1"/><stop offset="0.54" style="stop-color:#fff;stop-opacity:1"/><stop offset="0.64" style="stop-color:#ed7df4;stop-opacity:1"/><stop offset="1" style="stop-color:#eace7e;stop-opacity:1"/></radialGradient><filter id="_Effect18" filterUnits="userSpaceOnUse" x="72.9571" y="-0.915436" width="61.2996" height="67.0075"><feGaussianBlur in="SourceGraphic" stdDeviation="0.419048"/></filter><radialGradient id="_Radial19" cx="0" cy="0" r="1" gradientUnits="userSpaceOnUse" gradientTransform="matrix(86.0994,110.483,-18.1005,72.3684,66.128,-22.3028)"><stop offset="0" style="stop-color:#ec72f3;stop-opacity:1"/><stop offset="0.35" style="stop-color:#ebd288;stop-opacity:1"/><stop offset="0.54" style="stop-color:#fff;stop-opacity:1"/><stop offset="0.64" style="stop-color:#ed7df4;stop-opacity:1"/><stop offset="1" style="stop-color:#eace7e;stop-opacity:1"/></radialGradient><filter id="_Effect20" filterUnits="userSpaceOnUse" x="86.7924" y="8.12224" width="51.9805" height="63.006"><feGaussianBlur in="SourceGraphic" stdDeviation="0.419048"/></filter><radialGradient id="_Radial21" cx="0" cy="0" r="1" gradientUnits="userSpaceOnUse" gradientTransform="matrix(53.7922,129.329,-36.6064,64.9983,91.1661,-23.2271)"><stop offset="0" style="stop-color:#ec72f3;stop-opacity:1"/><stop offset="0.35" style="stop-color:#ebd288;stop-opacity:1"/><stop offset="0.54" style="stop-color:#fff;stop-opacity:1"/><stop offset="0.64" style="stop-color:#ed7df4;stop-opacity:1"/><stop offset="1" style="stop-color:#eace7e;stop-opacity:1"/></radialGradient><filter id="_Effect22" filterUnits="userSpaceOnUse" x="63.6252" y="51.8207" width="85.8403" height="94.8114"><feGaussianBlur in="SourceGraphic" stdDeviation="0.419048"/></filter><radialGradient id="_Radial23" cx="0" cy="0" r="1" gradientUnits="userSpaceOnUse" gradientTransform="matrix(-127.66,197.778,-96.5901,40.56,170.893,7.29314)"><stop offset="0" style="stop-color:#ec72f3;stop-opacity:1"/><stop offset="0.35" style="stop-color:#ebd288;stop-opacity:1"/><stop offset="0.54" style="stop-color:#fff;stop-opacity:1"/><stop offset="0.64" style="stop-color:#ed7df4;stop-opacity:1"/><stop offset="1" style="stop-color:#eace7e;stop-opacity:1"/></radialGradient><filter id="_Effect24" filterUnits="userSpaceOnUse" x="46.9995" y="-21.58" width="113.003" height="118.654"><feGaussianBlur in="SourceGraphic" stdDeviation="0.419048"/></filter><radialGradient id="_Radial25" cx="0" cy="0" r="1" gradientUnits="userSpaceOnUse" gradientTransform="matrix(161.683,186.689,-40.5881,135.621,33.5902,-55.9534)"><stop offset="0" style="stop-color:#ec72f3;stop-opacity:1"/><stop offset="0.35" style="stop-color:#ebd288;stop-opacity:1"/><stop offset="0.54" style="stop-color:#fff;stop-opacity:1"/><stop offset="0.64" style="stop-color:#ed7df4;stop-opacity:1"/><stop offset="1" style="stop-color:#eace7e;stop-opacity:1"/></radialGradient><filter id="_Effect26" filterUnits="userSpaceOnUse" x="-8.68301" y="-8.15003" width="144.69" height="144.69"><feGaussianBlur in="SourceGraphic" stdDeviation="0.266667"/></filter><radialGradient id="_Radial27" cx="0" cy="0" r="1" gradientUnits="userSpaceOnUse" gradientTransform="matrix(22.3876,70.1305,-70.1305,22.3876,34.0875,14.6637)"><stop offset="0" style="stop-color:#fcf9d8;stop-opacity:0.75"/><stop offset="0.2" style="stop-color:#f6eac6;stop-opacity:0.75"/><stop offset="0.42" style="stop-color:#fff;stop-opacity:0.75"/><stop offset="0.64" style="stop-color:#ed7df4;stop-opacity:0.75"/><stop offset="1" style="stop-color:#eace7e;stop-opacity:0.75"/></radialGradient><filter id="_Effect28" filterUnits="userSpaceOnUse" x="-10.5135" y="-1.64507" width="62.9024" height="60.3369"><feGaussianBlur in="SourceGraphic" stdDeviation="1"/></filter><filter id="_Effect29" filterUnits="userSpaceOnUse" x="76.6228" y="48.9148" width="55.2443" height="66.9521"><feGaussianBlur in="SourceGraphic" stdDeviation="1"/></filter><linearGradient id="_Linear30" x1="0" y1="0" x2="1" y2="0" gradientUnits="userSpaceOnUse" gradientTransform="matrix(-8.11123,-3.5907,3.5907,-8.11123,113.205,83.0755)"><stop offset="0" style="stop-color:#6195fe;stop-opacity:1"/><stop offset="1" style="stop-color:#fff;stop-opacity:0"/></linearGradient><radialGradient id="_Radial31" cx="0" cy="0" r="1" gradientUnits="userSpaceOnUse" gradientTransform="matrix(70.0491,-40.1435,19.4689,33.9725,91.7976,106.903)"><stop offset="0" style="stop-color:#fff;stop-opacity:1"/><stop offset="0.41" style="stop-color:#fad9fb;stop-opacity:0.31"/><stop offset="0.67" style="stop-color:#f9cefa;stop-opacity:0.13"/><stop offset="1" style="stop-color:#f8c8fa;stop-opacity:0"/></radialGradient><radialGradient id="_Radial32" cx="0" cy="0" r="1" gradientUnits="userSpaceOnUse" gradientTransform="matrix(-69.775,40.618,-19.699,-33.8396,41.951,23.3821)"><stop offset="0" style="stop-color:#fff;stop-opacity:0.75"/><stop offset="0.41" style="stop-color:#fad9fb;stop-opacity:0.23"/><stop offset="0.67" style="stop-color:#f9cefa;stop-opacity:0.09"/><stop offset="1" style="stop-color:#f8c8fa;stop-opacity:0"/></radialGradient></defs></svg>