<?xml version="1.0" encoding="UTF-8" standalone="no"?><!DOCTYPE svg PUBLIC "-//W3C//DTD SVG 1.1//EN" "http://www.w3.org/Graphics/SVG/1.1/DTD/svg11.dtd"><svg width="100%" height="100%" viewBox="0 0 1144 1144" version="1.1" xmlns="http://www.w3.org/2000/svg" xmlns:xlink="http://www.w3.org/1999/xlink" xml:space="preserve" xmlns:serif="http://www.serif.com/" style="fill-rule:evenodd;clip-rule:evenodd;stroke-linecap:round;stroke-linejoin:round;stroke-miterlimit:1.5;"><g><path id="Head" d="M336.95,840.51c32.902,87.052 72.679,156.34 157.711,212.461c81.716,53.932 211.644,80.082 280.286,53.933c68.641,-26.15 150.357,-113.585 175.689,-205.924c25.332,-92.339 49.029,-213.279 30.235,-312.972c-18.795,-99.693 -121.553,-233.912 -374.872,-214.3c-253.319,19.612 -327.312,312.652 -269.049,466.802Z" style="fill:#fbc7b4;"/><path id="Hair:-Back" serif:id="Hair: Back" d="M640.66,186.278c13.497,-23.138 37.599,-54.953 24.102,-87.732c-13.497,-32.779 -28.923,-39.528 -40.492,-43.384c-1.928,18.318 -7.713,39.528 -15.425,47.24c-6.749,-23.138 -13.497,-53.024 -62.666,-69.414c-49.168,-16.389 -81.947,1.928 -94.48,6.749c22.174,21.21 50.132,30.85 53.989,65.558c-55.917,-21.21 -85.804,-27.959 -119.547,-3.857c-33.743,24.102 -56.881,90.624 -53.025,119.547c43.384,-11.569 26.995,19.281 19.282,27.958c-7.713,8.677 -27.958,61.702 -107.977,53.989c4.83,24.779 27.589,24.498 33.373,26.426c-17.549,17.262 -79.235,96.949 -140.6,96.454c51.962,27.713 78.191,12.372 82.645,11.382c-5.444,16.826 -12.372,54.932 -24.744,73.737c-12.372,18.806 -67.799,53.447 -64.334,63.84c3.464,10.392 65.324,-0 118.771,-53.942c53.447,-53.942 377.63,-311.413 391.128,-334.551Z" style="fill:#6f4b3e;"/><path id="Plate" d="M723.59,142.451l23.68,61.567c0,0 -526.296,175.142 -532.882,145.819c-6.586,-29.324 509.202,-207.386 509.202,-207.386Z" style="fill:#463d39;"/><path id="Hair:-Base" serif:id="Hair: Base" d="M473.95,563.506c-20.444,10.903 -127.783,90.055 -154.164,225.22c-30.938,-62.609 -78.874,-186.56 -68.848,-286.815c10.025,-100.255 64.71,-228.08 235.143,-287.322c170.433,-59.241 318.993,30.988 375.5,82.027c56.507,51.039 78.381,117.572 86.584,161.319c-46.402,-54.135 -139.763,-13.53 -233.988,-11.004c-116.762,3.129 -232.948,-13.537 -240.227,116.575Z" style="fill:#563d34;"/><path id="Hair:-Front" serif:id="Hair: Front" d="M724.87,495.303c-22.885,-55.577 -114.838,-44.659 -151.294,-30.077c-36.456,14.583 -103.901,73.825 -99.344,154.028c-57.418,-110.28 -41.924,-173.167 -16.405,-214.18c25.52,-41.014 110.28,-103.901 199.598,-38.28c37.593,27.619 59.242,70.179 59.242,70.179c-0,0 13.671,-83.85 99.343,-89.318c85.673,-5.469 129.244,32.427 140.903,73.494c8.038,28.312 -5.562,66.627 5.834,100.585c6.333,18.871 20.051,43.747 50.128,48.304c-51.039,8.203 -80.476,-5.562 -92.324,-18.322c-11.848,-12.759 -19.78,-79.198 -68.084,-95.604c-48.305,-16.405 -95.698,11.849 -98.432,38.28c-2.735,12.759 -22.785,14.582 -29.165,0.911Z" style="fill:#6f4b3e;"/><path id="Ear:-Base" serif:id="Ear: Base" d="M368.89,678.885c-29.771,-22.586 -95.475,-9.24 -106.768,41.064c-11.293,50.305 9.24,95.476 42.091,110.875c32.852,15.399 60.48,13.261 74.944,-2.053c17.452,-18.479 19.505,-127.301 -10.267,-149.886Z" style="fill:#fbc7b4;"/><path id="Ear:-In" serif:id="Ear: In" d="M337.06,730.216c-10.266,10.266 -26.692,23.612 -18.479,40.038c8.213,16.426 22.586,17.452 29.772,7.186c7.186,-10.266 -7.186,-23.612 -10.266,-23.612c-3.08,0 9.239,-33.879 -1.027,-23.612Z" style="fill:#ce9683;"/><ellipse id="Cheeks" cx="492.8" cy="812.504" rx="118.349" ry="92.46" style="fill:url(#_Radial1);"/><path id="Cheeks1" serif:id="Cheeks" d="M948.53,908.22c-24.633,7.948 -49.971,6.326 -70.641,-6.781c-43.096,-27.328 -49.686,-94.3 -14.707,-149.463c30.451,-48.021 82.43,-71.364 123.809,-58.575c-3.376,72.066 -19.505,146.15 -36.356,207.577c-0.664,2.417 -1.366,4.832 -2.105,7.242Z" style="fill:url(#_Radial2);"/><path id="Mouth:-Base" serif:id="Mouth: Base" d="M476.77,883.29c21.527,51.78 101.816,144.288 133.234,166.978c31.417,22.691 96.66,51.352 153.597,21.527c73.308,-38.399 115.198,-127.416 139.052,-177.451c5.309,-11.135 3.491,-20.363 -1.745,-15.127c-5.236,5.236 -63.235,35.948 -127.959,46.341c-67.336,10.813 -114.344,3.863 -178.574,-10.597c-76.734,-17.276 -122.834,-44.248 -117.605,-31.671Z" style="fill:#563d34;"/><path id="Mouth:-Tongue" serif:id="Mouth: Tongue" d="M591.97,1027.47c53.004,-41.856 160.084,-39.614 218.445,2.383c-59.987,62.56 -144.069,67.863 -218.445,-2.383Z" style="fill:#a75069;"/><path id="Mouth:-Teeth" serif:id="Mouth: Teeth" d="M496.68,884.78c0,0 -0.512,22.151 1.238,24.777c1.751,2.625 80.97,33.154 133.031,40.259c47.219,6.444 131.719,7.439 165.414,-0.875c33.695,-8.315 79.643,-28.882 86.207,-31.07c6.564,-2.188 8.403,-32.177 4.759,-30.445c-70.349,33.434 -176.066,75.614 -390.649,-2.646Z" style="fill:#f2ebe8;"/><path id="Nose" d="M710.4,851.53c0,10.596 32.543,29.516 47.679,28.759c15.136,-0.757 48.485,-26.823 49.193,-32.543c1.066,-8.61 -37.084,-2.27 -48.436,-1.513c-11.353,0.756 -48.436,-5.298 -48.436,5.297Z" style="fill:#ce9683;"/><path id="Lash" d="M592.24,687.865c-1.338,6.468 -20.809,-3.634 -29.396,-19.818c-8.588,-16.185 19.06,18.456 29.396,19.818Z" style="fill:#250f08;"/><path id="Lash1" serif:id="Lash" d="M584.09,698.382c-0.348,7.468 -20.821,3.564 -34.344,-8.798c-13.523,-12.362 13.036,9.029 34.344,8.798Z" style="fill:#250f08;"/><path id="Eye" d="M598.02,771.167c16.968,0.98 32.939,-29.414 32.939,-44.122c0,-14.707 -5.989,-48.043 -26.95,-48.043c-20.961,0 -28.946,31.375 -28.946,49.024c0,17.648 5.988,42.16 22.957,43.141Z" style="fill:#250f08;"/><path d="M611.97,704.654c9.124,1.303 10.428,11.08 10.428,17.597c0,6.518 -4.562,16.294 -8.473,16.946c-3.911,0.652 -11.08,-9.124 -11.08,-14.339c0,-5.214 0,-21.508 9.125,-20.204Z" style="fill:#f2ebe8;"/><path id="Lash2" serif:id="Lash" d="M898.1,702.999c2.567,7.709 19.196,1.704 28.463,-13.618c9.267,-15.321 -10.608,8.786 -28.463,13.618Z" style="fill:#250f08;"/><path id="Lash3" serif:id="Lash" d="M895.24,716.438c-0.358,3.67 16.423,9.208 29.653,-1.001c13.23,-10.208 -12.249,4.322 -29.653,1.001Z" style="fill:#250f08;"/><path id="Eye1" serif:id="Eye" d="M890.95,692.485c16.372,0.963 20.224,31.781 20.224,51.042c-0,19.261 -6.741,38.523 -26.965,37.56c-20.225,-0.964 -21.188,-25.04 -21.188,-43.338c-0,-18.298 11.557,-46.227 27.929,-45.264Z" style="fill:#250f08;stroke:#000;stroke-width:0.75px;"/><path d="M897.64,714.012c-9.124,1.304 -10.428,11.08 -10.428,17.598c0,6.517 4.562,16.294 8.473,16.946c3.911,0.651 11.08,-9.125 11.08,-14.339c-0,-5.214 -0,-21.508 -9.125,-20.205Z" style="fill:#f2ebe8;"/><path id="Eyebrow" d="M802.71,647.821c4.963,-9.926 45.774,-29.923 71.828,-31.784c26.054,-1.861 55.34,3.869 65.886,16.896c10.546,13.027 -32.013,-12.619 -63.6,-8.212c-31.586,4.408 -54.358,15.671 -65.621,27.669c-11.263,11.998 -13.455,5.356 -8.493,-4.569Z" style="fill:#563d34;"/><path id="Eyebrow1" serif:id="Eyebrow" d="M672.68,630.353c-6.856,-4.407 -47.875,-23.8 -80.515,-27.36c-27.708,-3.022 -57.51,-0.961 -91.354,7.047c-12.662,2.996 -3.1,6.728 2.694,5.631c19.077,-3.609 57.336,-8.589 87.558,-4.108c27.523,4.081 60.192,19.28 72.435,24.911c12.242,5.632 16.038,-1.713 9.182,-6.121Z" style="fill:#563d34;"/></g><defs><radialGradient id="_Radial1" cx="0" cy="0" r="1" gradientUnits="userSpaceOnUse" gradientTransform="matrix(102.378,48.0767,-28.6873,61.0888,495.27,808.806)"><stop offset="0" style="stop-color:#e66b8b;stop-opacity:0.33"/><stop offset="1" style="stop-color:#fbc7b4;stop-opacity:0.33"/></radialGradient><radialGradient id="_Radial2" cx="0" cy="0" r="1" gradientUnits="userSpaceOnUse" gradientTransform="matrix(1.98564,85.81,-77.5497,45.3424,956.79,803.027)"><stop offset="0" style="stop-color:#e66b8b;stop-opacity:0.33"/><stop offset="1" style="stop-color:#fbc7b4;stop-opacity:0.33"/></radialGradient></defs></svg>