<?xml version="1.0" standalone="no"?>
<!DOCTYPE svg PUBLIC "-//W3C//DTD SVG 20010904//EN"
 "http://www.w3.org/TR/2001/REC-SVG-20010904/DTD/svg10.dtd">
<svg version="1.0" xmlns="http://www.w3.org/2000/svg"
 width="700.000000pt" height="700.000000pt" viewBox="0 0 700.000000 700.000000"
 preserveAspectRatio="xMidYMid meet">
<metadata>
Created by potrace 1.14, written by Peter Selinger 2001-2017
</metadata>
<g transform="translate(0.000000,700.000000) scale(0.100000,-0.100000)"
fill="#000000" stroke="none">
<path d="M2970 6825 c-36 -7 -97 -25 -137 -40 l-72 -27 42 -35 c23 -19 49 -40
57 -46 134 -105 183 -159 212 -236 24 -61 24 -85 1 -76 -40 15 -253 85 -280
91 -15 3 -75 8 -134 10 -125 4 -189 -14 -284 -81 -99 -71 -157 -144 -230 -297
-46 -95 -92 -236 -101 -311 -3 -23 -7 -56 -9 -72 -7 -48 3 -55 67 -46 76 10
108 -6 108 -55 0 -42 -6 -55 -78 -163 -141 -208 -284 -289 -525 -296 -54 -2
-101 -5 -104 -8 -8 -9 7 -46 33 -76 l24 -29 -90 -48 c-88 -47 -160 -101 -160
-122 0 -26 130 -25 259 2 22 5 19 0 -20 -40 -150 -156 -275 -262 -394 -332
-77 -45 -200 -90 -258 -94 -20 -1 -37 -5 -37 -9 0 -12 145 -68 213 -83 72 -15
163 -14 222 3 21 6 40 9 42 7 4 -3 -5 -39 -52 -212 -22 -81 -64 -186 -90 -225
-29 -44 -75 -88 -215 -204 -115 -95 -180 -160 -180 -181 0 -43 112 -40 246 7
132 46 324 162 416 251 13 13 33 31 45 41 l21 18 1 -103 c1 -57 3 -114 5 -128
3 -14 7 -52 10 -85 12 -125 85 -474 116 -555 6 -14 12 -34 15 -45 2 -11 11
-41 19 -67 14 -43 13 -47 -5 -64 -35 -32 -80 -138 -93 -222 -34 -209 22 -409
149 -537 67 -68 139 -107 247 -134 l71 -18 29 -74 c218 -554 489 -915 895
-1193 174 -119 381 -220 598 -291 91 -30 253 -73 305 -82 19 -3 40 -6 45 -8
150 -33 399 -48 560 -32 319 31 614 219 936 593 14 17 58 75 96 130 200 287
283 499 393 1008 31 144 31 140 55 286 23 137 24 140 30 195 3 28 8 61 10 75
22 151 35 547 21 665 -2 17 -7 66 -10 110 -6 69 -28 199 -41 245 -4 12 9 16
68 18 39 1 81 4 92 6 11 3 25 5 30 6 6 0 -14 9 -43 20 -121 43 -209 156 -251
323 -16 61 -18 105 -15 297 3 219 3 227 -22 300 -30 90 -102 192 -172 247 -29
22 -68 67 -93 108 -170 274 -356 454 -659 637 -155 93 -416 215 -499 233 -42
9 -31 18 59 45 36 11 71 24 78 29 10 6 -4 51 -59 193 l-72 186 -166 -58 c-91
-32 -186 -66 -210 -74 -61 -22 -63 -21 -34 30 70 125 89 254 54 357 -25 73
-79 162 -123 203 -30 29 -103 74 -119 74 -6 0 -12 -23 -25 -100 -10 -55 -61
-180 -73 -180 -4 0 -18 33 -30 73 -23 70 -76 166 -110 197 -85 79 -169 125
-292 160 -92 26 -241 33 -329 15z"/>
</g>
</svg>
