<?xml version="1.0" encoding="UTF-8" standalone="no"?>
<!DOCTYPE svg PUBLIC "-//W3C//DTD SVG 1.1//EN" "http://www.w3.org/Graphics/SVG/1.1/DTD/svg11.dtd">
<svg width="100%" height="100%" viewBox="0 0 863 962" version="1.1" xmlns="http://www.w3.org/2000/svg" xmlns:xlink="http://www.w3.org/1999/xlink" xml:space="preserve" xmlns:serif="http://www.serif.com/" style="fill-rule:evenodd;clip-rule:evenodd;stroke-linejoin:round;stroke-miterlimit:2;">
    <g id="kruemel-with-ball">
        <ellipse cx="639.286" cy="850.588" rx="458.413" ry="113.356" style="fill:rgb(240,229,216);"/>
        <path d="M682.642,369.364C682.642,365.652 685.714,360.642 686.982,357.2C690.143,348.621 692.998,341.107 694.622,332.109C696.978,319.058 694.418,307.442 690.821,294.688C685.927,277.337 677.041,270.276 665.207,255.589C664.942,255.26 664.565,255.036 664.24,254.759C655.433,247.257 649.218,239.427 641.682,230.686C636.348,224.498 629.944,216.526 626.677,208.905C621.731,197.364 622.136,184.732 623.18,172.723C624.091,162.253 623.701,150.819 627.228,140.78C629.195,135.182 632.581,130.094 635.574,125.007C650.939,98.885 687.016,72.718 718.799,83.885C747.748,94.056 739.365,126.335 744.044,149.731C746.336,161.188 753.581,176.897 761.945,185.262C766.197,189.513 770.651,193.051 775.97,195.635C779.633,197.415 784.274,199.226 787.983,200.93C794.555,203.95 801.696,204.506 808.806,205.124C818.732,205.987 830.068,204.405 838.752,198.879C844.106,195.472 848.988,188.984 852.3,183.78C861.575,169.204 864.239,154.843 861.424,137.553C860.375,131.106 857.415,120.287 855.012,114.235C844.388,87.475 823.421,73.869 808.374,51.254C801.363,40.715 791.311,32.485 781.064,24.882C772.069,18.209 762.536,14.169 752.29,9.778C740.2,4.597 729.937,2.544 716.602,1.125C700.784,-0.558 687.017,-0.091 672.031,4.661C664.706,6.983 653.663,10.151 646.903,13.928C638.411,18.674 627.29,24.755 619.367,30.277C605.887,39.672 597.802,47.545 587.775,61.06C581.093,70.065 575.779,77.856 570.025,87.244C566.089,93.665 559.671,104.619 555.908,111.154C545.615,129.032 543.194,151.56 546.548,172.159C548.116,181.792 549.553,190.375 552.619,199.574C555.102,207.023 559.434,215.578 562.571,222.775C566.623,232.071 573.358,240.79 579.951,248.437C584.328,253.515 589.102,258.407 594.368,262.583C600.093,267.124 605.049,274.614 608.492,281.298C612.618,289.306 614.148,295.491 614.71,304.29C615.22,312.277 616.465,321.197 614.731,329.097C613.211,336.02 604.188,340.899 605.634,348.542C606.991,355.713 617.086,356.686 622.784,357.722C633.478,359.666 644.775,362.84 655.185,365.963C662.436,368.138 669.782,371.096 677.468,371.096L682.642,369.364Z" style="fill:rgb(244,162,97);"/>
        <path d="M683.775,723.025C683.775,725.283 688.556,730.415 689.7,732.522C692.019,736.795 693.227,741.438 695.341,745.791C697.653,750.551 700.919,754.564 701.417,760.045C702.515,772.128 693.773,776.111 686.913,784.164C680.847,791.285 676.391,800.548 669.554,806.914C667.009,809.283 663.828,810.328 660.724,811.754C652.501,815.533 644.258,818.15 635.12,819.165C630.12,819.721 623.062,818.9 618.368,817.492C609.871,814.943 605.236,812.479 603.674,802.441C602.68,796.049 604.603,790.562 605.777,784.398C606.16,782.391 604.567,787.272 603.023,791.241C600.794,796.974 598.804,803.475 593.943,807.615C589.097,811.743 584.306,813.986 578.342,814.913C572.751,815.783 564.867,812.398 559.203,811.24C546.827,808.708 542.376,798.602 546.741,787.836C548.268,784.07 548.574,784.458 546.708,787.502C544.215,791.569 541.917,797.209 537.711,799.787C530.698,804.085 516.315,800.508 511.79,793.828C508.171,788.485 509.22,780.735 511.64,775.184C516.226,764.662 524.232,755.965 530.217,746.275C538.758,732.447 551.07,726.364 565.018,719.002C577.063,712.645 589.117,702.9 602.673,699.924C612.341,697.802 619.497,697.834 628.832,700.116C632.652,701.05 637.566,702.719 641.363,703.713C645.965,704.918 665.664,711.409 670.839,713.845L683.775,723.025Z" style="fill:rgb(248,200,161);"/>
        <path d="M433.384,529.207C437.109,529.207 443.164,525.601 446.382,523.908C466.294,513.428 471.957,493.721 475.612,472.708C478.268,457.434 477.1,441.676 480.223,426.411C485.912,398.597 500.003,375.752 519.843,355.912C530.181,345.574 539.626,337.222 556.772,332.941C570.301,329.562 583.907,329.721 597.269,330.249C610.796,330.785 626.643,334.953 639.435,340.139C651.46,345.014 664.583,352.427 676.844,356.621C692.92,362.121 705.351,375.988 717.549,388.522C726.252,397.464 729.934,410.191 735.137,420.903C741.656,434.323 748.907,451.169 749.867,466.219C750.876,482.02 746.499,497.01 744.777,512.516C743.512,523.899 743.383,535.531 741.543,546.837C740.127,555.53 736.433,563.767 734.052,572.207C731.365,581.736 729.54,591.477 726.854,601C723.041,614.519 714.357,626.462 711.332,640.244C707.643,657.048 705.027,677.576 702.235,694.324C700.373,705.493 703.664,717.637 702.152,729.229C701.011,737.974 707.825,754.052 701.511,760.834C695.96,753.624 692.228,735.801 678.364,724.175C664.043,712.165 651.667,706.815 636.605,703.477C623.029,700.469 620.994,699.754 610.237,698.993C615.315,677.662 620.612,660.517 622.014,638.554C622.446,631.776 622.925,624.834 624.017,618.129C624.32,616.267 625.389,612.382 622.744,611.577C618.308,610.228 616.068,619.214 614.836,621.822C609.281,633.585 604.148,645.33 599.022,657.29C591.791,674.162 586.065,690.801 580.515,708.302C577.98,716.299 577.374,724.778 574.736,732.692C569.334,748.898 559.697,759.307 552.404,774.754C548.523,782.975 536.699,805.327 529.5,805.151C516.812,804.842 500.294,766.096 500.294,756.168C500.294,731.288 495.112,709.202 483.207,685.959C473.438,666.887 471.579,652.435 460.5,634.131C453.915,623.252 457.532,603.626 449.157,594.01C438.775,582.091 430.494,571.63 424.746,556.685C422.46,550.741 420.078,545.233 421.449,538.721L433.384,529.207Z" style="fill:rgb(244,162,97);"/>
        <path d="M233.896,798.843C236.86,798.843 239.592,800.004 242.675,799.628C247.208,799.075 251.224,796.612 255.778,796.106C267.462,794.808 279.9,794.998 291.346,792C309.682,787.198 328.792,780.483 347.812,780.483C351.754,780.483 355.934,780.086 359.779,781.117C365.465,782.643 370.769,786.085 376.22,788.295C380.857,790.175 386.359,791.908 388.805,796.657C392.397,803.628 389.441,810.622 385.834,816.886C383.257,821.363 382.026,826.985 378.657,830.94C373.226,837.315 362.919,839.603 355.206,841.673C348.703,843.417 342.08,846.689 336.162,849.901C332.991,851.622 330.457,853.576 326.781,854.174C312.717,856.464 301.451,848.379 288.709,844.961C272.824,840.699 253.216,842.781 241.657,828.553L233.896,798.843Z" style="fill:rgb(244,162,97);"/>
        <path d="M516.98,772.603C516.98,774.644 529.411,782.739 529.916,784.805C531.171,789.94 531.466,795.869 530.884,801.112C528.136,825.84 510.726,841.978 496.266,860.382C489.927,868.45 484.192,882.648 472.815,884.5C464.306,885.886 458.272,882.392 450.666,879.61C439.146,875.395 428.09,869.901 416.533,865.856C401.519,860.601 385.519,854.658 372.953,844.692C369.624,842.052 364.711,839.656 362.788,835.696C359.966,829.885 357.822,818.977 364.006,814.498C370.057,810.116 378.106,809.123 385.204,807.671C392.755,806.127 400.494,803.415 407.437,800.043C416.737,795.526 422.604,788.348 430.754,782.301C449.274,768.56 473.719,757.003 496.884,764.725L516.98,772.603Z" style="fill:rgb(244,162,97);"/>
        <path d="M315.858,857.256C311.66,857.256 307.415,859.173 303.223,859.61C294.201,860.549 286.594,860.487 278.086,864.133C272.142,866.68 267.604,871.291 261.896,874.231C254.195,878.198 246.063,878.116 237.711,879.255C232.498,879.966 226.319,881.25 221.186,879.539C211.157,876.196 210.277,859.91 210.738,866.82C211,870.747 209.897,874.299 205.647,875.149C200.356,876.207 195.856,875.269 191.109,873.93C184.765,872.141 179.171,869.604 174.802,863.716C168.799,855.625 168.505,844.123 170.729,835.224C173.953,822.328 180.436,809.849 191.794,801.625C194.94,799.347 199.093,797.966 202.743,796.718C206.498,795.433 210.467,795.63 214.36,795.215C223.907,794.2 233.01,794.304 242.584,794.915C251.943,795.512 261.358,794.371 270.792,794.948C277.147,795.337 282.949,797.657 289.219,798.353C294.748,798.968 300.275,799.558 305.844,799.672C309.548,799.748 313.8,799.26 317.227,800.974C321.171,802.946 327.338,806.488 328.844,810.888C330.977,817.124 327.67,823.887 328.226,830.283C329.131,840.69 333.121,847.2 324.221,855.415L315.858,857.256Z" style="fill:rgb(248,200,161);"/>
        <path d="M355.604,895.076C348.555,895.076 347.411,894.668 340.432,893.557C337.336,893.065 333.259,892.825 330.768,890.703C327.784,888.162 327.126,882.981 326.228,879.387C324.19,871.236 327.064,864.167 330.234,856.77C333.531,849.077 336.426,841.971 341.784,835.422C345.194,831.255 349.632,828.464 353.801,825.157C362.929,817.918 373.281,811.274 384.997,809.451C396.942,807.593 408.44,809.124 420.198,810.953C426.319,811.906 432.761,810.846 438.759,812.456C442.851,813.553 447.517,814.84 451.144,817.062C453.936,818.774 455.755,821.675 457.937,824.039C462.929,829.447 468.108,834.751 471.507,841.348C479.972,857.78 480.013,881.969 462.277,892.84C454.753,897.451 448.835,898.797 440.416,900.71C435.329,901.866 431.677,902.41 426.706,903.98C424.105,904.801 418.663,904.733 416.038,903.42C412.963,901.883 408.749,898.792 407.864,895.694C405.547,887.586 406.445,882.49 406.195,886.414C405.964,890.021 406.618,893.934 405.293,897.38C402.815,903.823 391.824,903.592 385.63,902.232C380.511,901.108 372.822,900.653 369.491,896.452C367.651,894.132 367.804,893.337 366.197,890.812C361.823,883.938 363.198,866.49 362.931,872.226C362.611,879.108 363.238,884.429 360.011,891.287L355.604,895.076Z" style="fill:rgb(248,200,161);"/>
        <path d="M468.637,498.66C469.262,498.66 470.499,500.271 476.069,501.74C487.753,504.82 500.418,504.645 512.416,502.463C515.825,501.843 520.236,500.312 522.74,497.809C523.756,496.792 524.907,494.602 523.976,493.228C523.282,492.203 521.345,492.272 520.284,492.505C518.744,492.843 517.364,493.769 515.943,494.424C511.697,496.383 503.007,495.344 492.96,493.5C482.65,491.608 473.995,488.396 472.422,487.899L468.637,498.66Z" style="fill:rgb(105,70,49);"/>
        <path d="M488.625,400.155C489.536,400.155 491.871,402.098 492.776,402.514C497.81,404.827 502.681,408.629 508.098,409.925C514.876,411.546 522.989,412.158 529.918,411.404C536.071,410.736 542.162,408.622 548.233,407.465C552.931,406.571 557.776,406.293 562.343,404.695C564.522,403.932 566.458,402.065 565.625,399.565C563.838,394.205 554.774,394.324 550.503,394.881C538.683,396.422 525.126,397.364 513.561,393.301C507.896,391.31 502.582,386.661 496.96,384.474L488.625,400.155Z" style="fill:rgb(105,70,49);"/>
        <path d="M477.776,453.009C480.823,453.009 483.884,453.628 486.956,453.565C495.863,453.383 504.749,452.913 513.661,452.731C519.163,452.618 524.342,451.301 529.907,451.785C534.198,452.158 537.758,451.829 541.791,450.26C543.28,449.681 545.34,448.738 545.34,446.867C545.34,443.552 539.049,442.309 536.65,441.982C526.66,440.62 516.463,442.149 506.373,440.58C502.412,439.964 499.304,437.982 495.535,436.919C492.375,436.028 488.968,435.771 485.721,435.328C484.522,435.164 478.69,433.751 478.889,436.14L477.776,453.009Z" style="fill:rgb(105,70,49);"/>
        <path d="M527.56,348.613C528.814,348.613 530.572,350.73 531.526,351.386C534.496,353.428 537.449,355.373 540.661,357.027C549.026,361.337 558.56,361.69 567.333,364.761C569.587,365.55 572.009,366.008 574.042,367.32C578.114,369.947 580.279,373.546 583.423,377.067C584.67,378.464 586.097,380.047 588.118,379.104C590.276,378.096 591.384,375.413 591.779,373.24C592.827,367.477 590,361.921 586.227,357.695C578.58,349.131 571.68,340.108 560.423,336.153C556.611,334.813 552.846,333.66 548.75,334.517C545.418,335.215 538.711,339.989 535.973,341.871L527.56,348.613Z" style="fill:rgb(105,70,49);"/>
        <path d="M614.16,332.283C614.16,332.283 603.923,345.858 599.918,348.306C595.912,350.754 612.38,352.757 612.38,352.757L623.062,346.081C623.062,346.081 624.62,356.095 621.504,359.656C618.389,363.216 637.972,354.092 639.753,353.647C641.533,353.202 644.204,360.101 639.53,365.219C634.857,370.338 654.886,369.893 658.001,362.994C661.117,356.095 665.79,370.338 661.339,374.343C656.888,378.349 678.03,368.335 678.92,365.664C679.81,362.994 679.534,365.622 684.345,371.096C689.157,376.569 694.053,367.222 688.935,362.104C683.816,356.985 689.38,348.306 691.16,344.3C692.94,340.294 692.273,331.838 682.703,338.737C673.134,345.635 674.914,344.395 675.805,334.222C676.695,324.049 658.669,356.317 660.004,335.399C661.339,314.48 654.44,333.046 648.877,334.222C643.313,335.399 641.756,334.953 642.868,327.387C643.981,319.821 630.183,327.635 627.513,329.959C624.842,332.283 619.056,324.049 619.056,316.482C619.056,308.916 613.938,332.283 614.16,332.283Z" style="fill:rgb(105,70,49);"/>
        <path d="M611.045,286.217C608.605,281.337 612.38,262.405 617.498,269.748C622.617,277.092 627.958,289.11 630.406,283.324C632.854,277.537 635.524,272.419 633.967,267.746C632.409,263.072 645.023,268.413 645.615,271.751C646.206,275.09 655.776,270.639 654.886,265.743C653.995,260.847 660.894,262.182 660.894,262.182C660.894,262.182 673.802,271.529 673.357,274.422C672.911,277.315 672.021,262.405 672.021,262.405C672.802,262.008 688.341,280.27 691.94,298.902C684.331,306.883 672.466,292.003 672.466,292.003L670.464,300.904L663.787,294.006C663.787,294.006 662.007,300.682 661.562,306.245C661.117,311.809 645.023,304.91 645.615,300.904C646.206,296.899 644.649,306.468 642.201,309.138C639.753,311.809 632.854,309.584 632.854,305.133C632.854,300.682 631.074,309.584 627.068,312.032C623.062,314.48 615.496,307.803 615.05,304.91C614.605,302.017 612.38,288.887 611.045,286.217Z" style="fill:rgb(105,70,49);"/>
        <path d="M561.625,220.988C561.242,217.165 557.844,201.246 561.182,204.139C564.52,207.032 574.535,213.708 574.535,213.708L573.867,201.913C573.867,201.913 578.095,213.485 581.879,211.26C585.662,209.035 587.22,199.91 587.22,199.91C587.22,199.91 595.454,200.355 595.676,203.248C595.899,206.141 602.575,205.251 602.575,200.8C602.575,196.35 597.679,195.682 601.907,191.231C606.136,186.78 616.595,195.682 618.376,198.798C620.156,201.913 622.159,189.896 622.159,189.896C622.635,189.777 624.616,213.093 638.182,226.393C641.075,237.965 629.503,236.852 626.61,234.182C623.717,231.511 610.809,232.624 614.37,236.407C617.931,240.19 613.925,246.199 613.925,246.199L601.685,242.638L595.454,246.199L591.999,236.852C591.999,236.852 586.552,244.196 588.555,247.757C590.558,251.318 581.474,249.404 578.975,247.191C576.399,244.91 561.992,224.65 561.625,220.988Z" style="fill:rgb(105,70,49);"/>
        <path d="M561.913,100.947C560.575,103.67 561.001,115.44 557.902,123.006C554.803,130.571 569.479,120.362 572.851,117.536C576.224,114.711 578.776,127.837 576.771,130.389C574.765,132.941 584.792,132.03 589.441,128.384C594.09,124.738 600.38,127.563 596.642,137.773C592.905,147.982 607.034,149.076 608.31,145.885C609.586,142.695 614.144,138.046 614.144,138.046C614.144,138.046 619.538,144.723 620.889,150.899C622.165,156.732 626.706,142.318 628.911,137.043C635.044,122.369 645.038,116.117 645.045,111.794C645.046,110.775 640.122,105.048 634.836,107.692C629.549,110.335 629.002,103.134 629.366,102.04C629.731,100.947 624.626,92.56 624.626,92.56C624.626,92.56 618.428,99.032 612.594,99.579C606.76,100.126 605.12,93.928 606.851,90.282C608.583,86.635 606.76,78.341 600.562,80.893C594.363,83.445 586.068,89.735 586.068,89.735C586.068,89.735 579.414,80.437 581.146,78.158C582.878,75.879 577.064,75.127 572.76,82.716C568.482,90.258 563.262,98.201 561.913,100.947Z" style="fill:rgb(105,70,49);"/>
        <path d="M628.32,24.484C627.83,28.562 631.659,35.055 641.673,33.942C651.687,32.829 649.529,41.453 645.045,43.122C640.56,44.791 653.913,46.182 656.973,49.798C660.033,53.415 660.033,53.415 655.304,57.587C650.575,61.76 658.642,68.158 658.642,68.158C658.642,68.158 667.265,72.509 663.927,76.592C660.589,80.676 649.462,92.638 658.642,89.3C667.822,85.961 672.601,89.655 675.383,88.264C678.165,86.873 698.029,78.591 711.938,82.208C725.847,85.824 705.866,68.714 703.812,68.436C701.759,68.158 717.616,62.038 717.616,62.038C717.616,62.038 727.352,51.467 713.999,52.302C700.647,53.136 698.978,47.017 701.759,43.122C704.541,39.228 710.939,35.889 710.939,35.889L703.812,25.597C703.812,25.597 701.481,20.033 706.21,18.086C710.939,16.139 721.51,13.357 711.217,9.184C700.925,5.012 703.899,-0.06 690.632,0.238C675.815,0.57 628.934,19.384 628.32,24.484Z" style="fill:rgb(105,70,49);"/>
        <path d="M738.102,101.35C740.979,110.279 735.523,137.827 751.01,169.003C764.467,196.093 790.337,206.636 817.55,205.277C842.733,204.02 855.991,185.686 860.056,167.668C866.404,139.528 861.517,125.706 849.151,101.795C839.42,82.979 819.776,69.304 813.767,58.399C807.758,47.495 800.498,58.344 803.307,63.963C808.426,74.2 797.536,76.417 791.513,65.966C787.656,59.275 777.403,58.487 779.94,68.636C781.498,74.867 780.831,77.761 781.276,81.766C781.849,86.93 775.044,87.775 773.042,81.099C771.039,74.422 763.472,65.465 760.357,76.592C757.241,87.72 762.734,98.322 758.354,93.561C753.235,87.997 748.339,81.321 747.004,84.214C745.669,87.107 748.857,104.749 744.779,99.347C736.545,88.443 738.006,101.05 738.102,101.35Z" style="fill:rgb(105,70,49);"/>
        <path d="M582.738,702.079C581.957,702.079 580.797,698.41 580.704,697.897C579.569,691.658 578.706,685.746 575.036,680.407C567.433,669.349 557.3,659.525 552.399,646.782C550.311,641.353 550.723,635.589 549.843,629.935C549.003,624.535 546.906,620.215 544.662,615.331C541.871,609.256 540.546,602.242 539.968,595.597C539.864,594.402 538.651,589.83 539.916,589.025C541.257,588.171 544.882,594.321 545.462,595.232C550.163,602.619 554.201,610.517 557.702,618.547C561.245,626.675 565.913,635.496 570.672,642.975C575.03,649.823 579.648,656.727 584.407,663.299C587.262,667.241 590.798,670.869 591.999,675.676L582.738,702.079Z" style="fill:rgb(105,70,49);"/>
        <path d="M603.351,647.924C603.351,646.989 601.055,645.798 600.576,644.936C598.557,641.302 596.641,637.2 595.444,633.21C593.607,627.088 593.938,620.838 592.968,614.6C591.835,607.32 589.286,600.547 587.794,593.417C585.037,580.245 585.32,567.122 584.469,553.79C583.865,544.317 581.528,534.735 579.073,525.583C577.924,521.303 577.47,516.87 575.929,512.689C572.302,502.844 567.689,495.041 559.851,487.987C556.917,485.347 553.334,483.673 550.365,481.144C547.705,478.878 546.504,474.465 548.07,471.241C550.662,465.903 558.456,468.325 562.09,470.824C571.796,477.496 579.249,488.498 585.527,498.363C588.653,503.277 589.24,508.969 590.784,514.442C593.017,522.358 596.365,529.926 598.059,538.018C599.224,543.588 598.897,549.339 600.451,554.847C602.801,563.178 607.245,570.292 610.451,578.201C613.077,584.677 614.975,592.01 616.404,598.841C617.471,603.937 618.592,609.286 617.879,614.517L603.351,647.924Z" style="fill:rgb(105,70,49);"/>
        <path d="M642.868,557.303C642.868,554.084 643.915,550.832 643.981,547.567C644.307,531.222 644.85,514.004 640.854,498.018C638.66,489.241 632.907,470.893 627.577,463.533C625.102,460.116 621.906,457.224 619.588,453.696C617.322,450.249 616.323,446.152 614.024,442.758C611.862,439.567 608.584,437.7 605.667,435.314C599.651,430.391 593.23,426.023 587.141,421.194C584.731,419.283 579.464,417.017 577.404,420.593C575.555,423.806 577.349,427.414 579.174,430.151C580.656,432.374 582.95,433.834 584.782,435.737C588.649,439.753 592.544,444.425 595.464,449.19C604.795,464.414 615.009,478.746 622.469,495.067C625.899,502.568 625.473,511.241 627.955,519.068C628.717,521.47 630.333,523.515 631.427,525.767C633.763,530.576 637.129,543.257 638.74,548.357L642.868,557.303Z" style="fill:rgb(105,70,49);"/>
        <path d="M704.481,375.43C704.014,376.729 700.841,379.39 700.177,380.46C694.922,388.937 670.831,407.294 631.537,398.764C626.892,397.756 621.765,394.379 618.365,391.198C616.762,389.698 615.033,387.029 612.829,386.399C609.202,385.363 609.306,392.357 609.574,394.327C610.118,398.317 613.376,401.442 616.181,404.161C633.939,421.372 667.626,428.447 683.639,423.578C694.191,420.369 703.742,413.795 712.584,407.805C716.546,405.121 721.626,402.492 725.264,399.374C723.301,394.016 716.788,386.254 704.481,375.43Z" style="fill:rgb(105,70,49);"/>
        <path d="M742.665,437.107C742.554,438.015 739.581,439.669 738.924,440.145C735.977,442.286 733.35,444.656 730.253,446.601C723.655,450.745 716.138,451.273 708.872,453.514C699.928,456.272 690.861,461.167 681.227,460.396C676.536,460.02 672.018,457.722 667.326,456.949C666.548,456.821 663.22,456.959 662.868,456.073C662.69,455.624 664.039,455.219 664.273,455.142C665.884,454.606 667.523,454.197 669.16,453.757C676.289,451.837 681.129,448.75 688.17,446.501C693.916,444.666 701.42,442.005 705.762,437.79C709.103,434.546 713.922,433.649 718.081,431.349C723.233,428.499 727.684,426.041 732.881,423.471C734.39,422.725 733.965,422.043 735.195,420.918L742.665,437.107Z" style="fill:rgb(105,70,49);"/>
        <path d="M749.894,466.646C749.894,466.976 746.927,468.053 746.643,468.176C743.092,469.711 739.599,471.34 736.246,473.27C731.328,476.101 727.371,480.198 722.198,482.711C711.2,488.053 699.43,486.315 687.773,485.301C682.959,484.883 678.239,484.467 673.395,484.467C671.973,484.467 668.718,484.465 668.457,486.466C668.227,488.235 670.823,489.886 672.056,490.708C676.545,493.701 681.37,495.044 686.695,495.507C694.844,496.216 702.692,498.919 710.741,500.236C722.5,502.16 735.139,502.135 746.765,499.367C749.018,487.119 750.439,475.792 749.894,466.646Z" style="fill:rgb(105,70,49);"/>
        <path d="M733.972,573.408C726.858,573.408 720.886,570.947 714.154,569.003C706.381,566.757 699.832,564.051 693.604,558.463C690.664,555.825 687.198,551.769 684.389,548.96C680.948,545.519 676.98,542.719 674.096,538.737C672.665,536.76 669.237,531.396 666.363,531.838C663.943,532.21 663.707,536.59 663.79,538.403C664.063,544.425 667.339,552.002 671.542,556.044C676.515,560.825 679.969,565.986 685.054,571.144C692.05,578.241 701.757,586.335 710.802,590.728C715.91,593.21 723.089,593.386 728.516,594.678L733.972,573.408Z" style="fill:rgb(105,70,49);"/>
        <path d="M623.482,622.989C631.197,622.989 635.271,618.927 641.119,614.588C644.65,611.969 648.849,610.258 652.19,607.378C655.515,604.512 658.048,600.825 660.002,596.918C661.766,593.389 662.952,589.532 664.92,586.114C665.306,585.443 666.943,583.344 665.855,582.664C664.477,581.804 662.164,583.809 661.226,584.623C657.525,587.83 655.391,592.394 651.89,595.761C647.141,600.327 640.613,601.198 634.788,603.695C631.2,605.232 628.366,607.944 624.84,609.603L623.482,622.989Z" style="fill:rgb(105,70,49);"/>
        <path d="M709.828,648.3C702.772,648.3 696.046,646.27 689.496,644.095C683.154,641.989 677.177,639.027 672.233,634.083C668.008,629.858 666.373,625.709 665.735,619.84C665.629,618.866 664.543,615.053 665.979,614.622C667.295,614.227 669.186,616.674 669.907,617.515C672.93,621.042 675.818,625.245 679.777,627.807C684.324,630.749 689.694,631.554 694.943,632.336C698.734,632.901 702.549,634.155 706.393,634.239C708.738,634.29 710.899,633.506 713.192,633.193L709.828,648.3Z" style="fill:rgb(105,70,49);"/>
        <path d="M616.713,672.735C629.349,672.735 639.647,666.071 650.733,661.144C653.588,659.875 656.248,658.484 658.711,656.549C659.596,655.853 660.964,654.755 662.171,655.247C664.073,656.021 663.091,658.957 662.672,660.354C661.21,665.227 658.569,668.436 655.072,672.049C649.171,678.147 641.669,685.945 633.419,688.695C627.155,690.783 618.634,690.757 612.079,691.303L616.713,672.735Z" style="fill:rgb(105,70,49);"/>
        <path d="M702.399,727.291C701.593,727.291 699.269,726.066 698.566,725.732C695.525,724.288 694.151,723.298 691.408,721.47C688.402,719.466 684.49,716.747 681.705,714.506C678.842,712.203 676.651,709.556 674.368,706.725C672.152,703.977 670.01,701.463 668.763,698.08C667.284,694.063 666.307,689.814 666.221,685.525C666.195,684.236 665.756,681.775 667.368,681.238C668.713,680.789 670.085,681.98 671.021,682.79C673.542,684.975 675.563,687.233 677.281,690.097C681.568,697.242 686.072,702.766 694.108,705.856C696.362,706.723 699.354,707.896 701.826,707.375C702.385,713.536 702.764,721.243 702.399,727.291Z" style="fill:rgb(105,70,49);"/>
        <path d="M561.483,789.356C561.483,790.534 559.082,792.735 558.701,794.085C557.509,798.312 558.075,802.74 559.246,806.892C560.025,809.652 560.837,812.315 562.729,814.537C563.101,814.973 564.365,816.566 565.055,815.983C565.678,815.456 565.304,814.09 565.222,813.435C564.923,811.043 564.499,808.666 564.821,806.247C565.577,800.578 569.097,797.563 573.022,793.94C570.266,790.231 566.42,788.703 561.483,789.356Z" style="fill:rgb(105,70,49);"/>
        <path d="M185.67,849.718C184.075,849.874 181.845,853.097 181.464,854.447C180.272,858.674 180.838,863.102 182.01,867.255C182.788,870.014 183.6,872.677 185.492,874.899C185.864,875.335 187.128,876.929 187.818,876.345C188.441,875.818 188.067,874.452 187.985,873.797C187.686,871.406 187.262,869.029 187.584,866.609C188.34,860.941 191.86,857.926 195.785,854.303C192.877,851.539 189.601,849.755 185.67,849.718Z" style="fill:rgb(105,70,49);"/>
        <path d="M227.288,858.867C224.542,859.147 224.887,862.246 224.506,863.596C223.314,867.823 223.88,872.251 225.052,876.403C225.83,879.163 226.642,881.826 228.534,884.048C228.906,884.484 230.17,886.078 230.86,885.494C231.483,884.967 231.109,883.601 231.027,882.946C230.728,880.555 230.304,878.177 230.626,875.758C231.382,870.089 238.691,866.153 238.827,863.451C238.963,860.749 230.034,858.587 227.288,858.867Z" style="fill:rgb(105,70,49);"/>
        <path d="M425.519,883.568C422.994,883.832 423.311,886.75 422.961,888.022C421.864,892.003 422.385,896.173 423.462,900.084C424.178,902.683 424.924,905.191 426.665,907.284C427.007,907.695 428.169,909.195 428.803,908.646C429.376,908.149 429.032,906.863 428.957,906.246C428.682,903.994 428.292,901.755 428.588,899.476C429.283,894.137 436.004,890.43 436.129,887.885C436.254,885.341 428.043,883.304 425.519,883.568Z" style="fill:rgb(105,70,49);"/>
        <path d="M382.4,879.341C379.654,879.621 379.999,882.72 379.618,884.07C378.426,888.297 378.992,892.725 380.163,896.877C380.942,899.637 381.754,902.3 383.646,904.522C384.018,904.958 385.282,906.551 385.972,905.968C386.595,905.441 386.221,904.075 386.139,903.42C385.84,901.028 385.416,898.651 385.738,896.232C386.494,890.563 393.803,886.627 393.939,883.925C394.075,881.223 385.146,879.061 382.4,879.341Z" style="fill:rgb(105,70,49);"/>
        <path d="M346.496,897.602C345.225,897.865 345.384,896.635 345.157,896.313C344.135,894.865 343.68,893.01 342.906,891.421C340.685,886.861 336.51,879.737 342.059,875.719C343.252,874.854 344.822,875.046 346.182,875.306C349.152,875.871 353.382,877.941 353.061,879.407C352.655,881.263 349.869,882.878 349.137,884.475C347.962,887.042 347.892,888.58 347.891,891.286C347.891,891.286 347.766,897.34 346.496,897.602Z" style="fill:rgb(105,70,49);"/>
        <path d="M628.831,797.438C626.926,797.438 625.384,802.684 625.069,804.009C623.703,809.747 624.169,815.648 626.634,821.014C627.219,822.286 628.517,825.283 630.095,825.599C631.054,825.79 630.971,824.157 630.938,823.632C630.778,821.12 630.458,818.666 630.737,816.148C631.366,810.49 635.11,805.75 639.295,802.163C637.181,798.458 633.672,796.916 628.831,797.438Z" style="fill:rgb(105,70,49);"/>
        <path d="M502.259,853.331C502.259,849.884 496.446,839.792 494.926,837.623C487.524,827.062 478.653,820.492 471.008,815.489C467.118,812.942 463.449,809.931 459.38,807.67C457.818,806.803 455.761,805.673 456.192,803.519C456.641,801.275 459.341,800.946 461.249,801.029C463.848,801.142 474.583,804.753 486.502,810.891C497.171,816.386 506.333,823.709 510.976,829.227C512.713,831.292 515.105,834.73 515.105,837.527L502.259,853.331Z" style="fill:rgb(105,70,49);"/>
        <path d="M551.28,777.204C550.597,773.825 547.702,771.997 545.819,769.415C544.269,767.289 542.87,765.116 540.98,763.261C538.075,760.41 534.57,758.207 531.277,755.834C529.397,754.48 527.657,752.907 525.625,751.781C521.683,749.596 517.234,748.221 513.15,746.305C508.941,744.329 504.64,742.355 500.204,740.945C498.501,740.404 496.26,739.705 496.256,737.508C496.251,735.22 498.833,734.363 500.72,734.066C503.289,733.661 505.739,734.729 508.161,735.414C510.052,735.949 512.04,736.195 513.986,736.435C517.645,736.884 520.968,737.181 524.414,738.591C526.601,739.486 528.418,741.212 530.652,741.944C534.348,743.156 538.206,744.453 541.981,745.388C544.124,745.919 546.646,745.977 548.636,746.99C551.006,748.198 553.067,750.103 555.048,751.851C557.071,753.636 560.186,756.426 560.74,759.167L551.28,777.204Z" style="fill:rgb(105,70,49);"/>
        <path d="M224.287,677.193C219.111,665.198 231.353,649.814 258.015,636.625C263.23,634.045 263.073,625.856 265.672,620.81C267.144,617.953 268.863,615.179 270.753,612.509C266.817,607.673 262.388,602.874 259.223,596.065C245.89,567.383 242.322,532.074 256.433,501.5C260.89,491.842 267.218,482.69 273.541,474.168C276.413,470.298 280.148,465.323 285.407,465.014C290.218,464.731 294.373,468.299 298.186,470.726C306.061,475.737 313.516,480.911 321.841,485.2C338.558,493.812 342.304,508.867 360.251,514.251C371.685,517.681 409.471,524.599 409.471,524.599L409.508,524.607C417.344,526.247 430.364,531.74 437.006,535.811C440.546,537.98 443.864,540.351 447.08,542.875C455.064,543.037 461.349,544.212 469.128,539.989C492.391,527.361 514.685,488.798 544.629,505.642C548.317,507.716 551.201,510.212 553.731,513.622C558.743,520.377 561.15,529.463 563.772,537.329C568.044,550.145 571.145,564.806 569.64,578.352C567.408,598.438 554.221,621.699 540.613,636.354C531.935,645.7 519.727,652.466 508.3,657.844C506.616,658.636 502.728,661.484 499.783,662.491L499.744,662.934C506.272,662.934 514.091,669.463 519.974,671.984C526.848,674.931 540.414,682.73 540.957,682.45C551.465,690.406 516.866,738.903 450.977,755.59C419.282,763.618 363.596,753.382 333.897,748.357C258.532,735.607 226.389,682.063 224.287,677.193Z" style="fill:rgb(244,162,97);"/>
        <path d="M355.01,534.916C351.726,534.916 346.543,531.809 343.46,530.61C336.463,527.889 327.655,524.432 322.212,519.176C316.768,513.92 313.478,506.576 309.861,500.065C305.826,492.802 298.27,476.651 287.945,478.2C279.421,479.478 273.102,492.553 270.386,499.614C260.918,524.233 261.476,550.182 271.371,574.591C274.417,582.104 274.787,585.505 281.171,590.825C282.856,592.23 285.488,594.425 287.731,594.715C291.001,595.137 291.706,591.264 292.371,588.906C294.365,581.834 297.553,579.051 302.016,572.888C307.466,565.362 314.631,559.644 321.611,553.627C324.824,550.857 327.402,547.422 331.058,545.181C335.739,542.312 341.655,540.365 346.781,538.371L355.01,534.916Z" style="fill:rgb(240,229,216);"/>
        <path d="M457.146,549.202C462.488,549.202 472.327,542.538 476.691,539.864C487.192,533.428 499.273,529.698 509.322,522.422C516.867,516.958 523.408,508.769 533.974,513.759C545.262,519.089 547.471,530.786 550.382,541.633C552.088,547.992 554.653,554.023 555.389,560.644C556.351,569.303 556.046,578.725 553.887,587.166C552.425,592.882 549.739,598.155 548.145,603.807C546.157,610.856 545.192,618.018 542.32,624.838C538.064,634.947 529.564,643.954 519.854,648.957C516.128,650.876 511.237,653.758 506.901,652.395C503.841,651.433 503.054,647.562 502.528,644.8C501.114,637.376 500.033,629.906 499.057,622.418C496.698,604.336 492.422,586.51 480.313,572.295C475.357,566.477 468.901,562.314 463.922,556.505L457.146,549.202Z" style="fill:rgb(240,229,216);"/>
        <path d="M300.079,576.04C299.851,576.166 299.623,576.284 299.395,576.395C295.3,578.384 290.997,579.266 286.457,579.266C284.447,579.266 281.589,579.33 279.9,578.077C276.254,575.372 283.305,569.577 285.295,567.422C285.876,566.792 288.039,565.46 287.445,564.391C286.546,562.773 283.048,562.063 281.449,561.24C277.149,559.024 273.254,554.369 270.42,550.504C269.479,549.22 268.053,546.846 268.951,545.23C269.834,543.641 271.735,543.951 273.237,544.081C276.711,544.383 280.089,544.638 283.572,544.335C285.006,544.21 287.943,544.123 288.259,542.225C288.48,540.898 287.111,539.569 286.336,538.66C284.521,536.529 282.87,534.102 281.369,531.743C278.533,527.286 278.133,521.691 278.832,516.561C279.13,514.377 279.486,509.345 282.437,509.017C284.891,508.744 287.981,513.582 289.394,515.213C295.572,522.341 299.679,531.101 305.912,538.113C312.139,545.118 321.103,544.775 329.512,546.239C326.631,548.416 324.352,551.264 321.611,553.627C314.631,559.644 307.466,565.362 302.016,572.888C301.269,573.92 300.632,574.971 300.079,576.04Z" style="fill:rgb(193,102,107);"/>
        <path d="M482.366,574.836C482.569,574.811 482.771,574.787 482.972,574.765C494.05,573.561 504.467,571.459 513.563,564.71C518.612,560.964 523.284,555.873 527.183,550.957C528.525,549.264 530.727,545.5 533.272,545.763C535.617,546.005 536.491,548.973 536.757,550.917C537.419,555.772 535.95,560.667 533.178,564.644C530.79,568.069 527.741,570.712 524.285,573.016C523.542,573.511 521.079,574.784 521.361,575.913C521.671,577.156 524.689,577.304 525.634,577.476C530.147,578.296 534.671,578.009 539.16,579.078C540.441,579.383 543.991,579.569 543.834,581.615C543.635,584.195 538.88,586.669 536.997,587.944C532.317,591.114 526.451,594.459 520.974,595.929C517.913,596.75 511.908,596.376 509.45,598.373C508.409,599.219 510.628,600.242 511.133,600.509C512.834,601.41 518.642,604.265 517.662,606.812C516.98,608.585 514.274,609.185 512.642,609.482C507.978,610.33 501.768,609.21 497.166,608.2C497.008,608.166 496.836,608.13 496.653,608.092C494.089,596.139 489.933,584.71 482.366,574.836Z" style="fill:rgb(193,102,107);"/>
        <path d="M246.604,642.87C253.511,654.258 242.71,655.793 240.266,669.541C237.232,686.611 240.739,690.182 248.257,690.182C265.121,690.182 265.894,705.784 269.359,711.438C274.569,719.939 299.236,717.766 308.172,719.221C315.301,720.381 322.635,719.898 329.82,720.523C335.749,721.038 341.573,722.702 347.496,721.074C353.439,719.439 362.252,718.677 368.276,718.353C379.501,717.75 392.345,717.367 401.285,719.071C423.762,723.354 425.307,745.715 462.086,738.996C494.945,732.993 484.01,707.791 518.961,690.022C524.62,687.145 533.99,686.037 540.957,682.45C556.519,694.233 569.152,710.624 575.458,728.571C578.741,737.914 574.226,755.077 572.389,765.18C571.9,767.87 570.863,772.888 568.383,774.506C566.441,775.772 564.512,774.261 562.896,773.233C559.055,770.789 555.308,768.267 551.358,765.993C539.799,759.338 530.75,756.318 517.725,753.95C514.378,753.342 506.717,751.116 503.705,753.324C501.839,754.693 506.164,757.823 506.959,758.561C512.312,763.532 512.933,766.689 516.39,773.421C530.141,800.198 507.972,823.474 505.397,826.391C503.367,828.692 496.635,810.532 482.113,799.658C468.048,789.125 462.199,789.576 449.967,787.999C439.714,786.676 439.806,794.322 443.672,803.579C445.934,808.997 448.013,816.909 436.192,830.345C430.27,837.076 419.775,814.569 405.796,810.765C387.343,805.744 375.116,818.616 354.128,812.824C334.649,807.448 324.987,822.453 312.165,820.366C303.653,818.98 303.253,811.962 293.365,807.257C281.732,801.721 284.997,806.093 277.793,795.459C269.882,783.78 253.106,773.503 238.953,769.483C227.755,766.302 209.275,773.142 206.586,763.122C202.229,746.883 213.152,736.438 222.192,730.449C228.129,726.517 225.139,724.746 224.262,722.57C219.213,710.045 198.137,732.157 195.561,718.805C192.609,703.499 200.145,696.073 219.232,689.198C226.814,686.466 223.966,679.273 220.635,679.119C215.707,678.893 215.284,678.771 210.027,679.482C198.451,681.047 204.437,660.746 213.876,653.035C227.27,642.092 237.466,645.75 246.604,642.87Z" style="fill:rgb(240,229,216);"/>
        <path d="M340.842,774.522L340.427,781.085C340.427,782.503 340.395,783.974 339.792,785.286C337.729,789.776 332.597,790.576 328.312,791.258C326.734,791.509 325.216,791.854 323.608,791.887C318.425,791.993 312.973,791.894 307.835,791.16C305.466,790.821 303.153,790.142 300.802,789.71C297.774,789.154 294.674,788.975 291.657,788.348C289.607,787.923 287.682,787.052 285.695,786.418C283.592,785.746 281.433,785.268 279.34,784.558C278.083,784.132 276.721,783.827 275.583,783.12C274.439,782.409 273.775,781.23 272.881,780.265C270.005,777.159 267.006,773.339 267.68,768.818C268.345,764.352 272.468,758.834 276.644,757.102C278.799,756.209 281.316,756.304 283.606,756.216C286.241,756.115 288.903,756.145 291.504,756.594C293.396,756.92 295.193,757.645 297.099,757.906C303.003,758.717 309.039,759.568 314.885,760.712C317.496,761.223 320.021,762.167 322.619,762.758C324.164,763.109 325.765,763.157 327.295,763.589C328.671,763.977 329.806,764.935 331.085,765.547C333.36,766.635 335.407,767.235 337.418,768.823C338.89,769.985 342.074,774.522 340.842,774.522Z" style="fill:rgb(40,27,19);"/>
        <path d="M294.594,763.935C290.621,763.935 284.981,768.436 281.409,770.077C272.57,774.138 259.115,774.801 250.664,769.075C239.917,761.795 237.664,754.967 235.743,743.167C234.927,738.154 234.307,732.383 233.896,726.825C233.598,722.809 235.178,716.388 236.502,712.62C238.279,707.562 242.123,700.768 245.84,696.753C248.42,693.967 252.631,692.462 256.138,691.262C266.608,687.68 278.586,692.203 285.548,700.375C289.275,704.751 291.1,710.174 295.729,713.845C300.739,717.818 309.04,718.169 315.058,717.667C331.304,716.313 346.325,709.924 362.944,711.692C368.053,712.235 372.641,714.314 377.315,716.282C382.832,718.605 390.912,721.272 393.388,727.381C400.107,743.955 392.078,764.286 377.232,773.565C364.675,781.413 351.783,783.546 337.156,783.546C325.217,783.546 313.483,782.745 303.941,774.617C301.292,772.36 299.553,769.16 297.649,766.305L294.594,763.935Z" style="fill:rgb(248,200,161);"/>
        <path d="M267.109,777.199C269.038,766.095 289.556,782.628 300.123,782.49C310.603,782.353 320.444,783.86 330.313,784.441C338.03,784.895 352.547,772.653 352.686,795.199C352.79,812.183 338.949,816.37 331.915,819.634C325.455,822.631 318.975,826.87 312.106,826.644C298.161,826.185 279.921,811.221 270.432,796.545L267.109,777.199Z" style="fill:rgb(236,179,134);"/>
        <path d="M347.641,704.78C347.641,720.233 335.386,735.12 321.616,741.446C319.184,742.564 316.399,742.874 313.871,743.716C308.575,745.482 302.963,747.683 297.301,746.44C288.39,744.484 280.836,735.295 276.831,727.519C271.61,717.384 272.855,704.958 277.218,694.778C278.288,692.283 278.8,688.903 281.883,688.666C284.422,688.471 287.739,692.703 289.234,694.191C294.02,698.956 300.388,701.834 306.917,703.593C319.034,706.859 323.879,707.12 335.884,706.45L347.641,704.78Z" style="fill:rgb(40,27,19);"/>
        <path d="M298.396,670.877L307.248,673.067C308.069,673.067 309.737,670.709 310.133,670.169C312.908,666.385 313.808,662.931 312.963,658.285C311.133,648.217 303.098,642.426 299.437,633.396C297.567,628.782 297.014,624.28 292.001,622.001C289.157,620.709 278.994,633.556 277.077,638.76C274.175,646.638 271.311,651.109 273.626,661.143C274.342,664.244 278.105,664.285 280.623,664.494C286.745,665.005 293.299,667.373 298.396,670.877Z" style="fill:rgb(240,229,216);"/>
        <path d="M371.008,686.753C371.008,686.743 367.444,684.137 367.136,683.682C364.86,680.323 364.483,675.496 366.067,671.798C368.963,665.041 376.822,662.224 382.545,658.459C391.891,652.31 400.144,644.791 408.609,637.535C412.609,634.107 417.393,630.594 422.897,632.528C426.939,633.948 438.086,648.745 440.436,653.584C442.882,658.62 446.078,681.122 442.926,683.562C438.267,687.169 430.706,686.623 425.196,687.124C420.114,687.586 410.829,686.644 405.751,687.184C396.626,688.155 371.008,686.753 371.008,686.753Z" style="fill:rgb(240,229,216);"/>
        <path d="M411.419,635.168C412.864,636.807 414.2,638.407 415.323,640.476C420.556,650.117 428.61,672.129 429.065,683.035C429.116,684.257 429.315,685.563 429.488,686.881C420.937,687.656 390.579,689.09 382.024,689.09L371.008,686.753C371.008,686.743 367.444,684.137 367.136,683.682C364.86,680.323 364.483,675.496 366.067,671.798C368.963,665.041 376.822,662.224 382.545,658.459C387.18,655.409 407.163,638.692 411.419,635.168Z" style="fill:rgb(69,87,133);"/>
        <path d="M296.016,623.993C296.627,625.584 297.162,627.178 297.74,628.603C301.401,637.633 311.133,648.217 312.963,658.285C313.808,662.931 312.908,666.385 310.133,670.169C309.737,670.709 308.069,673.067 307.248,673.067L298.396,670.877C293.559,667.552 283.316,665.049 277.469,664.387C277.203,662.063 276.867,659.343 277.25,657.864C279.998,647.244 287.781,633.722 294.888,625.436C295.273,624.987 295.646,624.499 296.016,623.993Z" style="fill:rgb(69,87,133);"/>
        <path d="M404.094,640.911C404.147,641 404.188,641.07 404.214,641.111C405.608,643.285 407.112,645.344 408.002,647.79C410.676,655.146 417.463,676.415 417.784,684.111C417.833,685.285 417.969,686.474 417.996,687.597C414.141,687.645 388.294,689.093 384.5,689.093C384.5,689.093 376.221,688.804 372.133,687.353C368.946,686.222 367.271,683.882 367.136,683.682C364.86,680.323 364.483,675.496 366.067,671.798C368.963,665.041 376.822,662.224 382.545,658.459C383.933,657.546 402.75,641.879 404.094,640.911Z" style="fill:rgb(40,27,19);"/>
        <path d="M297.22,627.517C301.118,633.461 311.584,650.7 312.963,658.285C313.808,662.931 312.908,666.385 310.133,670.169C309.737,670.709 308.069,673.067 307.248,673.067L298.329,670.877C295.24,669.936 282.96,665.769 280.152,664.704C280.085,663.173 280.294,661.594 280.537,660.315C281.863,653.354 290.603,638.04 294.475,632.324C295.516,630.787 296.374,629.16 297.22,627.517Z" style="fill:rgb(40,27,19);"/>
        <path d="M351.279,650.888C351.279,648.028 349.827,645.428 351.279,642.609C352.652,639.944 357.045,638.927 359.398,637.247C367.098,631.746 374.68,626.073 382.365,620.55C385.722,618.137 389.252,616.568 393.047,614.942C393.769,614.633 396.207,613.359 396.935,614.088C397.619,614.771 393.961,617.844 393.495,618.328C389.566,622.415 384.166,625.564 379.331,628.466C372.79,632.39 366.634,639.303 361.919,645.247C360.042,647.614 358.46,651.3 356.076,653.088L351.279,650.888Z" style="fill:rgb(105,70,49);"/>
        <path d="M325.577,640.476C322.433,642.98 318.93,645.492 315.954,641.73C312.509,637.376 312.429,630.497 310.971,625.337C309.673,620.747 306.879,616.68 305.427,612.091C304.717,609.845 304.197,607.135 304.121,604.763C304.104,604.245 304.005,602.602 304.838,602.59C305.958,602.574 306.58,604.839 306.813,605.662C307.88,609.44 311.121,613.329 312.613,616.999C315.407,623.87 319.952,629.863 325.277,634.658C325.277,634.658 328.721,637.971 325.577,640.476Z" style="fill:rgb(105,70,49);"/>
        <path d="M503.166,648.186C502.714,648.186 501.095,650.995 500.817,651.284C499.085,653.088 497.513,655.044 495.81,656.878C489.817,663.333 483.038,670.687 475.728,675.639C470.078,679.466 462.796,681.529 456.607,684.358C455.541,684.845 450.406,686.837 452.294,688.724C456.15,692.58 465.627,688.941 470.053,688.137C477.13,686.85 484.142,687.282 491.016,684.638C497.379,682.191 498.77,680.083 504.474,676.454C507.335,674.633 514.689,672.069 515.744,668.669C516.441,666.421 514.187,664.962 512.512,664.076C508.318,661.855 508.08,657.704 506.212,652.899C504.884,651.703 503.827,650.182 503.166,648.186Z" style="fill:rgb(105,70,49);"/>
        <path d="M495.889,603.299C495.889,613.76 488.468,611.161 482.067,618.546C478.205,623.003 472.026,624.711 467.066,628.071C463.409,630.548 462.043,631.46 457.99,632.36C456.448,632.702 452.982,633.329 452.091,631.752C451.068,629.943 454.049,627.925 455.282,627.158C460.843,623.701 466.116,620.771 471.158,616.476C478.247,610.437 481.674,602.774 485.699,594.936C487.452,591.523 487.388,589.605 490.012,586.98L495.889,603.299Z" style="fill:rgb(105,70,49);"/>
        <path d="M353.616,607.39C353.616,606.934 352.305,603.159 352.062,602.59C351.209,600.601 351.816,596.688 352.143,594.581C352.995,589.107 355.803,582.424 357.63,577.27C360.72,568.555 364.296,565.544 369.565,557.984C373.563,552.248 378.289,547.848 384.49,544.047C393.498,538.526 403.295,534.833 413.949,537.149C417.681,537.96 423.692,539.447 424.047,544.061C424.344,547.916 420.699,550.953 417.691,552.685C410.321,556.928 401.372,557.222 394.518,562.658C386.777,568.798 382.269,577.461 376.854,585.454C372.694,591.595 367.508,597.054 363.39,603.133C361.848,605.41 359.496,611.511 358.202,611.993C356.908,612.474 353.616,607.39 353.616,607.39Z" style="fill:rgb(105,70,49);"/>
        <path d="M470.383,564.345C470.383,564.345 463.347,570.229 462.929,570.606C460.513,572.779 457.641,574.481 455.024,576.401C449.867,580.182 444.092,582.94 438.694,586.375C431.933,590.677 426.375,595.507 418.384,597.551C414.085,598.651 409.709,599.358 405.299,599.741C404.466,599.813 401.448,600.172 401.293,598.78C401.103,597.073 404.276,595.111 405.392,594.16C410.352,589.934 416.198,586.892 421.135,582.636C426.269,578.211 429.877,572.078 433.633,566.533C436.164,562.797 439.495,559.816 442.659,556.652C445.181,554.13 446.599,549.133 450.537,548.641C456.416,547.906 459.55,552.835 463.062,556.639C465.271,559.032 467.635,561.863 470.383,564.345Z" style="fill:rgb(105,70,49);"/>
        <path d="M328.409,546.099C330.225,544.689 333.097,543.156 334.296,542.678C336.668,541.731 338.17,540.897 340.608,540.161C341.685,539.836 345.079,538.697 346.039,539.973C347.479,541.886 346.809,545.726 346.515,547.731C345.593,554.02 343.824,558.361 343.08,564.364C342.049,572.677 343.676,579.529 340.311,587.736C339.933,588.658 339.211,593.322 337.229,593.669C336.381,593.818 335.986,591.942 335.722,591.31C334.692,588.849 333.772,586.344 333.136,583.75C331.322,576.347 330.824,568.885 329.212,561.436C328.459,557.958 326.354,553.633 326.307,551.546C326.259,549.46 326.592,547.51 328.409,546.099Z" style="fill:rgb(105,70,49);"/>
        <path d="M301.734,571.591C301.773,571.804 301.03,572.527 300.907,572.679C300.131,573.642 299.35,574.61 298.762,575.703C297.193,578.619 298.229,582.893 300.198,585.357C303.009,588.875 306.23,592.221 308.339,596.245C310.126,599.656 312.177,604.911 315.165,607.369C317.882,609.603 321.428,610.62 320.45,605.773C319.781,602.456 318.294,598.667 316.509,595.915C313.166,590.762 311.692,588.148 309.922,581.883C308.989,578.579 308.043,574.715 307.901,571.284C307.842,569.843 307.754,568.002 306.157,567.445L301.734,571.591Z" style="fill:rgb(105,70,49);"/>
        <path d="M269.982,613.171C269.213,614.754 267.005,618.626 266.856,618.952C265.685,621.514 264.258,622.973 263.984,625.064C263.744,626.898 266.741,626.838 268.627,627.754C271.399,629.099 272.325,630.589 274.772,632.124C275.745,632.734 277.446,634.301 279.059,633.517C280.134,632.994 280.239,631.749 280.11,631.008C279.727,628.811 278.38,626.584 277.392,624.514C276.433,622.506 274.723,620.709 273.588,618.927C272.453,617.146 270.751,611.588 269.982,613.171Z" style="fill:rgb(105,70,49);"/>
        <path d="M458.074,524.854L453.05,523.118C449.532,523.118 445.78,519.519 443.586,517.142C436.716,509.7 432.924,500.263 430.601,490.503C429.742,486.899 429.407,483.166 428.648,479.537C428.418,478.441 427.787,476.458 426.411,476.333C423.83,476.098 420.207,481.286 419.635,483.097C417.152,490.96 416.76,494.188 418.001,501.81C418.307,503.69 421.012,511.247 420.186,510.917C418.338,510.177 412.691,507.469 410.171,504.096C406.053,498.582 402.966,494.459 399.096,486.775C395.775,480.182 396.6,472.899 394.331,473.312C391.828,473.767 389.706,478.85 388.673,480.856C382.936,491.993 383.942,501.752 387.444,507.735C390.746,513.376 393.728,517.116 397.926,522.324C399.789,524.635 404.359,528.661 403.675,528.833C402.34,529.167 395.792,530.667 390.435,533.192C376.551,539.738 370.272,551.162 363.803,565.313C362.095,569.05 358.656,577.522 361.099,581.403C362.936,584.32 368.766,580.586 370.88,579.467C380.033,574.621 385.158,563.719 395.249,560.355C401.626,558.23 407.858,555.27 414.477,553.946C426.939,551.454 439.925,550.189 451.298,544.015C456.875,540.987 465.645,530.405 458.074,524.854Z" style="fill:rgb(193,102,107);"/>
        <path d="M352.984,737.646C351.448,737.646 349.957,736.476 348.301,736.515C345.353,736.585 341.352,740.752 344.901,743.156C348.344,745.488 354.957,741.329 352.743,737.147" style="fill:rgb(154,99,69);"/>
        <path d="M346.085,740.539C346.558,740.539 347.49,739.686 347.865,739.444C349.694,738.264 351.394,736.698 352.93,735.162C357.416,730.676 363.233,726.763 368.784,723.75C372.521,721.721 376.538,721.403 380.499,720.083C394.462,715.428 408.214,712.276 423.084,712.276C429.339,712.276 434.985,710.689 441.235,711.706C442.211,711.865 446.373,711.82 446.513,713.22C446.601,714.096 444.183,715.484 443.669,715.418C440.744,715.043 438.53,714.549 435.55,714.955C427.602,716.039 419.526,714.842 411.56,716.291C408.237,716.895 405.005,717.909 401.662,718.454C397.652,719.106 393.321,719.335 389.404,720.385C386.923,721.051 384.623,722.278 382.149,722.976C378.118,724.113 374.248,724.679 370.452,726.634C367.593,728.107 364.417,729.502 361.827,731.423C357.401,734.707 353.283,738.632 348.608,741.554L346.085,740.539Z" style="fill:rgb(154,99,69);"/>
        <path d="M370.067,735.87C368.743,735.87 367.521,735.409 366.165,735.706C362.173,736.583 361.957,742.826 366.55,742.101C367.561,741.942 368.341,741.336 369.142,740.748C369.869,740.215 370.609,739.813 371.064,739.004L370.067,735.87Z" style="fill:rgb(154,99,69);"/>
        <path d="M363.48,745.662C363.48,745.17 365.38,744.116 365.716,743.91C368.454,742.237 371.456,741.779 374.49,740.912C382.214,738.705 391.951,737.829 399.919,737.829C404.844,737.829 408.222,738.541 413.152,738.541C416.789,738.541 420.053,738.341 423.606,739.31C424.238,739.482 426.666,740.082 426.768,740.891C426.825,741.354 425.989,741.543 425.685,741.638C424.453,742.028 423.238,742.246 421.939,742.187C419.895,742.094 417.898,741.511 415.872,741.247C412.459,740.802 408.482,741.483 405.062,741.111C396.107,740.138 388.842,741.042 380.13,742.785C375.603,743.69 370.884,743.475 366.542,745.164L363.48,745.662Z" style="fill:rgb(154,99,69);"/>
        <path d="M374.34,756.878C374.844,756.878 375.643,756.249 376.078,756.038C377.112,755.536 378.29,755.278 379.432,755.205C384.409,754.887 389.239,756.243 394.081,757.17C398.38,757.993 403.051,758.713 406.365,761.799C408.867,764.129 412.422,766.605 413.536,769.946C413.744,770.57 414.574,773.18 413.778,773.635C413.41,773.845 412.874,773.022 412.696,772.816C411.746,771.714 410.992,770.464 410.089,769.326C408.027,766.726 405.012,763.893 402.163,762.184C399,760.286 395.71,760.411 392.208,759.841C389.886,759.463 387.698,758.496 385.336,758.345C382.741,758.18 380.06,758.611 377.516,757.975L374.34,756.878Z" style="fill:rgb(154,99,69);"/>
        <path d="M359.262,758.836C359.262,756.502 355.242,755.795 354.214,757.68C353.164,759.604 356.176,761.972 357.912,761.047L359.262,758.836Z" style="fill:rgb(154,99,69);"/>
        <path d="M338.752,759.263C338.752,760.797 341.125,761.561 342.302,760.915C343.363,760.333 343.512,758.561 343.361,757.503C342.929,754.476 337.74,754.436 338.559,757.548L338.752,759.263Z" style="fill:rgb(154,99,69);"/>
        <path d="M269.106,758.836C271.067,760.798 275.136,758.357 272.541,755.953C271.424,754.919 269.662,754.341 268.166,754.763C266.354,755.274 267.255,757.47 268.154,758.369L269.106,758.836Z" style="fill:rgb(154,99,69);"/>
        <path d="M257.207,742.172C257.842,742.172 258.364,742.686 259.087,742.577C261.894,742.151 260.438,738.408 258.079,738.526C256.983,738.581 255.536,739.748 256.176,740.947L257.207,742.172Z" style="fill:rgb(154,99,69);"/>
        <path d="M265.487,717.899C266.099,717.899 266.641,717.769 267.197,717.502C267.648,717.285 268.041,717.014 268.403,716.667C271.303,713.883 263.636,712.741 264.144,715.535L265.487,717.899Z" style="fill:rgb(154,99,69);"/>
        <path d="M257.579,710.226C257.764,709.211 255.64,707.457 254.387,706.415C251.461,703.981 248.62,701.764 245.414,699.724C237.385,694.615 228.108,690.111 219.863,685.364C213.916,681.94 207.583,677.882 200.724,676.738C195.678,675.897 193.837,676.871 185.769,676.106C183.249,675.868 181.188,675.31 180.909,676.427C180.443,678.29 184.697,678.821 185.707,678.821C188.114,678.821 192.575,678.95 194.941,679.209C201.066,679.879 205.52,681.549 208.79,683.234C218.02,687.989 221.83,690.313 231.159,694.844C234.709,696.569 237.325,698.305 240.797,700.19C245.632,702.815 250.641,706.046 254.513,709.917C254.513,709.917 257.394,711.242 257.579,710.226Z" style="fill:rgb(154,99,69);"/>
        <path d="M253.426,730.84C253.426,730.84 254.052,729.175 253.576,728.661C252.194,727.169 250.489,726.335 248.541,725.812C246.476,725.258 244.244,724.812 242.224,724.152C238.57,722.956 236.839,722.523 233.859,722.192C227.918,721.532 219.812,722.877 214.151,724.679C208.131,726.594 202.366,727.538 197.267,731.616C195.875,732.73 194.684,734.049 193.984,735.711C193.765,736.233 193.367,737.223 194.056,737.584C195.558,738.371 197.315,734.169 198.264,733.361C201.124,730.925 205.54,729.077 209.235,728.338C212.15,727.755 216.358,726.296 219.232,725.577C223.781,724.44 226.081,724.283 230.911,724.283C234.889,724.283 238.37,725.128 242.046,726.354C245.815,727.61 249.91,728.979 253.426,730.84Z" style="fill:rgb(154,99,69);"/>
        <path d="M249.678,743.026C245.162,743.026 240.604,741.57 236.067,741.385C231.179,741.186 225.375,743.465 221.819,746.758C219.459,748.943 216.68,751.51 214.79,754.282C213.662,755.936 211.853,760.454 213.877,763.02C214.901,764.319 214.94,759.724 216.752,756.757C220.703,750.288 225.964,745.739 232.547,744.57C234.29,744.26 237.575,744.948 239.298,745.145C242.125,745.469 243.71,746.444 246.402,746.444C247.463,746.444 248.561,746.615 249.564,746.176L249.678,743.026Z" style="fill:rgb(154,99,69);"/>
        <path d="M299.099,648.748C296.516,650.53 292.506,653.544 289.583,650.771C286.661,647.999 287.479,644.501 289.88,642.504C292.281,640.507 297.301,637.931 300.373,641.055C303.444,644.178 301.272,647.25 299.099,648.748Z" style="fill:rgb(231,231,231);"/>
        <path d="M381.789,667.943C379.085,669.535 374.869,672.253 372.153,669.278C369.438,666.304 372.48,663.876 375.234,662.401C377.927,660.959 380.772,657.025 383.612,660.36C386.452,663.696 384.064,666.604 381.789,667.943Z" style="fill:rgb(231,231,231);"/>
        <circle cx="51.232" cy="890.398" r="50.511" style="fill:rgb(193,102,107);"/>
        <path d="M41.475,871.319C33.212,877.602 29.431,888.618 24.245,883.698C19.059,878.778 21.502,865.725 30.021,858.639C37.383,852.515 51.066,851.893 56.518,857.436C61.97,862.98 48.593,865.906 41.475,871.319Z" style="fill:rgb(231,231,231);"/>
    </g>
</svg>
