<?xml version="1.0" encoding="UTF-8" standalone="no"?>
<!DOCTYPE svg PUBLIC "-//W3C//DTD SVG 1.1//EN" "http://www.w3.org/Graphics/SVG/1.1/DTD/svg11.dtd">
<svg width="100%" height="100%" viewBox="0 0 1803 2101" version="1.1" xmlns="http://www.w3.org/2000/svg" xmlns:xlink="http://www.w3.org/1999/xlink" xml:space="preserve" xmlns:serif="http://www.serif.com/" style="fill-rule:evenodd;clip-rule:evenodd;stroke-linecap:round;stroke-linejoin:round;stroke-miterlimit:1.5;">
    <g id="Steffi-Singing" serif:id="Steffi Singing">
        <g transform="matrix(0.923136,0,0,0.923136,-790.57,240.941)">
            <ellipse cx="2523.48" cy="1917.62" rx="159.272" ry="29.315" style="fill:rgb(127,188,137);fill-opacity:0.25;"/>
        </g>
        <g transform="matrix(0.923136,0,0,0.923136,-790.57,240.941)">
            <ellipse cx="2249.03" cy="1992.38" rx="115.305" ry="21.969" style="fill:rgb(127,188,137);fill-opacity:0.25;"/>
        </g>
        <g transform="matrix(0.923136,0,0,0.923136,-101.942,-166.827)">
            <ellipse cx="926.819" cy="1999.73" rx="159.272" ry="29.315" style="fill:rgb(127,188,137);fill-opacity:0.25;"/>
        </g>
        <g transform="matrix(0.923136,0,0,0.923136,-101.942,-166.827)">
            <ellipse cx="1335.18" cy="1886.57" rx="201.629" ry="35.067" style="fill:rgb(127,188,137);fill-opacity:0.25;"/>
        </g>
        <g transform="matrix(1.07791,0,0,0.923136,-565.941,193.823)">
            <ellipse cx="1335.18" cy="1886.57" rx="201.629" ry="35.067" style="fill:rgb(127,188,137);fill-opacity:0.25;"/>
        </g>
        <g id="Baby" transform="matrix(0.839337,0,0,0.839337,-0.619221,-0.612522)">
            <path id="Rope" d="M602.922,542.658C865.719,907.02 1069.71,1160.42 1460.73,1334.35C1481.59,1343.63 1478.58,1347.97 1458.85,1339.88C1153.25,1214.5 926.922,1018.82 592.488,552.078C580.929,535.947 591.616,526.983 602.922,542.658Z" style="fill:rgb(80,70,66);"/>
            <path id="Rope1" serif:id="Rope" d="M394.728,652.206C598.103,875.544 1039.42,1228.72 1365.44,1317.23C1386.63,1322.98 1384.15,1340.93 1359.2,1332.2C975.885,1198.04 586.873,875.544 378.508,658.445C363.148,642.441 376.372,632.048 394.728,652.206Z" style="fill:rgb(80,70,66);"/>
            <path d="M282.507,167.276C322.99,150.753 381.649,150.753 435.351,229.24C489.052,307.727 555.973,386.627 566.713,542.776C611.327,548.559 525.404,229.653 429.567,152.818C333.73,75.983 270.941,145.382 257.722,159.428C244.503,173.473 242.024,183.8 282.507,167.276Z" style="fill:rgb(176,119,160);"/>
            <path d="M346.698,117.303C394.868,92.507 448.538,86.513 503.924,162.732C593.977,286.659 632.148,338.124 588.194,547.113C570.844,560.332 541.928,421.327 506.402,300.704C470.876,180.082 433.196,142.926 346.698,117.303Z" style="fill:rgb(182,125,167);"/>
            <path d="M581.585,176.777C662.55,304.009 688.988,428.763 605.544,554.342C584.063,564.256 580.758,560.745 589.846,512C598.934,463.256 612.98,354.2 569.192,265.798C525.404,177.397 460.136,120.39 445.265,103.867C430.394,87.343 509.896,64.123 581.585,176.777Z" style="fill:rgb(196,141,180);"/>
            <path id="Bow" d="M613.238,534.922C639.188,518.953 670.556,521.804 685.384,532.641C700.213,543.477 690.517,549.75 683.673,553.743C676.83,557.735 637.192,587.962 608.39,548.61C598.98,550.321 589.855,550.321 584.437,543.192C572.175,548.325 539.951,549.465 519.705,518.668C517.404,515.169 521.988,507.919 533.678,508.117C550.502,508.402 569.608,509.542 588.144,525.512C598.41,520.949 608.39,525.797 613.238,534.922Z" style="fill:rgb(210,157,195);"/>
            <path id="Pampers--Back" serif:id="Pampers; Back" d="M481.734,566.206C517.491,544.975 588.786,528.454 588.786,528.454C588.786,528.454 574.94,676.764 381.612,644.227C417.751,608.47 445.977,587.436 481.734,566.206Z" style="fill:rgb(57,50,48);"/>
            <g id="Layer1">
                <path d="M567.964,509.181C568.933,493.239 578.173,437.152 579.874,427.51C581.576,417.868 570.8,383.271 564.561,367.391C558.322,351.51 566.829,316.346 588.382,303.869C609.934,291.391 633.187,285.719 647.934,315.779C662.68,345.839 649.635,365.122 637.725,379.301C625.814,393.48 593.486,417.302 591.785,429.212C590.083,441.123 582.71,500.674 581.576,509.749C580.441,518.823 567.235,521.171 567.964,509.181Z" style="fill:rgb(154,55,55);"/>
                <path d="M574.48,397.238C585.227,402.267 598.294,404.534 614.542,401.736C603.326,412.106 592.739,422.533 591.785,429.212C590.083,441.123 582.71,500.674 581.576,509.749C580.441,518.823 567.235,521.171 567.964,509.181C568.933,493.239 578.173,437.152 579.874,427.51C580.786,422.344 578.115,410.014 574.48,397.238Z" style="fill:rgb(37,15,8);"/>
                <path d="M568.339,328.292C594.706,341.799 620.43,346.411 654.5,341.048C654.57,351.313 651.175,359.913 646.618,367.299C617.856,372.56 588.241,368.198 562.617,352.599C562.949,344.961 564.877,336.338 568.339,328.292Z" style="fill:rgb(37,15,8);"/>
            </g>
            <path id="Hand" d="M424.448,530.824L384.071,531.279C384.071,531.279 381.615,516.874 369.798,516.874C357.981,516.874 361.657,526.853 364.283,529.479C355.617,524.489 338.811,528.166 338.286,535.781C337.76,543.397 346.689,542.084 349.315,542.609C346.426,543.397 339.073,548.649 341.699,553.638C344.325,558.627 352.729,554.688 355.88,554.163C354.567,555.476 346.426,564.142 356.142,566.505C365.859,568.869 381.615,557.052 384.241,552.588C392.906,552.062 428.62,551.012 428.62,551.012L424.448,530.824Z" style="fill:rgb(251,199,180);"/>
            <path id="Hand1" serif:id="Hand" d="M526.906,486.369L563.521,463.992C563.521,463.992 570.98,445.685 584.88,449.075C598.781,452.465 600.137,463.993 600.137,469.417C600.137,474.842 595.051,486.369 581.829,486.03C568.607,485.691 568.268,485.691 564.538,487.725C560.809,489.759 535.721,501.625 535.721,501.625L526.906,486.369Z" style="fill:rgb(251,199,180);"/>
            <path id="Neck" d="M468.143,508.331L460.203,479.405L490.83,464.659L499.904,497.555L468.143,508.331Z" style="fill:rgb(251,199,180);"/>
            <path id="Shirt" d="M412.361,519.81C412.361,519.81 448.296,511.4 463.588,503.754C475.821,509.106 499.524,499.931 498.759,488.462C512.522,481.581 536.224,472.406 536.224,472.406L551.516,508.342L534.695,526.692C534.695,526.692 539.282,564.157 578.276,584.8C617.27,605.444 523.99,669.67 459.001,658.201C452.884,625.324 449.825,558.04 449.825,558.04L420.771,554.982L412.361,519.81Z" style="fill:rgb(132,141,214);"/>
            <path id="Pampers--Front" serif:id="Pampers; Front" d="M485.795,765.333C571.13,778.575 635.867,735.907 649.109,668.228C641.752,593.191 619.683,556.409 588.786,528.454C557.888,621.146 488.234,637.675 379.358,645.031C410.255,712.711 429.885,734.436 485.795,765.333Z" style="fill:rgb(242,235,232);"/>
            <path id="Pampers--Hole" serif:id="Pampers; Hole" d="M513.86,697.248C536.179,701.382 547.752,723.701 546.098,736.927C543.161,760.429 520.473,768.339 499.807,765.032C479.141,761.726 466.742,738.58 470.048,719.567C473.355,700.555 491.541,693.115 513.86,697.248Z" style="fill:rgb(57,50,48);"/>
            <path id="Pampers--Hole1" serif:id="Pampers; Hole" d="M615.536,650.957C605.342,662.283 603.963,686.502 609.749,698.075C615.536,709.648 629.588,724.527 639.508,694.768C649.428,665.01 637.485,626.569 615.536,650.957Z" style="fill:rgb(57,50,48);"/>
            <path id="Foot" d="M625.455,659.671C617.127,670.974 613.664,681.435 614.748,697.148C635.568,702.502 657.578,712.614 666.501,709.64C675.424,706.666 693.865,673.353 696.244,643.61C697.434,638.256 664.716,634.687 660.552,638.851C656.388,643.015 651.629,660.861 649.845,663.835C648.06,666.81 639.137,662.051 625.455,659.671Z" style="fill:rgb(251,199,180);"/>
            <path id="Toe" d="M693.964,639.532C682.662,638.937 679.138,623.596 689.205,619.901C705.088,614.073 705.267,640.127 693.964,639.532Z" style="fill:rgb(251,199,180);"/>
            <path id="Toe1" serif:id="Toe" d="M674.829,637.513C665.311,636.323 662.832,624.525 669.375,618.577C675.919,612.628 683.91,619.488 683.91,626.031C683.91,632.575 684.347,638.702 674.829,637.513Z" style="fill:rgb(251,199,180);"/>
            <path id="Foot1" serif:id="Foot" d="M495.313,706.734C492.934,718.036 478.523,725.702 477.334,743.547C476.144,761.393 477.334,791.732 485.662,808.983C493.99,826.234 508.267,815.526 517.19,801.844C526.113,788.162 532.656,751.281 530.872,742.953C529.087,734.624 526.773,716.317 526.178,709.179C513.091,706.205 508.995,704.354 495.313,706.734Z" style="fill:rgb(251,199,180);"/>
            <path id="Ear" d="M531.578,304.375C536.419,296.767 550.942,301.608 554.4,317.515C557.858,333.421 555.783,346.561 548.176,349.327C540.568,352.094 526.737,311.982 531.578,304.375Z" style="fill:rgb(251,199,180);"/>
            <path id="Head" d="M511.815,462.39C464.173,484.51 421.636,502.659 379.666,490.181C337.696,477.704 317.278,447.077 299.696,401.704C282.114,356.331 294.591,276.928 343.935,244.033C393.278,211.138 448.86,213.406 489.695,242.331C530.531,271.257 549.051,335.41 557.755,364.271C568.531,400.003 545.362,446.815 511.815,462.39Z" style="fill:rgb(251,199,180);"/>
            <path id="Ear1" serif:id="Ear" d="M315.114,388.747C300.591,380.448 277.077,393.588 277.077,410.878C277.077,428.167 292.984,448.223 310.965,443.382C328.946,438.541 329.637,397.046 315.114,388.747Z" style="fill:rgb(251,199,180);"/>
            <path id="Ear:-In" serif:id="Ear: In" d="M299.697,406.185C294.553,413.534 303.216,423.599 314.762,420.882C321.008,419.412 316.599,410.962 312.925,406.92C307.835,401.322 302.379,402.354 299.697,406.185Z" style="fill:rgb(206,150,131);"/>
            <path id="Mouth" d="M376.49,427.128C370.243,433.007 371.713,443.295 378.694,437.784C386.043,444.398 411.395,466.811 479.002,435.212C546.609,403.613 534.851,386.711 533.749,378.628C540.362,376.423 533.749,370.912 527.502,370.912C521.256,370.912 516.847,377.526 526.033,378.995C528.605,387.079 526.4,404.715 474.225,426.026C432.886,442.911 408.456,449.174 386.778,433.007C394.126,428.231 382.736,421.25 376.49,427.128Z" style="fill:rgb(86,61,52);"/>
            <path d="M488.555,462.493C517.839,449.478 515.745,434.936 516.48,422.444C517.214,409.951 497.741,388.64 484.146,386.436C470.551,384.231 439.687,394.519 431.971,408.849C424.255,423.179 422.418,454.777 441.157,463.228C459.896,471.679 475.839,468.145 488.555,462.493Z" style="fill:rgb(55,52,105);"/>
            <path d="M481.941,442.285C491.127,437.876 491.862,424.648 483.411,417.667C474.96,422.444 467.244,429.425 456.221,431.997C454.384,442.285 472.756,446.694 481.941,442.285Z" style="fill:rgb(242,235,232);stroke:black;stroke-width:1px;"/>
            <path id="Nose" d="M435.645,378.995C444.096,383.037 451.445,378.628 456.589,372.014C461.733,365.401 452.547,364.298 442.627,366.87C432.706,369.442 427.195,374.954 435.645,378.995Z" style="fill:rgb(206,150,131);"/>
            <path id="Eye:-Base" serif:id="Eye: Base" d="M408.823,361.359C402.21,341.885 390.622,330.487 383.471,332.332C372.081,335.271 360.176,350.599 371.713,374.954C380.728,393.986 379.062,374.219 390.819,368.34C402.577,362.461 415.437,380.833 408.823,361.359Z" style="fill:rgb(242,235,232);"/>
            <path id="Eye:-Dark" serif:id="Eye: Dark" d="M401.552,345.784C404.265,350.104 406.781,355.347 408.823,361.359C415.437,380.833 402.577,362.461 390.819,368.34C389.61,368.945 388.543,369.696 387.591,370.537C380.689,359.507 383.471,347.397 401.552,345.784Z" style="fill:rgb(37,15,8);"/>
            <path id="Eye:-Base1" serif:id="Eye: Base" d="M490.392,336.006C500.313,331.965 510.968,347.397 506.926,330.127C502.885,312.858 495.904,302.203 483.779,303.305C471.653,304.408 456.956,314.696 470.919,343.355C481.093,364.24 480.472,340.048 490.392,336.006Z" style="fill:rgb(242,235,232);"/>
            <path id="Eye:-Dark1" serif:id="Eye: Dark" d="M501.885,315.376C503.939,319.45 505.593,324.428 506.926,330.127C510.968,347.397 500.313,331.965 490.392,336.006C487.587,337.149 485.624,339.904 484.022,342.795C477.285,323.864 487.453,316.9 501.885,315.376Z" style="fill:rgb(37,15,8);"/>
            <path id="Eyebrow" d="M366.748,321.494C361.339,321.494 355.569,324.74 354.487,330.51C353.405,336.28 347.996,337.001 351.241,326.183C354.487,315.364 358.814,317.528 363.863,317.888C368.912,318.249 372.157,321.494 366.748,321.494Z" style="fill:rgb(86,61,52);"/>
            <path id="Eyebrow1" serif:id="Eyebrow" d="M474.213,284.35C477.098,280.384 481.426,280.744 483.229,282.547C485.032,284.35 492.605,282.908 487.196,279.302C481.786,275.696 472.05,275.696 469.525,278.941C467.001,282.187 471.328,288.317 474.213,284.35Z" style="fill:rgb(86,61,52);"/>
            <path id="Hair" d="M377.927,237.199C379.73,227.462 383.697,219.529 371.076,208.71C358.454,197.891 345.832,185.63 357.372,172.648C368.912,159.665 368.551,169.042 362.781,179.5C357.011,189.958 365.306,193.925 376.124,204.383C386.943,214.841 392.713,219.168 389.107,233.954C385.5,248.739 376.124,246.936 377.927,237.199Z" style="fill:rgb(86,61,52);"/>
            <path d="M293.179,14.272C174.6,-36.933 56.021,66.824 18.291,162.495C-19.439,258.167 -7.311,476.46 165.167,574.827C337.646,673.194 389.848,654.979 389.848,654.979C389.848,654.979 138.217,545.182 97.793,433.341C57.368,321.499 99.806,135.761 170.982,86.575C283.608,8.746 297.221,21.009 293.179,14.272Z" style="fill:rgb(196,141,180);"/>
            <path d="M447.262,52.461C386.155,-19.416 253.045,10.581 181.337,69.519C82.97,150.368 29.071,329.584 99.14,445.468C196.753,606.905 316.086,639.506 383.46,654.329C413.105,644.896 345.731,628.727 295.874,574.827C246.016,520.927 92.403,375.399 167.862,204.268C243.322,33.136 403.265,55.615 447.262,52.461Z" style="fill:rgb(210,157,195);"/>
            <path d="M391.885,646.324C111.4,459.334 221.911,246.757 283.746,166.201C375.099,47.191 553.042,138.717 620.416,246.516C561.491,125.016 522.252,55.707 419.843,48.969C317.433,42.232 174.6,92.089 150.345,245.703C126.09,399.317 176.365,543.518 391.885,646.324Z" style="fill:rgb(224,177,211);"/>
            <path id="Bow1" serif:id="Bow" d="M340.912,716.76C366.658,711.479 387.174,688.64 388.172,674.335C394.492,673.004 400.148,668.014 403.142,660.363C435.743,661.361 461.025,647.057 469.675,639.073C478.324,631.089 493.626,619.445 460.027,615.121C426.428,610.796 400.148,620.776 388.504,646.391C383.182,645.726 374.532,649.053 369.875,655.706C355.238,649.718 331.826,663.352 322.429,686.394C310.257,716.24 315.167,722.041 340.912,716.76Z" style="fill:rgb(210,157,195);"/>
        </g>
        <g id="Boy" transform="matrix(0.839337,0,0,0.839337,-0.619221,-0.612522)">
            <path id="Legs" d="M877.479,1867.55C881.87,1893.9 871.33,1922.89 861.668,1931.67C852.006,1940.45 840.588,1950.99 823.02,1952.75C805.453,1954.51 810.723,1967.68 821.264,1972.08C831.804,1976.47 881.871,1987.88 905.586,1960.66C929.302,1933.43 974.098,1888.63 982.003,1877.21C989.909,1865.79 1013.1,1860.9 1023.64,1864.42C1034.18,1867.93 1023.25,1897.15 1004.81,1906.81C986.364,1916.47 975.837,1921.38 964.436,1922.01C973.22,1944.85 1013.62,1936.94 1025.92,1930.79C1038.22,1924.64 1081.26,1890.39 1089.16,1851.74C1097.07,1813.09 1055.79,1803.43 1038.22,1806.94C1030.05,1808.58 996.057,1843.83 967.071,1854.38C938.086,1864.91 908.221,1873.7 877.479,1867.55Z" style="fill:rgb(80,70,66);"/>
            <path id="Arm" d="M1022.96,1643.87C1034.26,1623.15 1078.52,1583.6 1084.17,1571.36C1089.82,1559.12 1084.17,1525.21 1113.37,1521.45C1142.56,1517.68 1177.4,1566.65 1121.84,1588.31C1095.47,1629.74 1050.27,1682.48 1050.27,1682.48C1050.27,1682.48 1011.66,1664.59 1022.96,1643.87Z" style="fill:rgb(251,199,180);"/>
            <path id="Arm1" serif:id="Arm" d="M797.95,1746.49C797.95,1746.49 708.996,1738.6 699.67,1727.84C690.344,1717.08 678.866,1702.73 672.41,1704.16C665.953,1705.6 661.195,1712.57 664.629,1717.96C668.062,1723.36 674.929,1737.58 659.724,1728.26C644.519,1718.94 631.644,1716.31 626.003,1720.97C620.363,1725.63 623.06,1735.43 633.606,1743.28C644.151,1751.13 635.568,1750.39 630.417,1750.39C625.267,1750.39 613.986,1756.04 617.174,1765.6C620.363,1775.16 637.775,1772.22 643.17,1770.75C648.565,1769.28 647.83,1774.92 645.377,1777.62C642.925,1780.32 631.153,1790.37 644.151,1795.52C657.149,1800.67 668.675,1781.54 678.975,1783.75C689.276,1785.95 795.465,1799.44 795.465,1799.44L797.95,1746.49Z" style="fill:rgb(251,199,180);"/>
            <path id="Neck1" serif:id="Neck" d="M866.748,1709.86L871.349,1754.03L937.608,1760.48L972.578,1713.54L945.891,1678.57L866.748,1709.86Z" style="fill:rgb(251,199,180);"/>
            <path id="Shirt1" serif:id="Shirt" d="M986.478,1671.74C1003.54,1653.31 1014.46,1632.84 1016.51,1623.28C1036.98,1653.31 1051.32,1673.11 1067.7,1687.44C1049.95,1714.06 1020.6,1746.13 1018.56,1749.55C1026.75,1770.7 1031.23,1801.32 1033.57,1808.92C999.25,1849.39 942.228,1874.71 877.955,1869.69C874.542,1847.17 872.5,1821.21 872.5,1821.21C872.5,1821.21 806.298,1809.61 790.6,1804.14C785.449,1802.35 791.194,1763.4 791.194,1742.29C818.262,1734.71 850.202,1734.32 869.15,1725.12C893.511,1743.52 891.345,1752.57 909.752,1751.49C928.158,1750.41 953.602,1736.88 953.602,1719.55C953.602,1702.23 951.436,1698.98 959.557,1693.57C967.677,1688.15 969.416,1690.17 986.478,1671.74Z" style="fill:rgb(63,82,172);"/>
            <path id="Head1" serif:id="Head" d="M746.256,1687.6C766.756,1705.59 811.521,1729.44 863.399,1721.49C915.277,1713.54 959.206,1698.48 984.308,1652.04C1009.41,1605.6 1006.48,1555.39 996.859,1523.18C987.236,1490.97 969.247,1451.22 950.42,1434.9C931.593,1418.59 759.644,1385.43 721.991,1493.79C684.337,1602.15 688.639,1637.04 746.256,1687.6Z" style="fill:rgb(251,199,180);"/>
            <path id="Mouth:-Base" serif:id="Mouth: Base" d="M907.423,1582.17C939.785,1568.75 976.094,1540.34 980.04,1530.08C989.512,1534.81 989.512,1577.43 983.987,1604.27C978.462,1631.11 953.204,1668.2 930.313,1680.05C907.423,1691.88 861.643,1690.31 826.124,1665.05C790.604,1639.79 771.661,1612.16 779.554,1610.59C787.447,1609.01 824.613,1616.51 907.423,1582.17Z" style="fill:rgb(86,61,52);"/>
            <path id="Mouth:-Teeth" serif:id="Mouth: Teeth" d="M890.543,1588.84C890.543,1588.84 889.503,1605.9 898.245,1605.9C909.342,1605.9 918.001,1600.07 927.499,1597.83C933.216,1596.49 935.569,1581.69 923.464,1575.3C909.005,1581.02 890.543,1588.84 890.543,1588.84Z" style="fill:rgb(242,235,232);"/>
            <path id="Mouth:-Tongue" serif:id="Mouth: Tongue" d="M901.794,1635.93C920.287,1627.36 949.605,1627.36 955.92,1639.99C962.234,1652.62 939.682,1669.31 926.151,1675.62C912.619,1681.94 873.829,1689.61 867.064,1672.47C860.298,1655.33 883.301,1644.5 901.794,1635.93Z" style="fill:rgb(167,80,105);"/>
            <path id="Hair1" serif:id="Hair" d="M657.05,1608.14C656.51,1623.79 665.687,1681.55 740.72,1704.23C727.225,1676.15 716.563,1617.39 728.305,1573.05C739.541,1530.62 790.297,1490.39 783.763,1487.75C719.855,1461.93 657.436,1596.95 657.05,1608.14Z" style="fill:rgb(161,120,78);"/>
            <path id="Cap:-Base" serif:id="Cap: Base" d="M715.287,1541.4C761.115,1497.56 829.401,1465.62 883.527,1449.39C923.407,1437.42 953.439,1437.21 953.439,1437.21C953.439,1437.21 920.964,1398.87 844.286,1387.14C791.169,1379.02 765.353,1386.24 765.353,1386.24C765.353,1386.24 746.86,1364.14 726.112,1378.12C705.364,1392.1 720.699,1408.79 720.699,1408.79C720.699,1408.79 658.004,1453.45 654.395,1520.65C650.787,1587.86 655.297,1617.18 662.514,1639.28C670.633,1601.39 693.535,1562.21 715.287,1541.4Z" style="fill:rgb(55,52,105);"/>
            <path id="Cap:-Front" serif:id="Cap: Front" d="M792.535,1487.12C796.595,1455.55 800.985,1421.53 868.191,1400.33C935.397,1379.13 951.635,1370.56 978.247,1376.42C1004.86,1382.29 997.978,1396.13 992.566,1406.51C987.153,1416.88 957.561,1436.18 954.854,1437.54C952.148,1438.89 895.374,1440.21 792.535,1487.12Z" style="fill:rgb(63,82,172);"/>
            <path id="Ear:-Base" serif:id="Ear: Base" d="M756.375,1645.39C746.118,1664.82 725.066,1672.38 698.075,1662.66C671.085,1652.95 662.988,1629.2 671.085,1612.46C679.182,1595.73 716.969,1595.73 728.305,1612.46C739.641,1629.2 766.631,1625.96 756.375,1645.39Z" style="fill:rgb(251,199,180);"/>
            <path id="Ear:-In1" serif:id="Ear: In" d="M732.083,1633.52C735.024,1639.89 716.969,1655.11 704.013,1642.16C691.058,1629.2 725.605,1619.49 732.083,1633.52Z" style="fill:rgb(206,150,131);"/>
            <path id="Nose1" serif:id="Nose" d="M882.709,1558.68C893.771,1562.7 921.93,1559.18 926.958,1537.06C909.862,1536.56 881.2,1550.63 882.709,1558.68Z" style="fill:rgb(206,150,131);"/>
            <path id="Eye" d="M825.11,1575.39C833.499,1570.36 831.592,1557.4 825.999,1543.98C820.407,1530.56 812.112,1528.12 807.05,1530.29C799.22,1533.65 794.998,1547.19 802.017,1561.05C807.212,1571.31 816.722,1580.42 825.11,1575.39Z" style="fill:rgb(37,15,8);"/>
            <path id="Light" d="M812.788,1538.47C807.863,1540.96 807.055,1545.95 810.295,1552.43C813.536,1558.91 817.773,1560.65 821.013,1558.91C824.253,1557.16 823.903,1532.85 812.788,1538.47Z" style="fill:rgb(242,235,232);"/>
            <path id="Eyebrow2" serif:id="Eyebrow" d="M813.046,1516.43C806.056,1515.93 797.818,1513.43 791.078,1517.68C784.337,1521.92 779.594,1530.91 779.594,1537.15C773.603,1540.89 775.101,1534.65 775.85,1530.16C776.598,1525.67 781.342,1516.43 788.581,1512.44C795.821,1508.44 807.304,1508.44 813.795,1512.19C818.288,1514.18 816.79,1517.18 813.046,1516.43Z" style="fill:rgb(86,61,52);"/>
            <path id="Eye1" serif:id="Eye" d="M958.599,1523.02C967.631,1518.57 966.428,1505.68 963.072,1497.3C959.717,1488.91 952.153,1474.86 940.011,1481.84C932.61,1486.09 932.513,1498.78 936.428,1507.16C940.342,1515.55 950.15,1527.18 958.599,1523.02Z" style="fill:rgb(37,15,8);"/>
            <path id="Light1" serif:id="Light" d="M952.666,1505.13C957.825,1502.44 958.947,1498.18 956.704,1491.89C954.46,1485.61 945.263,1484.27 943.693,1489.2C942.123,1494.14 947.506,1507.82 952.666,1505.13Z" style="fill:rgb(242,235,232);"/>
            <path id="Eyebrow3" serif:id="Eyebrow" d="M924.198,1473.37C924.198,1470.38 928.442,1464.63 935.681,1461.64C942.921,1458.64 950.91,1463.63 954.904,1464.38C958.898,1465.13 958.648,1461.64 954.904,1460.39C951.159,1459.14 939.176,1454.15 933.684,1456.39C928.192,1458.64 919.205,1466.13 919.954,1472.62C920.703,1479.11 924.198,1476.37 924.198,1473.37Z" style="fill:rgb(86,61,52);"/>
        </g>
        <g id="Steffi" transform="matrix(0.839337,0,0,0.839337,-0.619221,-0.612522)">
            <path id="Backpack" d="M1311.64,1496.08C1286.63,1493.9 1280.76,1445.05 1285.6,1408C1290.5,1370.49 1304.55,1289.02 1347.51,1292.28C1390.46,1295.55 1526.91,1286.4 1519.85,1323.92C1492.12,1471.09 1336.65,1498.26 1311.64,1496.08Z" style="fill:rgb(80,70,66);"/>
            <path id="Legs1" serif:id="Legs" d="M1272.89,1606.96C1275.36,1649.02 1259.28,1720.78 1246.91,1748C1234.54,1775.22 1203.46,1848.78 1185.51,1869.3C1175.25,1881.03 1197.6,1890.45 1206.36,1875.46C1216.51,1858.07 1328.74,1762.92 1340.26,1754.18C1351.78,1745.44 1396.26,1698.97 1412.15,1696.99C1428.04,1695 1465.99,1683.86 1460.21,1728.37C1456.24,1758.95 1438.36,1778.01 1427.64,1788.34C1416.92,1798.67 1393.48,1814.16 1383.55,1817.33C1373.62,1820.51 1381.57,1837.59 1393.48,1836.8C1405.4,1836 1448.16,1822.25 1491.22,1786.59C1516.64,1765.54 1552.5,1705.77 1556.48,1677.17C1560.45,1648.58 1562.73,1621.1 1555.18,1609.58C1547.63,1598.06 1528.84,1578.32 1517.71,1580.59C1501.43,1593.3 1387.58,1635.6 1272.89,1606.96Z" style="fill:rgb(80,70,66);"/>
            <path d="M1380.68,1331.06L1390.49,1264.87L1492.63,1269.77L1482.83,1332.69L1380.68,1331.06Z" style="fill:rgb(251,199,180);"/>
            <path id="Arm2" serif:id="Arm" d="M1689.12,1442.11C1720.69,1449.79 1747.81,1441.37 1747.81,1441.37L1724.78,1477.77C1724.78,1477.77 1680.21,1478.51 1649.75,1473.31C1619.29,1468.11 1628.95,1453.25 1628.95,1453.25L1636.38,1432.45C1636.38,1432.45 1661.63,1435.42 1689.12,1442.11Z" style="fill:rgb(251,199,180);"/>
            <path id="Hand2" serif:id="Hand" d="M1164.29,1482.97C1151.66,1494.11 1123.43,1518.63 1123.43,1518.63C1123.43,1518.63 1108.58,1510.46 1096.69,1523.83C1084.8,1537.2 1087.86,1542.46 1090.79,1544.06C1087.33,1547.25 1079.61,1557.37 1083.33,1562.03C1087.06,1566.69 1103.7,1557.5 1108.76,1551.91C1104.23,1558.83 1090.92,1578 1100.37,1582.93C1109.83,1587.85 1122.74,1573.21 1127.8,1565.62C1123.27,1575.21 1114.88,1590.12 1124.47,1594.38C1134.05,1598.64 1148.83,1571.48 1150.43,1565.62C1152.16,1573.21 1151.62,1577.87 1158.01,1577.47C1164.4,1577.07 1171.33,1566.69 1168,1542.06C1180.11,1528.08 1231.3,1470.6 1231.3,1470.6L1193.95,1450.99C1193.95,1450.99 1176.92,1471.83 1164.29,1482.97Z" style="fill:rgb(251,199,180);"/>
            <path id="Shirt:-Arm" serif:id="Shirt: Arm" d="M1499.97,1376.53C1499.97,1376.53 1492.71,1338.16 1492.71,1326.89C1492.71,1315.62 1506.43,1304.19 1526.81,1309.56C1547.2,1314.92 1545.06,1324.04 1547.2,1337.99C1549.35,1351.94 1561.69,1379.3 1575.1,1389.5C1588.51,1399.69 1625,1417.93 1648.07,1421.15C1656.11,1448.51 1653.43,1457.63 1636.8,1472.12C1618.02,1467.29 1587.68,1461.27 1568.66,1447.44C1556.86,1438.86 1543.27,1436.89 1532.32,1420.48C1520.9,1403.38 1499.97,1376.53 1499.97,1376.53Z" style="fill:rgb(208,105,68);"/>
            <path id="Shirt:-Body" serif:id="Shirt: Body" d="M1384.68,1307.96C1384.68,1307.96 1342.19,1314.03 1333.09,1324.65C1323.99,1335.27 1323.99,1428.59 1302.74,1471.83C1281.5,1515.08 1235.98,1558.32 1233.7,1568.18C1231.43,1578.05 1262.53,1615.98 1304.26,1630.4C1345.99,1644.81 1454.79,1648.77 1518.41,1599.22C1519.52,1567.46 1512.21,1544.4 1510.46,1511.64C1508.71,1478.88 1516.58,1431.71 1517.89,1422.54C1519.2,1413.37 1543.66,1340.65 1534.92,1327.55C1526.18,1314.44 1500.43,1301.7 1491.24,1310.95C1458.96,1343.46 1384.68,1307.96 1384.68,1307.96Z" style="fill:rgb(208,105,68);"/>
            <path id="Shirt:-Arm1" serif:id="Shirt: Arm" d="M1377.86,1355.56C1381.58,1372.65 1378.6,1395.67 1368.2,1400.13C1357.8,1404.59 1308.77,1420.19 1294.66,1432.82C1280.54,1445.45 1230.77,1473.68 1219.63,1484.08C1201.06,1481.11 1186.94,1460.3 1181,1446.19C1198.09,1433.56 1259.74,1377.85 1276.09,1360.76C1292.43,1343.67 1326.69,1315.06 1348.22,1317.21C1368.72,1319.26 1374.15,1338.47 1377.86,1355.56Z" style="fill:rgb(208,105,68);"/>
            <path id="Backpack:-Rope" serif:id="Backpack: Rope" d="M1501.44,1308.87C1510.42,1357.7 1480.76,1397.49 1513.54,1451.07C1517.27,1448.45 1519.66,1439.48 1516.93,1431.96C1504.76,1398.41 1517.88,1358.37 1514.95,1307.92C1510.34,1305.01 1502.88,1304.83 1501.44,1308.87Z" style="fill:rgb(80,70,66);"/>
            <path id="Backpack:-Rope1" serif:id="Backpack: Rope" d="M1358.93,1313.62C1369.79,1352.12 1357.61,1415.13 1314.18,1439.48C1308.59,1441.78 1304.81,1454.28 1309.75,1453.95C1347.26,1436.85 1391.83,1400.73 1370.99,1310.71C1365.13,1307.95 1359.95,1311.55 1358.93,1313.62Z" style="fill:rgb(80,70,66);"/>
            <g id="Windmill">
                <path d="M1646.69,1602.19C1692.78,1518.97 1864.35,1262.9 1882.27,1223.21C1900.2,1183.52 1924.53,1188.64 1906.6,1234.73C1888.67,1280.82 1719.67,1553.54 1679.98,1600.91C1653.56,1632.44 1631.45,1629.7 1646.69,1602.19Z" style="fill:rgb(80,70,66);"/>
                <path d="M1739.66,1149.37L1697.07,1285.84L2117.78,1164.15L2148.2,1028.55L1739.66,1149.37Z" style="fill:rgb(154,55,55);"/>
                <path d="M1739.66,1149.37L1912.93,1223.4L2118.6,1164L1950.31,1086.75L1739.66,1149.37Z" style="fill:rgb(217,124,124);"/>
                <path d="M1912.48,963.151L1771.58,938.931L1947.71,1339.92L2086.14,1352.19L1912.48,963.151Z" style="fill:rgb(154,55,55);"/>
                <path d="M1912.48,963.151L1861.85,1144.73L1947.74,1340.34L2002.8,1165.01L1912.48,963.151Z" style="fill:rgb(217,124,124);"/>
                <circle cx="1933.75" cy="1152.67" r="31.933" style="fill:rgb(80,70,66);"/>
            </g>
            <path id="Hand3" serif:id="Hand" d="M1788.96,1484.99C1784.59,1500.28 1781.1,1508.59 1769.73,1511.64C1758.37,1514.7 1740.46,1518.64 1730.41,1511.64C1719.79,1500.42 1734.17,1489.43 1745.67,1494.65C1731.83,1482.21 1738.19,1475.17 1740.02,1473.19C1741.86,1471.22 1744.25,1464.58 1757.94,1468.11C1746.79,1460.63 1751.03,1452.73 1755.26,1447.51C1759.5,1442.29 1774.04,1436.17 1786.17,1452.73C1791.95,1460.63 1793.33,1469.7 1788.96,1484.99Z" style="fill:rgb(251,199,180);"/>
            <path id="Head2" serif:id="Head" d="M1097.95,1009.51C1130.85,1096.56 1170.63,1165.85 1255.66,1221.97C1337.38,1275.9 1467.31,1302.05 1535.95,1275.9C1604.59,1249.75 1686.3,1162.32 1711.64,1069.98C1736.97,977.641 1760.66,856.701 1741.87,757.008C1723.08,657.315 1620.32,523.096 1367,542.708C1113.68,562.32 1039.69,855.36 1097.95,1009.51Z" style="fill:rgb(251,199,180);"/>
            <path id="Hair:-Back" serif:id="Hair: Back" d="M1401.66,355.278C1415.16,332.14 1439.26,300.325 1425.76,267.546C1412.27,234.767 1396.84,228.018 1385.27,224.162C1383.34,242.48 1377.56,263.69 1369.85,271.402C1363.1,248.264 1356.35,218.378 1307.18,201.988C1258.01,185.599 1225.23,203.916 1212.7,208.737C1234.87,229.947 1262.83,239.587 1266.69,274.295C1210.77,253.085 1180.88,246.336 1147.14,270.438C1113.4,294.54 1090.26,361.062 1094.12,389.985C1137.5,378.416 1121.11,409.266 1113.4,417.943C1105.68,426.62 1085.44,479.645 1005.42,471.932C1010.25,496.711 1033.01,496.43 1038.79,498.358C1021.25,515.62 959.559,595.307 898.194,594.812C950.156,622.525 976.385,607.184 980.839,606.194C975.395,623.02 968.467,661.126 956.095,679.931C943.723,698.737 888.296,733.378 891.761,743.771C895.225,754.163 957.085,743.771 1010.53,689.829C1063.98,635.887 1388.16,378.416 1401.66,355.278Z" style="fill:rgb(111,75,62);"/>
            <path id="Plate" d="M1484.59,311.451L1508.27,373.018C1508.27,373.018 981.974,548.16 975.388,518.837C968.802,489.513 1484.59,311.451 1484.59,311.451Z" style="fill:rgb(70,61,57);"/>
            <path id="Hair:-Base" serif:id="Hair: Base" d="M1234.95,732.506C1214.51,743.409 1107.17,822.561 1080.79,957.726C1049.85,895.117 1001.91,771.166 1011.94,670.911C1021.96,570.656 1076.65,442.831 1247.08,383.589C1417.51,324.348 1566.07,414.577 1622.58,465.616C1679.09,516.655 1700.96,583.188 1709.16,626.935C1662.76,572.8 1569.4,613.405 1475.18,615.931C1358.41,619.06 1242.23,602.394 1234.95,732.506Z" style="fill:rgb(86,61,52);"/>
            <path id="Hair:-Front" serif:id="Hair: Front" d="M1485.87,664.303C1462.99,608.726 1371.03,619.644 1334.58,634.226C1298.12,648.809 1230.67,708.051 1235.23,788.254C1177.81,677.974 1193.31,615.087 1218.83,574.074C1244.35,533.06 1329.11,470.173 1418.42,535.794C1456.02,563.413 1477.67,605.973 1477.67,605.973C1477.67,605.973 1491.34,522.123 1577.01,516.655C1662.68,511.186 1706.25,549.082 1717.91,590.149C1725.95,618.461 1712.35,656.776 1723.75,690.734C1730.08,709.605 1743.8,734.481 1773.88,739.038C1722.84,747.241 1693.4,733.476 1681.55,720.716C1669.7,707.957 1661.77,641.518 1613.47,625.112C1565.16,608.707 1517.77,636.961 1515.04,663.392C1512.3,676.151 1492.25,677.974 1485.87,664.303Z" style="fill:rgb(111,75,62);"/>
            <path id="Ear:-Base1" serif:id="Ear: Base" d="M1129.89,847.885C1100.12,825.299 1034.41,838.645 1023.12,888.949C1011.83,939.254 1032.36,984.425 1065.21,999.824C1098.07,1015.22 1125.69,1013.09 1140.16,997.771C1157.61,979.292 1159.66,870.47 1129.89,847.885Z" style="fill:rgb(251,199,180);"/>
            <path id="Ear:-In2" serif:id="Ear: In" d="M1098.06,899.216C1087.79,909.482 1071.37,922.828 1079.58,939.254C1087.79,955.68 1102.17,956.706 1109.35,946.44C1116.54,936.174 1102.17,922.828 1099.09,922.828C1096.01,922.828 1108.33,888.949 1098.06,899.216Z" style="fill:rgb(206,150,131);"/>
            <ellipse id="Cheeks" cx="1253.8" cy="981.504" rx="118.349" ry="92.46" style="fill:url(#_Radial1);"/>
            <path id="Cheeks1" serif:id="Cheeks" d="M1709.53,1077.22C1684.9,1085.17 1659.56,1083.55 1638.89,1070.44C1595.79,1043.11 1589.2,976.139 1624.18,920.976C1654.63,872.955 1706.61,849.612 1747.99,862.401C1744.62,934.467 1728.49,1008.55 1711.63,1069.98C1710.97,1072.39 1710.27,1074.81 1709.53,1077.22Z" style="fill:url(#_Radial2);"/>
            <path id="Mouth:-Base1" serif:id="Mouth: Base" d="M1237.77,1052.29C1259.3,1104.07 1339.59,1196.58 1371,1219.27C1402.42,1241.96 1467.66,1270.62 1524.6,1240.8C1597.91,1202.4 1639.8,1113.38 1663.65,1063.34C1668.96,1052.21 1667.14,1042.98 1661.91,1048.22C1656.67,1053.45 1598.67,1084.16 1533.95,1094.56C1466.61,1105.37 1419.61,1098.42 1355.38,1083.96C1278.64,1066.68 1232.54,1039.71 1237.77,1052.29Z" style="fill:rgb(86,61,52);"/>
            <path id="Mouth:-Tongue1" serif:id="Mouth: Tongue" d="M1352.97,1196.47C1405.97,1154.61 1513.05,1156.86 1571.41,1198.85C1511.43,1261.41 1427.35,1266.72 1352.97,1196.47Z" style="fill:rgb(167,80,105);"/>
            <path id="Mouth:-Teeth1" serif:id="Mouth: Teeth" d="M1257.68,1053.78C1257.68,1053.78 1257.17,1075.93 1258.92,1078.56C1260.67,1081.18 1339.89,1111.71 1391.95,1118.82C1439.17,1125.26 1523.67,1126.26 1557.36,1117.94C1591.06,1109.63 1637.01,1089.06 1643.57,1086.87C1650.13,1084.68 1651.97,1054.69 1648.33,1056.43C1577.98,1089.86 1472.26,1132.04 1257.68,1053.78Z" style="fill:rgb(242,235,232);"/>
            <path id="Nose2" serif:id="Nose" d="M1471.4,1020.53C1471.4,1031.13 1503.94,1050.05 1519.08,1049.29C1534.22,1048.53 1567.56,1022.47 1568.27,1016.75C1569.34,1008.14 1531.19,1014.48 1519.84,1015.23C1508.48,1015.99 1471.4,1009.94 1471.4,1020.53Z" style="fill:rgb(206,150,131);"/>
            <path id="Lash" d="M1353.24,856.865C1351.9,863.333 1332.43,853.231 1323.84,837.047C1315.26,820.862 1342.9,855.503 1353.24,856.865Z" style="fill:rgb(37,15,8);"/>
            <path id="Lash1" serif:id="Lash" d="M1345.09,867.382C1344.74,874.85 1324.27,870.946 1310.75,858.584C1297.22,846.222 1323.78,867.613 1345.09,867.382Z" style="fill:rgb(37,15,8);"/>
            <path id="Eye2" serif:id="Eye" d="M1359.02,940.167C1375.99,941.147 1391.96,910.753 1391.96,896.045C1391.96,881.338 1385.97,848.002 1365.01,848.002C1344.05,848.002 1336.06,879.377 1336.06,897.026C1336.06,914.674 1342.05,939.186 1359.02,940.167Z" style="fill:rgb(37,15,8);"/>
            <path d="M1372.97,873.654C1382.09,874.957 1383.4,884.734 1383.4,891.251C1383.4,897.769 1378.84,907.545 1374.92,908.197C1371.01,908.849 1363.85,899.073 1363.85,893.858C1363.85,888.644 1363.85,872.35 1372.97,873.654Z" style="fill:rgb(242,235,232);"/>
            <path id="Lash2" serif:id="Lash" d="M1659.1,871.999C1661.67,879.708 1678.3,873.703 1687.56,858.381C1696.83,843.06 1676.95,867.167 1659.1,871.999Z" style="fill:rgb(37,15,8);"/>
            <path id="Lash3" serif:id="Lash" d="M1656.24,885.438C1655.88,889.108 1672.66,894.646 1685.89,884.437C1699.12,874.229 1673.64,888.759 1656.24,885.438Z" style="fill:rgb(37,15,8);"/>
            <path id="Eye3" serif:id="Eye" d="M1651.95,861.485C1668.32,862.448 1672.17,893.266 1672.17,912.527C1672.17,931.788 1665.43,951.05 1645.21,950.087C1624.98,949.123 1624.02,925.047 1624.02,906.749C1624.02,888.451 1635.58,860.522 1651.95,861.485Z" style="fill:rgb(37,15,8);stroke:black;stroke-width:0.75px;"/>
            <path d="M1658.64,883.012C1649.52,884.316 1648.21,894.092 1648.21,900.61C1648.21,907.127 1652.77,916.904 1656.68,917.556C1660.6,918.207 1667.77,908.431 1667.77,903.217C1667.77,898.003 1667.77,881.709 1658.64,883.012Z" style="fill:rgb(242,235,232);"/>
            <path id="Eyebrow4" serif:id="Eyebrow" d="M1563.71,816.821C1568.67,806.895 1609.48,786.898 1635.54,785.037C1661.59,783.176 1690.88,788.906 1701.42,801.933C1711.97,814.96 1669.41,789.314 1637.82,793.721C1606.24,798.129 1583.47,809.392 1572.2,821.39C1560.94,833.388 1558.75,826.746 1563.71,816.821Z" style="fill:rgb(86,61,52);"/>
            <path id="Eyebrow5" serif:id="Eyebrow" d="M1433.68,799.353C1426.82,794.946 1385.81,775.553 1353.16,771.993C1325.46,768.971 1295.65,771.032 1261.81,779.04C1249.15,782.036 1258.71,785.768 1264.51,784.671C1283.58,781.062 1321.84,776.082 1352.06,780.563C1379.59,784.644 1412.26,799.843 1424.5,805.474C1436.74,811.106 1440.54,803.761 1433.68,799.353Z" style="fill:rgb(86,61,52);"/>
        </g>
        <g id="Flowers" transform="matrix(0.812457,0,0,0.812457,-566.264,287.558)">
            <g id="Flower">
                <path d="M1670.83,1994.13C1673.14,1966.98 1678.92,1934.64 1682.38,1916.73C1685.85,1898.83 1691.05,1891.89 1677.18,1861.28C1663.32,1830.67 1658.7,1816.81 1660.43,1811.61C1662.17,1806.41 1671.41,1826.62 1678.34,1845.11C1685.27,1863.59 1697.98,1886.12 1695.09,1900.56C1692.2,1915 1680.07,1975.65 1680.65,1990.09C1681.23,2004.53 1670.02,2003.63 1670.83,1994.13Z" style="fill:rgb(80,126,65);"/>
                <path d="M1676.6,2000.81C1698.56,1984.88 1725.7,1942.72 1738.41,1907.49C1751.12,1872.25 1742.45,1871.1 1721.66,1892.47C1671.44,1944.08 1673.76,2002.87 1676.6,2000.81Z" style="fill:rgb(80,126,65);"/>
                <path d="M1678.34,1823.74C1680.98,1823.74 1679.62,1832.12 1679.17,1833.24C1677.24,1838.07 1669.27,1842.46 1664.34,1842.82C1658.45,1843.26 1653.07,1840.04 1647.62,1838.03C1645.87,1837.38 1645.1,1830.2 1643.23,1830.31C1641.5,1830.41 1637.65,1838.36 1635.16,1839.57C1625.85,1844.09 1616.22,1842.62 1609.67,1834.81C1603.87,1827.89 1603.81,1817.94 1608.56,1810.48C1610.41,1807.56 1614.87,1803.78 1614.87,1803.78C1614.87,1803.78 1605.82,1806.96 1600.95,1800.31C1596.4,1794.11 1596.4,1783.6 1600.4,1776.64C1603.57,1771.14 1616.43,1768.58 1621.66,1771.59C1623.76,1772.8 1625.3,1775.19 1623.44,1771.25C1618.9,1761.59 1624.14,1747.72 1631.48,1744.35C1643.38,1738.88 1656.62,1735.17 1666.3,1747.38C1668.06,1749.59 1669.23,1752.68 1669.54,1755.47C1669.63,1756.31 1669.18,1759.52 1669.95,1760.07C1670.56,1760.5 1672.03,1757.09 1672.19,1756.78C1673.31,1754.66 1675.17,1752.87 1677.25,1751.7C1683.67,1748.12 1698.1,1750.11 1702.37,1756.41C1706.9,1763.1 1705.84,1773.56 1702.81,1780.63C1701.76,1783.07 1698.68,1786.3 1698.56,1788.9C1698.41,1792.03 1705.05,1795.06 1706.99,1797.31C1712.8,1804.05 1710.64,1815.1 1704.12,1820.64C1699.97,1824.18 1691.78,1829.83 1686.66,1828.8C1685.09,1828.49 1678.34,1823.74 1678.34,1823.74Z" style="fill:rgb(213,156,26);"/>
                <path d="M1671.68,1785.55C1666.11,1779.5 1653.06,1779.13 1645.66,1782.36C1636.97,1786.15 1637.38,1799.69 1644.09,1805.1C1647.6,1807.93 1652.08,1808.27 1656.43,1808.27C1660.84,1808.27 1665.4,1808.45 1669.39,1806.28C1676,1802.7 1677.25,1791.6 1671.68,1785.55Z" style="fill:rgb(233,225,206);"/>
            </g>
            <path id="Grass" d="M1631.56,2028.79C1616.94,2028.41 1613.65,2020.13 1607.88,2000.49C1602.1,1980.85 1590.55,1939.26 1573.22,1930.02C1555.89,1920.78 1609.03,1932.33 1621.74,1962.94C1627.52,1919.62 1641.38,1906.92 1649.47,1893.63C1657.55,1880.35 1665.64,1880.92 1658.13,1917.31C1650.62,1953.7 1656.97,1969.3 1656.97,1969.3C1656.97,1969.3 1684.12,1948.5 1698.56,1944.46C1713,1940.42 1673.73,1969.88 1661.6,1988.94C1649.47,2008 1653.51,2029.37 1631.56,2028.79Z" style="fill:rgb(96,137,82);"/>
            <g id="Flower1" serif:id="Flower">
                <path d="M1918.57,2021.33C1917.41,2027.59 1912.7,2026.82 1910.87,2021.33C1899.32,1986.67 1863.22,1963.57 1853.59,1913.03C1851.42,1901.66 1879.58,1915.44 1889.21,1927.47C1898.84,1939.5 1907.98,1978.01 1930.6,1942.87C1953.23,1907.73 1979.22,1929.39 1994.14,1935.65C2009.06,1941.91 1965.54,1955.88 1954.67,1965.5C1937.93,1980.31 1925.79,1982.34 1918.57,2021.33Z" style="fill:rgb(86,125,72);"/>
                <path d="M1911.35,1967.9C1908.94,1946.72 1921.94,1879.82 1927.72,1865.38C1933.49,1850.93 1937.82,1860.56 1929.64,1893.29C1921.46,1926.02 1919.05,1967.9 1919.53,1967.9C1920.01,1967.9 1911.99,1973.56 1911.35,1967.9Z" style="fill:rgb(86,125,72);"/>
                <path d="M1935.3,1864.88C1935.3,1866.14 1925.62,1869.55 1920.06,1870.36C1914.24,1871.22 1904.11,1869.92 1899.63,1866.89C1893.51,1862.74 1892.26,1852.1 1891.52,1845.35C1890.37,1834.79 1896.62,1817.95 1909.03,1817.06C1912.94,1816.78 1917.33,1814.45 1920.91,1815.9C1921.73,1816.23 1913.99,1813.05 1911.18,1809.78C1906.63,1804.51 1899.58,1798.07 1906.4,1785.62C1915.03,1769.89 1928.08,1768.04 1938.84,1769.71C1940.72,1770.01 1947.43,1773.67 1948.71,1775.16C1949.07,1775.57 1950.29,1778.59 1951.02,1778.41C1951.8,1778.21 1952.32,1775.57 1952.58,1774.96C1953.73,1772.33 1955.41,1769.98 1957.51,1768.03C1967.04,1759.16 1978.99,1758.92 1990.14,1764.97C2000.88,1770.8 2008.12,1785.01 2010.63,1796.43C2011.72,1801.4 2012.5,1806.47 2010.69,1811.39C2009.08,1815.74 2005.24,1820.4 2001.73,1823.39C2001.11,1823.92 1997.15,1826.06 1997.36,1826.85C1997.85,1828.65 2004.6,1829.61 2006.22,1830.49C2015.28,1835.41 2019.54,1846.21 2013.57,1857.83C2007.9,1868.88 2002.63,1876.01 1989.72,1873.17C1984.3,1871.99 1982.11,1870.58 1977.57,1867.25C1976.21,1866.26 1976.11,1866.53 1976.57,1867.42C1979.55,1873.11 1982.74,1880.55 1977.86,1886.21C1973.78,1890.94 1964.1,1894.57 1952.17,1890.97C1930.17,1884.34 1935.3,1864.88 1935.3,1864.88Z" style="fill:rgb(192,106,100);"/>
                <path d="M1967.56,1812.12C1959.8,1806.33 1945.01,1804.26 1935.91,1814.83C1930.21,1821.46 1929.68,1839.84 1937.39,1845.14C1949.38,1853.38 1966.89,1848.94 1971.4,1842.18C1976,1835.31 1977.23,1819.33 1967.56,1812.12Z" style="fill:rgb(227,211,210);"/>
            </g>
            <path id="Grass1" serif:id="Grass" d="M1778.19,2043.75C1773.38,2009.46 1755.33,1955.91 1736.07,1928.83C1716.82,1901.76 1747.51,1916.2 1764.95,1934.85C1772.78,1898.75 1792.03,1868.06 1811.88,1836.17C1831.74,1804.29 1840.16,1807.29 1826.93,1867.46C1813.69,1927.63 1812.49,1944.84 1812.49,1953.26C1825.96,1931.36 1844.98,1924.02 1861.82,1917.4C1878.67,1910.78 1850.99,1957.11 1832.34,1980.58C1813.69,2004.04 1800.45,2014.87 1800.45,2039.54C1800.45,2044.95 1779.07,2049.98 1778.19,2043.75Z" style="fill:rgb(108,142,96);"/>
        </g>
        <g id="Girl" transform="matrix(0.923136,0,0,0.923136,-803.179,245.549)">
            <g id="Bear">
                <path id="Arm3" serif:id="Arm" d="M2298.5,1786.91C2300.3,1771.57 2310.23,1752.62 2330.09,1740.88C2349.94,1729.15 2377.02,1719.22 2386.04,1725.54C2395.07,1731.86 2392.36,1745.39 2381.53,1754.42C2370.7,1763.44 2334.6,1789.62 2314.74,1791.42C2294.89,1793.23 2296.7,1802.25 2298.5,1786.91Z" style="fill:rgb(111,75,62);"/>
                <path id="Arm4" serif:id="Arm" d="M2245.25,1832.94C2227.2,1842.87 2210.95,1860.92 2205.54,1882.58C2200.12,1904.24 2200.12,1914.17 2202.83,1919.58C2205.54,1925 2210.05,1931.31 2220.88,1923.19C2231.71,1915.07 2247.05,1873.55 2251.57,1857.31C2256.08,1841.06 2263.3,1823.01 2245.25,1832.94Z" style="fill:rgb(111,75,62);"/>
                <path id="Leg" d="M2276.84,1906.05C2277.74,1925.9 2268.72,1932.22 2258.79,1942.15C2248.86,1952.08 2243.45,1971.93 2259.69,1977.35C2275.94,1982.76 2296.7,1962.01 2303.01,1946.66C2309.33,1931.32 2304.82,1902.44 2304.82,1902.44C2304.82,1902.44 2275.94,1886.19 2276.84,1906.05Z" style="fill:rgb(111,75,62);"/>
                <path id="Leg1" serif:id="Leg" d="M2340.01,1878.07C2345.43,1891.61 2343.62,1902.44 2334.6,1914.17C2325.57,1925.9 2320.15,1934.93 2329.18,1941.25C2338.2,1947.56 2360.77,1942.15 2370.7,1920.49C2380.62,1898.83 2370.7,1844.68 2349.94,1839.26C2329.18,1833.85 2334.6,1864.53 2340.01,1878.07Z" style="fill:rgb(111,75,62);"/>
                <path id="Body" d="M2334.6,1904.24C2318.35,1918.68 2277.74,1931.32 2260.59,1901.53C2243.45,1871.75 2228.1,1846.48 2242.54,1817.6C2256.98,1788.72 2276.84,1771.57 2299.4,1776.99C2321.96,1782.4 2349.94,1811.28 2357.16,1837.45C2364.38,1863.63 2350.85,1889.8 2334.6,1904.24Z" style="fill:rgb(111,75,62);"/>
                <path d="M2296.82,1887.42C2279.67,1880.2 2273.23,1865.43 2277.74,1845.58C2282.26,1825.72 2296.88,1817.92 2309.39,1833.57C2323.27,1850.92 2321.72,1863.85 2319.01,1873.78C2316.3,1883.7 2305.08,1890.9 2296.82,1887.42Z" style="fill:rgb(124,100,91);"/>
                <path id="Ear2" serif:id="Ear" d="M2226.3,1720.13C2222.69,1702.98 2229.01,1683.13 2243.45,1681.32C2257.89,1679.52 2283.16,1689.44 2281.35,1706.59C2279.55,1723.74 2267.82,1737.28 2257.89,1734.57C2247.96,1731.86 2229.91,1737.28 2226.3,1720.13Z" style="fill:rgb(111,75,62);"/>
                <path id="Ear:-In3" serif:id="Ear: In" d="M2237.59,1710.87C2241.75,1704.4 2248.68,1697.01 2254.22,1697.47C2259.77,1697.93 2262.54,1708.1 2260.23,1713.18C2252.61,1729.96 2233.43,1717.34 2237.59,1710.87Z" style="fill:rgb(124,100,91);"/>
                <path id="Ear3" serif:id="Ear" d="M2161.32,1763.45C2135.15,1758.04 2135.15,1762.55 2125.22,1776.99C2115.29,1791.43 2124.32,1822.11 2143.27,1818.5C2162.22,1814.89 2174.86,1805.87 2173.95,1799.55C2173.05,1793.23 2187.49,1768.87 2161.32,1763.45Z" style="fill:rgb(111,75,62);"/>
                <path id="Ear:-In4" serif:id="Ear: In" d="M2158.57,1777.41C2149.33,1777.87 2140.09,1783.42 2140.55,1790.81C2141.01,1798.2 2151.18,1802.36 2162.73,1802.36C2174.28,1802.36 2167.81,1776.95 2158.57,1777.41Z" style="fill:rgb(124,100,91);"/>
                <path id="Head3" serif:id="Head" d="M2247.96,1834.75C2223.59,1841.07 2192,1842.87 2181.17,1831.14C2170.34,1819.41 2142.37,1789.62 2160.42,1749.01C2178.47,1708.4 2224.49,1702.98 2251.57,1714.72C2278.64,1726.45 2305.72,1764.36 2291.28,1789.62C2276.84,1814.89 2272.33,1828.43 2247.96,1834.75Z" style="fill:rgb(111,75,62);"/>
                <path id="Eye4" serif:id="Eye" d="M2237.09,1749.4C2235.69,1747.43 2230.32,1746.52 2229.99,1746.5C2225.65,1746.3 2218.46,1750.65 2222.14,1755.8C2224.36,1758.91 2232.04,1761.05 2235.37,1759.01C2238.53,1757.08 2238.49,1751.37 2237.09,1749.4Z" style="fill:rgb(80,56,47);"/>
                <path id="Eye5" serif:id="Eye" d="M2193.88,1785.91C2192.92,1785.47 2189.34,1785.23 2189.03,1785.23C2185.03,1785.23 2177.91,1787.51 2180.11,1793.11C2182.72,1799.72 2198.29,1799.76 2196.39,1791.24C2196.39,1791.24 2194.84,1786.35 2193.88,1785.91Z" style="fill:rgb(80,56,47);"/>
                <path id="Nose3" serif:id="Nose" d="M2216.92,1795.56C2220.18,1797.23 2226.14,1795.02 2228.67,1792.05C2232.42,1787.65 2234.88,1778.9 2227.3,1778.56C2222.29,1778.33 2218.69,1783.42 2216.26,1787.9C2214.24,1791.63 2213.66,1793.9 2216.92,1795.56Z" style="fill:rgb(80,56,47);"/>
                <path id="Mouth1" serif:id="Mouth" d="M2228.37,1808.67C2228.01,1807.66 2227.83,1806.95 2228.2,1805.88C2229.73,1801.41 2237.07,1802.71 2240.29,1800.16C2241.92,1798.87 2243.45,1797.15 2244.4,1795.29C2245.29,1793.56 2245.79,1791.22 2247.41,1789.99C2251.22,1787.1 2254.64,1793.68 2254.57,1796.75C2254.44,1802.72 2249.27,1808.58 2243.98,1810.84C2241.53,1811.89 2238.67,1812.04 2236.05,1812.13C2233.14,1812.23 2228.74,1809.68 2228.37,1808.67Z" style="fill:rgb(80,56,47);"/>
            </g>
            <path id="Legs2" serif:id="Legs" d="M2451.15,1816.51C2482.74,1846.97 2488.62,1852.87 2495.39,1859.64C2502.16,1866.41 2504.34,1877.51 2499.66,1887.58C2488.35,1911.93 2493.56,1928.63 2513.95,1911.14C2526.68,1900.22 2539.14,1885.33 2539.14,1869.53C2539.14,1853.74 2538.02,1831.18 2561.71,1827.79C2585.4,1824.41 2584.58,1848.52 2578.17,1859.67C2565.65,1881.47 2582.44,1875.47 2591.98,1864.72C2599.36,1856.42 2618.11,1832.3 2614.73,1808.61C2611.35,1784.92 2582.01,1783.79 2558.32,1784.92C2534.63,1786.05 2419.56,1786.05 2451.15,1816.51Z" style="fill:rgb(80,70,66);"/>
            <path id="Hand4" serif:id="Hand" d="M2431.09,1666.78C2421.85,1680.64 2402.21,1700.86 2387.19,1708.95C2370.44,1704.9 2367.55,1707.21 2365.24,1713.57C2362.93,1719.92 2366.01,1723.19 2369.04,1725.61C2364.5,1728.64 2361.01,1736.36 2363.59,1739.54C2366.16,1742.72 2374.34,1739.54 2377.67,1737.12C2375.4,1742.42 2375.85,1745.75 2378.58,1747.11C2381.3,1748.47 2387.66,1745.44 2389.63,1739.39C2388.57,1747.87 2390.69,1747.11 2393.12,1747.26C2395.54,1747.41 2403.41,1738.33 2403.71,1728.79C2411.89,1721.37 2443.08,1693.06 2445.51,1688.21C2447.93,1683.36 2440.33,1652.92 2431.09,1666.78Z" style="fill:rgb(251,199,180);"/>
            <path id="Hand5" serif:id="Hand" d="M2559.2,1653.52C2568.44,1667.94 2573.99,1669.05 2590.25,1669.05C2606.52,1669.05 2603.19,1664.11 2611.43,1665.8C2619.67,1667.5 2618.61,1674.95 2615.39,1677.98C2622.96,1678.74 2626.56,1683.28 2626.56,1686.88C2626.56,1690.47 2622.39,1692.37 2618.61,1691.61C2625.23,1694.26 2625.8,1696.72 2625.23,1698.61C2624.66,1700.51 2617.85,1701.45 2614.07,1700.13C2617.85,1704.48 2614.63,1708.27 2609.9,1707.7C2605.17,1707.13 2596.46,1703.91 2594.19,1696.15C2584.73,1693.88 2560.31,1697.29 2554.64,1690.66C2548.96,1684.04 2533.82,1667.19 2533.82,1667.19C2533.82,1667.19 2554.69,1646.48 2559.2,1653.52Z" style="fill:rgb(251,199,180);"/>
            <path id="Neck2" serif:id="Neck" d="M2480.36,1641.75C2486.14,1633.09 2490.47,1619.37 2488.3,1609.98C2486.14,1600.6 2512.85,1604.93 2512.85,1604.93C2512.85,1604.93 2509.24,1626.59 2516.46,1638.86C2523.68,1651.14 2474.58,1650.41 2480.36,1641.75Z" style="fill:rgb(251,199,180);"/>
            <path id="Skirt" d="M2525.24,1640.21C2533.9,1632.7 2537.95,1632.12 2544.88,1639.63C2551.81,1647.14 2566.25,1656.96 2560.47,1661C2554.7,1665.05 2547.77,1673.13 2547.19,1680.06C2546.61,1687 2535.06,1678.33 2526.4,1669.09C2517.73,1659.85 2516.58,1647.72 2525.24,1640.21Z" style="fill:rgb(146,182,93);"/>
            <path id="Skirt1" serif:id="Skirt" d="M2475.56,1637.32C2466.9,1658.11 2451.3,1706.06 2427.62,1733.78C2403.94,1761.51 2385.45,1779.99 2395.85,1795.58C2406.25,1811.18 2438.59,1841.21 2532.74,1812.33C2591.25,1794.39 2606.94,1748.24 2592.24,1750.53C2588.37,1751.13 2579.42,1741.99 2574.33,1737.25C2557.58,1721.65 2529.86,1694.5 2529.28,1640.21C2529.19,1631.57 2525.23,1629.81 2517.15,1633.85C2509.06,1637.9 2497.51,1643.1 2489.42,1639.05C2481.34,1635.01 2478.57,1630.1 2475.56,1637.32Z" style="fill:rgb(146,182,93);"/>
            <path id="Skirt2" serif:id="Skirt" d="M2480.18,1648.29C2471.95,1636.71 2458.23,1635.01 2448.41,1646.56C2438.59,1658.11 2429.93,1665.62 2427.04,1666.2C2424.15,1666.77 2424.73,1669.66 2431.66,1678.33C2438.59,1686.99 2437.44,1690.45 2440.33,1695.08C2443.21,1699.7 2445.52,1700.27 2453.61,1695.08C2461.7,1689.88 2495.78,1670.24 2480.18,1648.29Z" style="fill:rgb(146,182,93);"/>
            <path id="Head4" serif:id="Head" d="M2446.6,1607.64C2486.31,1618.47 2537.75,1615.76 2579.27,1580.57C2620.78,1545.37 2637.93,1490.31 2626.2,1428.04C2614.47,1365.77 2546.78,1317.03 2483.6,1324.25C2420.43,1331.47 2335.55,1377.21 2338.3,1462.34C2340.1,1518.29 2372.14,1587.33 2446.6,1607.64Z" style="fill:rgb(251,199,180);"/>
            <path id="Hair2" serif:id="Hair" d="M2551.39,1311.95C2558.04,1302.34 2570.61,1282.38 2551.76,1275.72C2532.91,1269.07 2522.93,1282.38 2518.49,1293.1C2514.05,1303.82 2501.85,1303.82 2508.88,1279.42C2515.9,1255.02 2560.26,1226.93 2577.64,1267.22C2575.79,1244.3 2564.7,1246.15 2568.03,1235.43C2571.35,1224.71 2596.49,1241.71 2598.71,1260.94C2595.74,1241.65 2599.93,1221.8 2611.71,1254.62C2614.63,1262.21 2615.92,1273.99 2615.67,1264.96C2615.38,1254.25 2633.26,1266.57 2612.75,1287.92C2619.41,1286.44 2631.24,1285.7 2615.71,1302.34C2600.19,1318.97 2594.27,1332.65 2580.59,1335.98C2558.96,1341.24 2544.74,1321.56 2551.39,1311.95Z" style="fill:rgb(237,134,86);"/>
            <path id="Hair3" serif:id="Hair" d="M2377.11,1584.17C2321.06,1527.63 2310.98,1442.2 2333.79,1388.33C2376.21,1288.15 2444.8,1292.66 2457.43,1303.49C2466.46,1290.86 2588.3,1279.12 2620.79,1374.79C2634.05,1413.84 2637.03,1436.16 2634.32,1453.31C2631.62,1470.45 2628.46,1456.74 2625.13,1441.96C2621.81,1427.17 2618.48,1380.59 2578.93,1373.57C2560.92,1370.37 2546.76,1382.07 2541.59,1385.4C2536.41,1388.72 2531.98,1390.94 2522.37,1384.66C2512.75,1378.37 2488.36,1367.65 2461.74,1380.59C2435.12,1393.53 2400.74,1429.39 2396.68,1490.38C2392.61,1551.38 2403.22,1569.66 2394.56,1581.79C2385.9,1593.92 2382.97,1590.08 2377.11,1584.17Z" style="fill:rgb(237,134,86);"/>
            <path d="M2341.71,1373.12C2342.64,1363.19 2365,1334.84 2375.68,1330.94L2372.16,1360.92L2341.71,1373.12Z" style="fill:rgb(94,115,64);"/>
            <path id="Hair4" serif:id="Hair" d="M2376.56,1354.72C2370.64,1327.73 2372.12,1281.53 2332.2,1261.56C2321.7,1256.32 2322.59,1265.26 2324.81,1286.7C2310.76,1267.11 2294.22,1266.93 2282.66,1279.31C2267.14,1295.94 2295.97,1277.83 2298.56,1302.23C2273.42,1296.68 2255.68,1300.75 2244.59,1312.95C2233.5,1325.15 2230.54,1339.56 2230.17,1351.39C2229.67,1367.34 2231.28,1369.14 2246.44,1362.48C2236.83,1376.9 2237.93,1388.36 2244.59,1414.98C2251.24,1441.59 2248.29,1441.22 2245.33,1449.36C2242.37,1457.49 2248.66,1457.86 2255.31,1448.99C2261.96,1440.11 2289.69,1413.25 2290.8,1389.6C2291.11,1382.89 2310.76,1386.64 2320.37,1361.5C2323.14,1354.26 2351.79,1353.74 2355.12,1378.14C2355.12,1378.14 2382.47,1381.71 2376.56,1354.72Z" style="fill:rgb(237,134,86);"/>
            <path d="M2341.71,1373.17C2362.41,1355.8 2366.62,1351.88 2375.5,1330.81C2390.28,1340.79 2396.57,1346.7 2396.57,1346.7C2388.07,1369.62 2388.66,1370.21 2368.33,1389.43L2341.71,1373.17Z" style="fill:rgb(121,138,95);"/>
            <path d="M2555.45,1290.51C2564.32,1295.32 2596.11,1318.97 2601.29,1326C2601.29,1326 2598.9,1334.42 2593.53,1336.72C2584.28,1330.06 2563.95,1320.82 2548.43,1304.56L2555.45,1290.51Z" style="fill:rgb(121,138,95);"/>
            <path id="Mouth2" serif:id="Mouth" d="M2459.16,1536.03C2454.35,1540.47 2446.47,1537.23 2456.2,1529.38C2467.66,1520.13 2472.84,1523.46 2465.44,1531.96C2479.86,1550.45 2500.33,1570.45 2533.46,1568.56C2558.28,1567.15 2581.52,1541.94 2595.57,1521.24C2581.15,1513.85 2592.98,1510.15 2600.74,1512.74C2608.51,1515.33 2611.83,1525.31 2601.48,1521.61C2593.35,1535.66 2580.04,1556.36 2558.23,1568.56C2536.42,1580.76 2495.76,1584.09 2459.16,1536.03Z" style="fill:rgb(86,61,52);"/>
            <path id="Tongue" d="M2561.66,1562.53C2578.88,1575.4 2606.33,1595.46 2612.38,1575.02C2618.44,1554.58 2601.78,1547.77 2582.86,1541.9C2574.53,1552.12 2571.31,1554.96 2561.66,1562.53Z" style="fill:rgb(167,80,105);"/>
            <path id="Lashes" d="M2485.62,1457.73C2481.1,1456.22 2472.34,1451.76 2468.1,1445.79C2463.87,1439.81 2463.7,1454.26 2482.95,1460.51C2482.95,1460.51 2490.14,1459.24 2485.62,1457.73Z" style="fill:rgb(37,15,8);"/>
            <path id="Lashes1" serif:id="Lashes" d="M2482.57,1467.04C2477.84,1466.45 2468.38,1463.79 2463.05,1458.76C2457.73,1453.73 2460.39,1467.93 2480.5,1470.29C2480.5,1470.29 2487.3,1467.63 2482.57,1467.04Z" style="fill:rgb(37,15,8);"/>
            <path id="Lashes2" serif:id="Lashes" d="M2584.03,1453.42C2588.32,1451.94 2596.62,1447.52 2600.57,1441.58C2604.53,1435.64 2604.89,1450.06 2586.61,1456.21C2586.61,1456.21 2579.74,1454.9 2584.03,1453.42Z" style="fill:rgb(37,15,8);"/>
            <path id="Lashes3" serif:id="Lashes" d="M2588.15,1458.74C2592.69,1458.76 2601.98,1457.33 2607.67,1453.03C2613.37,1448.72 2608.95,1462.45 2589.67,1462.23C2589.67,1462.23 2583.61,1458.72 2588.15,1458.74Z" style="fill:rgb(37,15,8);"/>
            <path id="Eye6" serif:id="Eye" d="M2485.76,1453.32C2476.55,1458.18 2475.82,1472.72 2483.87,1486.44C2489.8,1496.56 2501.61,1492.83 2505.16,1485.5C2507.69,1480.26 2507.82,1471.26 2504.71,1463.68C2501.6,1456.1 2492.26,1449.89 2485.76,1453.32Z" style="fill:rgb(37,15,8);"/>
            <path id="Light2" serif:id="Light" d="M2498.94,1463.35C2496.78,1463.84 2494.17,1466.2 2494.58,1471.07C2494.94,1475.37 2496.97,1481.37 2499.85,1478.64C2502.72,1475.92 2503.63,1462.29 2498.94,1463.35Z" style="fill:rgb(242,235,232);"/>
            <path id="Eye7" serif:id="Eye" d="M2584.6,1445.45C2579.07,1445.27 2572.18,1452.55 2571.88,1465.26C2571.59,1477.98 2577.8,1488.33 2583.71,1488.04C2592.81,1487.58 2596.43,1477.39 2596.43,1467.33C2596.43,1461.12 2593.77,1445.75 2584.6,1445.45Z" style="fill:rgb(37,15,8);"/>
            <path id="Light3" serif:id="Light" d="M2586.28,1457.39C2583.4,1456.79 2582.65,1461.78 2582.34,1464.2C2582.04,1466.63 2584.16,1473.74 2585.83,1473.59C2587.49,1473.44 2589.91,1467.99 2589.91,1464.36C2589.91,1460.72 2589.16,1458 2586.28,1457.39Z" style="fill:rgb(242,235,232);"/>
            <path id="Nose4" serif:id="Nose" d="M2542.9,1505.49C2556.8,1505.19 2557.39,1507.26 2553.55,1511.7C2549.7,1516.14 2539.94,1516.73 2534.62,1512.59C2529.3,1508.45 2529,1505.79 2542.9,1505.49Z" style="fill:rgb(206,150,131);"/>
            <g id="Freckets">
                <circle cx="2509.48" cy="1520.57" r="5.027" style="fill:rgb(206,150,131);"/>
                <ellipse cx="2481.83" cy="1525.45" rx="4.88" ry="4.288" style="fill:rgb(206,150,131);"/>
                <ellipse cx="2495.29" cy="1510.81" rx="5.027" ry="3.549" style="fill:rgb(206,150,131);"/>
                <ellipse cx="2582.38" cy="1511.99" rx="4.288" ry="4.436" style="fill:rgb(206,150,131);"/>
                <ellipse cx="2593.47" cy="1498.39" rx="5.027" ry="4.14" style="fill:rgb(206,150,131);"/>
            </g>
        </g>
    </g>
    <defs>
        <radialGradient id="_Radial1" cx="0" cy="0" r="1" gradientUnits="userSpaceOnUse" gradientTransform="matrix(102.378,48.0767,-28.6873,61.0888,1256.27,977.806)"><stop offset="0" style="stop-color:rgb(230,107,139);stop-opacity:0.33"/><stop offset="1" style="stop-color:rgb(251,199,180);stop-opacity:0.33"/></radialGradient>
        <radialGradient id="_Radial2" cx="0" cy="0" r="1" gradientUnits="userSpaceOnUse" gradientTransform="matrix(1.98564,85.81,-77.5497,45.3424,1717.79,972.027)"><stop offset="0" style="stop-color:rgb(230,107,139);stop-opacity:0.33"/><stop offset="1" style="stop-color:rgb(251,199,180);stop-opacity:0.33"/></radialGradient>
    </defs>
</svg>
